<svg xmlns="http://www.w3.org/2000/svg" viewBox="0 0 755.19 448.27"><defs><style>.cls-1{font-size:49px;font-family:Helvetica-Light, Helvetica;font-weight:300;}.cls-1,.cls-4{fill:#fff;}.cls-2{fill:none;stroke-width:2px;}.cls-2,.cls-4{stroke:#fff;stroke-miterlimit:10;}.cls-3,.cls-4{isolation:isolate;}.cls-4{font-size:31px;font-family:Helvetica;}.cls-5{fill:#5dbca6;}</style></defs><g id="Layer_2" data-name="Layer 2"><g id="Layer_1-2" data-name="Layer 1"><text class="cls-1" transform="translate(0 222.34) scale(1.12 1)">Soldiers with<tspan x="0" y="58.8">BrainChips</tspan></text><g id="Group_135" data-name="Group 135"><g id="Group_134" data-name="Group 134"><path id="Path_4330" data-name="Path 4330" class="cls-2" d="M579.67,7.5a126,126,0,0,1,41-6.5"/></g></g><g id="Group_137" data-name="Group 137"><g id="Group_136" data-name="Group 136"><path id="Path_4331" data-name="Path 4331" class="cls-2" d="M620.24,134.25,513.34,55.68A127.15,127.15,0,0,1,579.67,7.49"/></g></g><g id="Group_143" data-name="Group 143"><g id="Group_142" data-name="Group 142"><path id="Path_4334" data-name="Path 4334" class="cls-2" d="M620.66,1A132.66,132.66,0,0,1,754.15,137.08c-1.8,71.74-60.74,129.17-132.5,129.23h-1a126,126,0,0,1-41-6.49l41-126.15"/></g></g><g class="cls-3"><text class="cls-4" transform="translate(649.83 133.65)">70%</text></g><path id="Path_4327" data-name="Path 4327" class="cls-2" d="M424.25,251.85H320.19"/><path class="cls-5" d="M426.76,34.78a183,183,0,0,0-36.92,112.81h0c0,84.8,52.34,156.33,133.58,182.54l59.73-182.54Z"/><text class="cls-4" transform="translate(453.18 191.41)">20%</text></g></g></svg>