<svg xmlns="http://www.w3.org/2000/svg" viewBox="0 0 755.19 330.13"><defs><style>.cls-1,.cls-2,.cls-6,.cls-7{isolation:isolate;}.cls-2{font-size:49px;font-family:Helvetica-Light, Helvetica;font-weight:300;}.cls-2,.cls-6{fill:#fff;}.cls-3,.cls-4,.cls-7{fill:none;stroke-miterlimit:10;}.cls-3,.cls-7{stroke:#fff;}.cls-3,.cls-4{stroke-width:2px;}.cls-4{stroke:#5ebca6;}.cls-5{fill:#5ebca6;}.cls-6,.cls-7{font-size:31px;font-family:Helvetica;}</style></defs><g id="Layer_2" data-name="Layer 2"><g id="Layer_1-2" data-name="Layer 1"><g id="Layer_2-2" data-name="Layer 2"><g id="Layer_1-2-2" data-name="Layer 1-2"><g class="cls-1"><text class="cls-2" transform="translate(0 222.34) scale(1.12 1)">Soldiers with</text><text class="cls-2" transform="translate(0 281.14) scale(1.12 1)">BrainChips</text></g><g id="Group_135" data-name="Group 135"><g id="Group_134" data-name="Group 134"><path id="Path_4330" data-name="Path 4330" class="cls-3" d="M579.67,7.5a126.36,126.36,0,0,1,41-6.5"/></g></g><g id="Group_137" data-name="Group 137"><g id="Group_136" data-name="Group 136"><path id="Path_4331" data-name="Path 4331" class="cls-3" d="M620.24,134.25,513.34,55.68A127.2,127.2,0,0,1,579.67,7.49"/></g></g><g id="Group_143" data-name="Group 143"><g id="Group_142" data-name="Group 142"><path id="Path_4334" data-name="Path 4334" class="cls-3" d="M620.66,1A132.66,132.66,0,0,1,754.19,132.79c0,1.43,0,2.86,0,4.29-1.8,71.74-60.74,129.17-132.5,129.23h-1a125.81,125.81,0,0,1-41-6.49l41-126.15"/></g></g><path id="Path_4327" data-name="Path 4327" class="cls-4" d="M424.25,251.85H320.19"/><path class="cls-5" d="M426.76,34.78a183,183,0,0,0-36.92,112.81h0c0,84.8,52.34,156.33,133.58,182.54l59.73-182.54Z"/><text class="cls-6" transform="translate(453.18 191.41)">20%</text><text class="cls-7" transform="translate(453.18 191.41)">20%</text></g></g><text class="cls-6" transform="translate(652.17 135.26)">80%</text></g></g></svg>