<svg xmlns="http://www.w3.org/2000/svg" viewBox="0 0 531.04 406.02"><defs><style>.cls-1{fill:#f6f6f6;}.cls-2{font-size:49px;fill:#fff;font-family:Helvetica;}.cls-3{letter-spacing:-0.02em;}.cls-4{letter-spacing:-0.04em;}</style></defs><g id="Layer_2" data-name="Layer 2"><g id="Layer_1-2" data-name="Layer 1"><path class="cls-1" d="M35.08,396.88l-2.9-5L72.59,369c-3.74-1.16-5.34-3.28-4.11-7.38l-40.68,23-2.93-5c2-1.16,3.89-2.29,5.82-3.37,11.66-6.56,23.3-13.13,35-19.6a4.3,4.3,0,0,0,2.51-4.38c-.09-15.66,0-31.31-.09-47a3.71,3.71,0,0,1,2.2-3.72q26.18-14.72,52.26-29.6a3.6,3.6,0,0,1,4.13.09c15.2,8.69,30.45,17.28,45.69,25.89.6.34,1.24.61,2.33,1.15-.94-13.51-1.86-26.6-2.79-39.91h12.32c-.92,13.1-1.85,26.27-2.81,39.9,1-.47,1.69-.75,2.33-1.11q21.33-12,42.68-24.08a3.82,3.82,0,0,0,2.24-4.19,418.77,418.77,0,0,1,0-51.34c.13-2.28-.66-3.13-2.4-3.95q-17.91-8.46-35.75-17.05c-.8-.38-1.56-.83-2.54-1.36l6.12-10.4c3.51,2.29,6.87,4.45,10.2,6.65,8.45,5.58,16.92,11.14,25.31,16.82a3.5,3.5,0,0,0,4.32.11c16.28-9.32,32.63-18.52,48.91-27.84a3.82,3.82,0,0,1,4.4,0c15,8.6,30.13,17.1,45.21,25.63.75.42,1.54.78,2.77,1.4-.95-13.57-1.87-26.67-2.79-40H344.8c-1,13.64-1.94,27.25-2.93,41.26l16.23-5.17c11.32-3.58,22.62-7.21,34-10.69A4.29,4.29,0,0,0,395.5,190c3.15-15,6.47-29.88,9.62-44.83a5.7,5.7,0,0,0-.76-3.66c-7.06-12.13-14.21-24.21-21.33-36.31-.5-.84-1-1.68-1.62-2.79l5.09-2.94c6.87,11.68,17.35,27.58,23.91,38.74l6.38-4.37L394,95.26l5-3c3.47,5.86,6.84,11.57,10.21,17.28,4.29,7.27,8.63,14.51,12.81,21.84,1.2,2.09,1.92,2.4,1.92,2.4l49.31.26,1.45-2.6c6.49-11.22,13.12-22.38,19.7-33.55.4-.67.86-1.31,1.39-2.11l5,2.79c-2.14,3.65-4.19,7.17-6.25,10.67-5.45,9.27-11,18.5-16.32,27.82a4.19,4.19,0,0,1-4.26,2.37c-17.44-.07-34.88,0-52.31-.09l-10.36,5.9-10,47.24c-.4,1.25.17,2.79.29,4.2l1.17,0c.08-1.41.16-2.82.25-4.49l3-.23v5.85l-2.67.3c4.14,5.6,8.09,11,12,16.29,6.79,9.16,13.55,18.34,20.41,27.44,1.62,2.15.55,3.36-2.07,6.45L402,291.83c-2.51,3.48-3.49,4.58-5.88,3.81-18-5.81-36-11.5-53.92-17.33a6.82,6.82,0,0,0-6.07.56q-22.65,13-45.46,25.74a4.3,4.3,0,0,0-2.6,4.31c.1,18.22,0,36.45.1,54.67a4.5,4.5,0,0,1-2.71,4.55q-26,14.53-51.77,29.34a3.55,3.55,0,0,1-4.1,0c-16.46-9.37-33-18.65-49.43-28a3.56,3.56,0,0,0-4.11,0c-16.53,9.44-33.12,18.76-49.65,28.18a3.41,3.41,0,0,1-3.9-.13c-13.56-7.75-27.21-15.35-40.7-23.2-2.62-1.53-4.49-1.39-7,.07C61.74,381.88,48.58,389.24,35.08,396.88Zm39-62.22c0,8.76,0,17.51,0,26.26a3.67,3.67,0,0,0,2.18,3.73q23.27,13,46.44,26.17a3.17,3.17,0,0,0,3.65.09q23.3-13.23,46.69-26.28a3.69,3.69,0,0,0,2.14-3.75q-.09-26.26,0-52.52a3.45,3.45,0,0,0-2.09-3.51q-23.39-13.07-46.68-26.29a3.21,3.21,0,0,0-3.65,0Q99.35,291.86,75.87,305a3.07,3.07,0,0,0-1.81,3.13C74.12,317,74.09,325.82,74.1,334.66Zm106.9-.07c0,8.85,0,17.7,0,26.54a3.08,3.08,0,0,0,1.7,3.19c15.83,8.84,31.61,17.79,47.45,26.61a3.77,3.77,0,0,0,3.1,0q23.75-13.26,47.36-26.76a3.63,3.63,0,0,0,1.58-2.64q.13-26.81,0-53.61a3.63,3.63,0,0,0-1.58-2.65Q257,291.77,233.2,278.51a3.78,3.78,0,0,0-3.09,0c-15.75,8.79-31.45,17.69-47.19,26.5a3.27,3.27,0,0,0-2,3.32C181,317.08,181,325.83,181,334.59ZM288.43,299a14.78,14.78,0,0,0,1.54-.63c14.69-8.31,29.38-16.59,44-25a3.86,3.86,0,0,0,1.52-2.9c.09-17.6,0-35.2.12-52.8a3.7,3.7,0,0,0-2.24-3.7q-23.26-13-46.44-26.19a3.16,3.16,0,0,0-3.64,0Q260,201,236.63,214.09a3.5,3.5,0,0,0-2.08,3.53q.1,26.4,0,52.8a3.3,3.3,0,0,0,2,3.32q21.6,12.12,43.14,24.35c.58.33,1.24.54,2.08.91-1-13.77-1.87-27.23-2.81-40.79h12.34C290.32,271.81,289.39,285.2,288.43,299Zm53.07-27c17.92,5.71,35.63,11.38,53.39,16.92.69.22,2.11-.59,2.65-1.31,10.42-13.89,20.73-27.86,31.14-41.75,1.09-1.47,1.08-2.42,0-3.88-7.38-9.82-14.65-19.73-22-29.6-3.47-4.69-7-9.36-10.44-14-17.77,5.66-35.23,11.24-52.72,16.73-1.79.55-2.08,1.47-2.06,3.07.07,8.13,0,16.27,0,24.4Z"/><path class="cls-1" d="M200.89,254.17c-2,.6-2.58-.17-2.49-1.93.1-2.1,0-4.2,0-6.48H189.2v8.17c-1.9.86-2.7.44-2.68-1.46,0-5.12-.13-11.32,0-16.44l0-.7h2.53c0,2.51,0,5.19,0,7.85h9.34c0-2,0-4,0-6,0-1.77.08-1.77,2.46-1.63Z"/><path class="cls-1" d="M349.64,152.45H359c0-2-.12-3.95.06-5.84.07-.71.87-1.35,1.33-2,.41.63,1.16,1.25,1.17,1.89.1,5.63.06,11.26.06,16.88-1.94.63-2.72.14-2.64-1.72.08-2.11,0-4.22,0-6.57h-9.21v8.24c-2.06.73-2.7.08-2.68-1.69.05-5,0-10.06.09-15.09,0-.65.74-1.28,1.13-1.92.46.66,1.22,1.3,1.3,2C349.76,148.43,349.64,150.28,349.64,152.45Z"/><path class="cls-1" d="M531,94.42c-1.84.63-2.53,0-2.45-1.82.09-2.1,0-4.22,0-6.54h-9.24v8.28c-1.83.59-2.69.31-2.67-1.51,0-5.12.06-10.25,0-15.38,0-1.9.93-2,2.6-1.58v7.55h9.32c0-2,.07-3.93,0-5.85-.09-1.7.59-2.28,2.45-1.74Z"/><path class="cls-1" d="M150.93,185.32c0,2.36-.06,4.48,0,6.59.07,1.67-.54,2.33-2.39,1.77V175.26c2.27-.53,2.3-.53,2.35,1.48s0,3.86,0,5.93h9.29v-7.43c1.78-.69,2.69-.52,2.67,1.48-.06,5.12,0,10.25-.1,15.37,0,.71-.91,1.4-1.4,2.11l-1-.43v-8.45Z"/><path class="cls-1" d="M481.85,205.27v-8.46h-9.33c0,2.27,0,4.46,0,6.64,0,2-.05,2-2.45,1.78V186.81c2.45-.46,2.45-.46,2.46,2.37,0,1.58,0,3.17,0,5h9.25v-7.42c1.85-.61,2.71-.32,2.7,1.48,0,5.12-.06,10.25,0,15.37C484.52,205.36,483.74,205.75,481.85,205.27Z"/><path class="cls-1" d="M513.34,84.93c0,7.36-5.62,11.8-11.94,9.42-4.32-1.63-6.51-6.72-5.2-12.11a8.78,8.78,0,0,1,9.63-6.77C510.37,75.91,513.33,79.64,513.34,84.93Zm-14.88.43c0,4.37,2.36,7.46,5.78,7.65,3.95.22,6.62-3,6.66-7.91,0-4.7-2.65-7.91-6.51-7.77C500.74,77.46,498.42,80.6,498.46,85.36Z"/><path class="cls-1" d="M390.25,85.18c-.72,2-1.14,4.27-2.22,6.11-1.69,2.86-4.63,3.84-7.92,3.57a7.74,7.74,0,0,1-6.73-4.64c-2.11-4.45-1.07-10.35,2.37-12.94a8.62,8.62,0,0,1,9.19-1C388.15,77.67,389.81,80.75,390.25,85.18Zm-9-8.34c-1.57.79-3.11,1.2-4.15,2.14-3.08,2.77-3.05,9.39-.13,12.35a5.76,5.76,0,0,0,8.2,0c2.86-2.91,3-9.31,0-12.16A19.79,19.79,0,0,0,381.28,76.84Z"/><path class="cls-1" d="M458.24,186.33c5.18.12,8.54,4.13,8.36,10-.18,5.67-4,9.65-9.07,9.48s-8.64-4.17-8.55-9.93S452.86,186.2,458.24,186.33Zm5.85,9.63c0-3.79-1.87-6.85-4.66-7.6-4.26-1.13-7.76,2.09-7.93,7.29-.15,4.58,2.51,8.15,6.14,8.24S464.08,200.67,464.09,196Z"/><path class="cls-1" d="M183.64,184.18c0,7.24-5.59,11.69-11.92,9.44-4.49-1.59-6.73-7.06-5.13-12.49A8.73,8.73,0,0,1,177,174.82C181.06,175.67,183.62,179.26,183.64,184.18Zm-2.14.33c-.57-1.8-.83-3.7-1.73-5.24a5.67,5.67,0,0,0-9.65-.14,9.41,9.41,0,0,0-.14,10.3,5.62,5.62,0,0,0,9.88-.1A27.8,27.8,0,0,0,181.5,184.51Z"/><path class="cls-1" d="M7.54,396.55c0-6.6,4.84-11.11,10.62-9.84,5.09,1.12,7.57,5.55,6.64,11.84A8.55,8.55,0,0,1,15.32,406C10.67,405.65,7.56,401.88,7.54,396.55Zm2-.64.41.3a23.54,23.54,0,0,0,.73,3.59c.91,2.48,2.5,4.27,5.47,4.32,2.74,0,4.77-1.41,5.84-4.24a9.94,9.94,0,0,0-.45-8.21c-1.76-3.55-6.39-4.54-9-1.68C11.06,391.58,10.47,393.91,9.49,395.91Z"/><path class="cls-1" d="M344.83,326.22c0,5.64,0,11.27-.05,16.91,0,.58-.7,1.15-1.07,1.72-.46-.59-1.28-1.14-1.32-1.75-.16-2.27-.07-4.56-.07-7h-9.43c0,2.3.08,4.57-.06,6.82,0,.66-.72,1.28-1.11,1.92-.42-.61-1.2-1.22-1.21-1.84-.1-5.11-.11-10.23,0-15.35,0-.71.85-1.41,1.31-2.12l1,.4v7.66h9.46c0-2.09-.13-4.11.07-6.1.07-.7,1-1.31,1.47-2Z"/><path class="cls-1" d="M343.2,147c-3.56-.86-7.15-1.14-9.62,2.08a8.17,8.17,0,0,0-.51,9.49c2.35,4,6.32,3.72,10.35,2.69l.5.6c-.42.56-.73,1.43-1.29,1.63-4.07,1.42-9,.14-11.35-2.79-2.54-3.2-2.7-8.64-.35-12.21,2.18-3.29,7-5,11.24-3.88.71.2,1.23,1.12,1.83,1.7Z"/><path class="cls-1" d="M183.39,252.58c-.43.57-.75,1.42-1.32,1.64-4,1.53-9.14.11-11.51-3s-2.44-8.84,0-12.23A10.69,10.69,0,0,1,182,235.47c.6.22.92,1.17,1.11,2-4.1-.58-7.85-.9-10.29,2.76a8.08,8.08,0,0,0-.13,9.27c2.45,3.82,6.3,3.47,10.19,2.55Z"/><path class="cls-1" d="M365.22,156c1.26-.35,2.59-1.14,3.75-.95,1.32.22,3.22,1.08,3.55,2.08.41,1.26-.51,2.93-.79,4.13.54,1.58,1.86,3.45,1.4,4.7s-2.5,2.58-4.1,3.12a3.48,3.48,0,0,1-4.43-1.72c2.47-.48,5.74,1.81,6.64-1.78.82-3.26-2.55-3-4.87-3.79,1.72-1.57,5.23-.81,4.35-3.82s-3.5-.7-5.28-1.11Z"/><path class="cls-1" d="M211.31,252.26c.47,1.44,1.53,3.09,1.36,4.62-.23,2.2-2.36,3-4.45,3.11a4.14,4.14,0,0,1-4.29-1.88c2.68-.21,5.73,1.65,6.74-1.55,1.11-3.46-2.67-3-4.81-4.11,1.79-1.37,5.23-.72,4.32-3.71-.84-2.73-3.32-.9-5.09-1l-.39-.71a10,10,0,0,1,2.49-1.21c1.82-.31,4-.32,4.61,1.68C212.24,249,211.51,250.76,211.31,252.26Z"/><path class="cls-1" d="M441.87,189.15h3v12l-3-.47Z"/><path class="cls-1" d="M344.54,317.61c.07.91.13,1.75.21,2.78H332.68v-2.78Z"/><path class="cls-1" d="M435.42,200.27V189.72l2.91-.31v11.14Z"/><path class="cls-1" d="M333.29,311.21H344l.21,2.86H333C333.07,313,333.18,312.12,333.29,311.21Z"/><path class="cls-1" d="M428.78,190.13h3.12v9.71c-2.44.61-3.32-.24-3.15-2.6S428.78,192.72,428.78,190.13Z"/><path class="cls-1" d="M333.79,304.88h9.69c.07,1,.14,1.87.21,2.93H333.52C333.6,306.87,333.69,306,333.79,304.88Z"/><path class="cls-1" d="M425.5,190.45v8.9h-3v-8.59Z"/><path class="cls-1" d="M334.09,301.46c-.55-2.56.52-3.24,2.72-3.07,1.94.15,3.91,0,6.13,0,.08,1.1.14,2,.22,3Z"/><path class="cls-1" d="M342.46,292.28c.07,1.12.12,2,.18,3h-8c-.55-2.06-.12-3.19,2.34-3C338.71,292.37,340.41,292.28,342.46,292.28Z"/><path class="cls-1" d="M416,191.16h3v7.71h-3Z"/><path class="cls-1" d="M342.12,289.05h-6.88c-.66-2.25-.1-3.39,2.47-3.15,1.32.12,2.66,0,4.21,0C342,287.06,342.05,288,342.12,289.05Z"/><path class="cls-1" d="M409.5,191.71l2.9-.24v6.92h-2.9Z"/><path class="cls-1" d="M341.4,279.85l.41,2.77h-6.19v-2.77Z"/><path class="cls-1" d="M162,354.25l2.91,5-38.85,22c-1-1.68-1.91-3.23-3-5Z"/><path class="cls-1" d="M226,326v7.56h9.25c0-1.87.08-3.77,0-5.66-.1-1.73.41-2.57,2.64-1.88,0,5.76,0,11.65,0,17.53,0,.43-.81.84-1.24,1.26-.44-.5-1.24-1-1.27-1.52-.14-2.36-.06-4.73-.06-7.23H226c0,2.37.09,4.65-.06,6.91,0,.64-.79,1.23-1.21,1.84-.45-.59-1.28-1.17-1.29-1.77-.1-5.12,0-10.24-.08-15.36C223.3,326,224,325.5,226,326Z"/><path class="cls-1" d="M237.91,320.39H225.68v-2.87H237.4Z"/><path class="cls-1" d="M236.9,311.22l.49,2.81H226.16v-2.81Z"/><path class="cls-1" d="M236.86,307.81h-10.2V305h9.71C236.52,305.82,236.67,306.72,236.86,307.81Z"/><path class="cls-1" d="M227.17,298.42a63.8,63.8,0,0,1,7.52.11c.74.1,1.31,1.48,2,2.28l-.62.64h-8.86Z"/><path class="cls-1" d="M227.55,295.25c.07-1,.13-1.83.21-3a46.62,46.62,0,0,1,6.51.11c.73.1,1.27,1.43,1.9,2.19l-.59.66Z"/><path class="cls-1" d="M235.2,289.09h-7v-3H235C235.1,287.05,235.14,288,235.2,289.09Z"/><path class="cls-1" d="M234.65,282.71h-5.92v-2.84h5.8C234.57,280.76,234.61,281.65,234.65,282.71Z"/><path class="cls-1" d="M288.85,245.32h-9.27c0,2.23-.06,4.48,0,6.72.07,1.8-.55,2.47-2.5,1.77V235.26c1.64-.45,2.6-.26,2.5,1.71s0,3.84,0,5.9h9.18v-7.51c2-.62,2.79-.28,2.75,1.64q-.12,7.55,0,15.1c0,1.87-.69,2.33-2.66,1.72Z"/><text/><text class="cls-2" transform="translate(0 100.87) scale(1.12 1)">CO<tspan class="cls-3" x="73.5" y="0">R</tspan><tspan x="108.02" y="0">TISO</tspan><tspan class="cls-4" x="222.37" y="0">L</tspan></text></g></g></svg>