<svg xmlns="http://www.w3.org/2000/svg" xmlns:xlink="http://www.w3.org/1999/xlink" viewBox="0 0 632.88 284.43"><defs><style>.cls-1,.cls-10,.cls-13,.cls-4,.cls-9{fill:none;}.cls-11,.cls-2{fill:#e52421;}.cls-3{clip-path:url(#clip-path);}.cls-4{stroke:#000;stroke-width:2px;}.cls-10,.cls-13,.cls-4,.cls-9{stroke-linecap:round;}.cls-5{clip-path:url(#clip-path-2);}.cls-10,.cls-11,.cls-12,.cls-6,.cls-7{isolation:isolate;}.cls-7{font-size:24.97px;}.cls-12,.cls-7{fill:#fff;}.cls-11,.cls-12,.cls-7{font-family:Helvetica;}.cls-8{letter-spacing:-0.02em;}.cls-10,.cls-9{stroke:#e52421;}.cls-10,.cls-13,.cls-9{stroke-width:5px;}.cls-10{opacity:0.3;}.cls-11{font-size:51.73px;}.cls-12{font-size:32.7px;}.cls-13{stroke:#fad7d8;}</style><clipPath id="clip-path" transform="translate(0 0.41)"><rect class="cls-1" x="11.12" y="141.81" width="592.52" height="1.19"/></clipPath><clipPath id="clip-path-2" transform="translate(0 0.41)"><rect class="cls-1" x="511.48" width="1.19" height="287.19"/></clipPath></defs><g id="Layer_2" data-name="Layer 2"><g id="Layer_1-2" data-name="Layer 1"><path id="ic_favorite_24px" data-name="ic favorite 24px" class="cls-2" d="M450.38,108.43l-5.84-5.32c-20.73-18.8-34.42-31.2-34.42-46.42a21.92,21.92,0,0,1,21.71-22.14h.43A24.11,24.11,0,0,1,450.38,43a24.11,24.11,0,0,1,18.12-8.41,21.92,21.92,0,0,1,22.14,21.71v.43c0,15.22-13.69,27.62-34.42,46.46Z" transform="translate(0 0.41)"/><g class="cls-3"><g id="Repeat_Grid_3" data-name="Repeat Grid 3"><line id="Line_143" data-name="Line 143" class="cls-4" x1="40.85" y1="142.81" x2="11.72" y2="142.81"/><line id="Line_144" data-name="Line 144" class="cls-4" x1="40.85" y1="142.81" x2="11.72" y2="142.81"/><line id="Line_143-2" data-name="Line 143-2" class="cls-4" x1="83.07" y1="142.81" x2="53.93" y2="142.81"/><line id="Line_144-2" data-name="Line 144-2" class="cls-4" x1="83.07" y1="142.81" x2="53.93" y2="142.81"/><line id="Line_143-3" data-name="Line 143-3" class="cls-4" x1="125.28" y1="142.81" x2="96.15" y2="142.81"/><line id="Line_144-3" data-name="Line 144-3" class="cls-4" x1="125.28" y1="142.81" x2="96.15" y2="142.81"/><line id="Line_143-4" data-name="Line 143-4" class="cls-4" x1="167.5" y1="142.81" x2="138.37" y2="142.81"/><line id="Line_144-4" data-name="Line 144-4" class="cls-4" x1="167.5" y1="142.81" x2="138.37" y2="142.81"/><line id="Line_143-5" data-name="Line 143-5" class="cls-4" x1="209.72" y1="142.81" x2="180.58" y2="142.81"/><line id="Line_144-5" data-name="Line 144-5" class="cls-4" x1="209.72" y1="142.81" x2="180.58" y2="142.81"/><line id="Line_143-6" data-name="Line 143-6" class="cls-4" x1="251.93" y1="142.81" x2="222.8" y2="142.81"/><line id="Line_144-6" data-name="Line 144-6" class="cls-4" x1="251.93" y1="142.81" x2="222.8" y2="142.81"/><line id="Line_143-7" data-name="Line 143-7" class="cls-4" x1="294.15" y1="142.81" x2="265.02" y2="142.81"/><line id="Line_144-7" data-name="Line 144-7" class="cls-4" x1="294.15" y1="142.81" x2="265.02" y2="142.81"/><line id="Line_143-8" data-name="Line 143-8" class="cls-4" x1="336.37" y1="142.81" x2="307.23" y2="142.81"/><line id="Line_144-8" data-name="Line 144-8" class="cls-4" x1="336.37" y1="142.81" x2="307.23" y2="142.81"/><line id="Line_143-9" data-name="Line 143-9" class="cls-4" x1="378.58" y1="142.81" x2="349.45" y2="142.81"/><line id="Line_144-9" data-name="Line 144-9" class="cls-4" x1="378.58" y1="142.81" x2="349.45" y2="142.81"/><line id="Line_143-10" data-name="Line 143-10" class="cls-4" x1="420.8" y1="142.81" x2="391.67" y2="142.81"/><line id="Line_144-10" data-name="Line 144-10" class="cls-4" x1="420.8" y1="142.81" x2="391.67" y2="142.81"/><line id="Line_143-11" data-name="Line 143-11" class="cls-4" x1="463.02" y1="142.81" x2="433.88" y2="142.81"/><line id="Line_144-11" data-name="Line 144-11" class="cls-4" x1="463.02" y1="142.81" x2="433.88" y2="142.81"/><line id="Line_143-12" data-name="Line 143-12" class="cls-4" x1="505.23" y1="142.81" x2="476.1" y2="142.81"/><line id="Line_144-12" data-name="Line 144-12" class="cls-4" x1="505.23" y1="142.81" x2="476.1" y2="142.81"/><line id="Line_143-13" data-name="Line 143-13" class="cls-4" x1="547.45" y1="142.81" x2="518.31" y2="142.81"/><line id="Line_144-13" data-name="Line 144-13" class="cls-4" x1="547.45" y1="142.81" x2="518.31" y2="142.81"/><line id="Line_143-14" data-name="Line 143-14" class="cls-4" x1="589.67" y1="142.81" x2="560.53" y2="142.81"/><line id="Line_144-14" data-name="Line 144-14" class="cls-4" x1="589.67" y1="142.81" x2="560.53" y2="142.81"/><line id="Line_143-15" data-name="Line 143-15" class="cls-4" x1="631.88" y1="142.81" x2="602.75" y2="142.81"/><line id="Line_144-15" data-name="Line 144-15" class="cls-4" x1="631.88" y1="142.81" x2="602.75" y2="142.81"/></g></g><g class="cls-5"><g id="Repeat_Grid_4" data-name="Repeat Grid 4"><line id="Line_145" data-name="Line 145" class="cls-4" x1="512.07" y1="30.14" x2="512.07" y2="1"/><line id="Line_145-2" data-name="Line 145-2" class="cls-4" x1="512.07" y1="72.35" x2="512.07" y2="43.22"/><line id="Line_145-3" data-name="Line 145-3" class="cls-4" x1="512.07" y1="114.57" x2="512.07" y2="85.43"/><line id="Line_145-4" data-name="Line 145-4" class="cls-4" x1="512.07" y1="156.79" x2="512.07" y2="127.65"/><line id="Line_145-5" data-name="Line 145-5" class="cls-4" x1="512.07" y1="199" x2="512.07" y2="169.87"/><line id="Line_145-6" data-name="Line 145-6" class="cls-4" x1="512.07" y1="241.22" x2="512.07" y2="212.08"/><line id="Line_145-7" data-name="Line 145-7" class="cls-4" x1="512.07" y1="283.43" x2="512.07" y2="254.3"/></g></g><g id="Auto" class="cls-6"><text class="cls-7" transform="translate(521.61 175.81)">AU<tspan class="cls-8" x="34.69" y="0">T</tspan><tspan x="49.51" y="0">O</tspan></text></g><line id="Line_146" data-name="Line 146" class="cls-9" x1="2.8" y1="67.3" x2="55.12" y2="67.3"/><line id="Line_147" data-name="Line 147" class="cls-9" x1="2.8" y1="67.3" x2="55.12" y2="67.3"/><line id="Line_148" data-name="Line 148" class="cls-9" x1="68.8" y1="87.51" x2="55.12" y2="67.3"/><line id="Line_149" data-name="Line 149" class="cls-9" x1="68.8" y1="87.51" x2="82.47" y2="42.32"/><line id="Line_150" data-name="Line 150" class="cls-9" x1="94.96" y1="67.3" x2="82.47" y2="42.32"/><line id="Line_151" data-name="Line 151" class="cls-9" x1="94.96" y1="67.3" x2="128.26" y2="67.3"/><line id="Line_152" data-name="Line 152" class="cls-9" x1="141.93" y1="87.51" x2="128.26" y2="67.3"/><line id="Line_153" data-name="Line 153" class="cls-9" x1="141.93" y1="87.51" x2="155.61" y2="42.32"/><line id="Line_154" data-name="Line 154" class="cls-9" x1="168.1" y1="67.3" x2="155.61" y2="42.32"/><line id="Line_155" data-name="Line 155" class="cls-9" x1="168.1" y1="67.3" x2="201.39" y2="67.3"/><line id="Line_156" data-name="Line 156" class="cls-9" x1="215.07" y1="87.51" x2="201.39" y2="67.3"/><line id="Line_157" data-name="Line 157" class="cls-9" x1="215.07" y1="87.51" x2="228.75" y2="42.32"/><line id="Line_158" data-name="Line 158" class="cls-9" x1="241.23" y1="67.3" x2="228.75" y2="42.32"/><line id="Line_159" data-name="Line 159" class="cls-9" x1="240.93" y1="67.3" x2="274.23" y2="67.3"/><line id="Line_160" data-name="Line 160" class="cls-9" x1="287.91" y1="87.51" x2="274.23" y2="67.3"/><line id="Line_161" data-name="Line 161" class="cls-9" x1="287.91" y1="87.51" x2="301.58" y2="42.32"/><line id="Line_162" data-name="Line 162" class="cls-9" x1="314.07" y1="67.3" x2="301.58" y2="42.32"/><line id="Line_163" data-name="Line 163" class="cls-9" x1="313.77" y1="67.3" x2="347.07" y2="67.3"/><line id="Line_164" data-name="Line 164" class="cls-9" x1="360.75" y1="87.51" x2="347.07" y2="67.3"/><line id="Line_165" data-name="Line 165" class="cls-9" x1="360.75" y1="87.51" x2="374.42" y2="42.32"/><line id="Line_166" data-name="Line 166" class="cls-9" x1="386.91" y1="67.3" x2="374.42" y2="42.32"/><line id="Line_167" data-name="Line 167" class="cls-9" x1="386.61" y1="67.3" x2="419.91" y2="67.3"/><line id="Line_168" data-name="Line 168" class="cls-9" x1="521.88" y1="102.97" x2="521.88" y2="130.92"/><line id="Line_169" data-name="Line 169" class="cls-9" x1="527.83" y1="102.97" x2="527.83" y2="130.92"/><line id="Line_170" data-name="Line 170" class="cls-9" x1="533.77" y1="103.87" x2="533.77" y2="131.81"/><line id="Line_171" data-name="Line 171" class="cls-9" x1="539.72" y1="103.87" x2="539.72" y2="131.81"/><line id="Line_172" data-name="Line 172" class="cls-9" x1="545.67" y1="103.87" x2="545.67" y2="131.81"/><line id="Line_173" data-name="Line 173" class="cls-9" x1="551.61" y1="103.87" x2="551.61" y2="131.81"/><line id="Line_174" data-name="Line 174" class="cls-10" x1="557.56" y1="103.87" x2="557.56" y2="131.81"/><line id="Line_175" data-name="Line 175" class="cls-10" x1="563.5" y1="103.87" x2="563.5" y2="131.81"/><line id="Line_176" data-name="Line 176" class="cls-10" x1="569.45" y1="103.87" x2="569.45" y2="131.81"/><line id="Line_177" data-name="Line 177" class="cls-10" x1="581.64" y1="103.87" x2="581.64" y2="131.81"/><line id="Line_178" data-name="Line 178" class="cls-10" x1="575.4" y1="103.87" x2="575.4" y2="131.81"/><line id="Line_179" data-name="Line 179" class="cls-10" x1="588.18" y1="103.87" x2="588.18" y2="131.81"/><g id="_86" data-name=" 86" class="cls-6"><text class="cls-11" transform="translate(529.09 50.95)">86</text></g><g id="BPM" class="cls-6"><text class="cls-7" transform="translate(529.01 86.03)">BPM</text></g><g id="_125_75" data-name=" 125 75" class="cls-6"><text class="cls-12" transform="translate(524.25 221.6)">125/</text><text class="cls-12" transform="translate(537.88 260.84)">75</text></g><line id="Line_180" data-name="Line 180" class="cls-13" x1="2.5" y1="215.95" x2="30.17" y2="215.95"/><line id="Line_181" data-name="Line 181" class="cls-13" x1="37.41" y1="236.16" x2="30.17" y2="215.95"/><line id="Line_182" data-name="Line 182" class="cls-13" x1="37.41" y1="236.16" x2="44.64" y2="190.97"/><line id="Line_183" data-name="Line 183" class="cls-13" x1="51.45" y1="215.95" x2="44.85" y2="190.97"/><line id="Line_184" data-name="Line 184" class="cls-13" x1="51.5" y1="215.95" x2="69.11" y2="215.95"/><line id="Line_185" data-name="Line 185" class="cls-13" x1="76.42" y1="236.16" x2="69.18" y2="215.95"/><line id="Line_186" data-name="Line 186" class="cls-13" x1="76.45" y1="236.16" x2="83.68" y2="190.97"/><line id="Line_187" data-name="Line 187" class="cls-13" x1="90.32" y1="215.95" x2="83.72" y2="190.97"/><line id="Line_188" data-name="Line 188" class="cls-13" x1="90.38" y1="215.95" x2="107.99" y2="215.95"/><line id="Line_189" data-name="Line 189" class="cls-13" x1="115.29" y1="236.16" x2="108.05" y2="215.95"/><line id="Line_190" data-name="Line 190" class="cls-13" x1="115.32" y1="236.16" x2="122.56" y2="190.97"/><line id="Line_191" data-name="Line 191" class="cls-13" x1="129.19" y1="215.95" x2="122.59" y2="190.97"/><line id="Line_192" data-name="Line 192" class="cls-13" x1="129.1" y1="215.95" x2="146.71" y2="215.95"/><line id="Line_193" data-name="Line 193" class="cls-13" x1="154" y1="236.16" x2="146.77" y2="215.95"/><line id="Line_194" data-name="Line 194" class="cls-13" x1="154.04" y1="236.16" x2="161.27" y2="190.97"/><line id="Line_195" data-name="Line 195" class="cls-13" x1="167.91" y1="215.95" x2="161.3" y2="190.97"/><line id="Line_196" data-name="Line 196" class="cls-13" x1="167.83" y1="215.95" x2="185.44" y2="215.95"/><line id="Line_197" data-name="Line 197" class="cls-13" x1="192.87" y1="236.16" x2="185.64" y2="215.95"/><line id="Line_198" data-name="Line 198" class="cls-13" x1="192.87" y1="236.16" x2="200.1" y2="190.97"/><line id="Line_199" data-name="Line 199" class="cls-13" x1="206.71" y1="215.95" x2="200.1" y2="190.97"/><line id="Line_200" data-name="Line 200" class="cls-13" x1="208.23" y1="215.95" x2="235.9" y2="215.95"/><line id="Line_201" data-name="Line 201" class="cls-13" x1="243.14" y1="236.16" x2="235.9" y2="215.95"/><line id="Line_202" data-name="Line 202" class="cls-13" x1="243.14" y1="236.16" x2="250.37" y2="190.97"/><line id="Line_203" data-name="Line 203" class="cls-13" x1="257.18" y1="215.95" x2="250.58" y2="190.97"/><line id="Line_204" data-name="Line 204" class="cls-13" x1="257.23" y1="215.95" x2="274.84" y2="215.95"/><line id="Line_205" data-name="Line 205" class="cls-13" x1="282.15" y1="236.16" x2="274.91" y2="215.95"/><line id="Line_206" data-name="Line 206" class="cls-13" x1="282.18" y1="236.16" x2="289.42" y2="190.97"/><line id="Line_207" data-name="Line 207" class="cls-13" x1="296.05" y1="215.95" x2="289.45" y2="190.97"/><line id="Line_208" data-name="Line 208" class="cls-13" x1="296.11" y1="215.95" x2="313.72" y2="215.95"/><line id="Line_209" data-name="Line 209" class="cls-13" x1="321.02" y1="236.16" x2="313.79" y2="215.95"/><line id="Line_210" data-name="Line 210" class="cls-13" x1="321.05" y1="236.16" x2="328.29" y2="190.97"/><line id="Line_211" data-name="Line 211" class="cls-13" x1="334.93" y1="215.95" x2="328.32" y2="190.97"/><line id="Line_212" data-name="Line 212" class="cls-13" x1="334.83" y1="215.95" x2="352.44" y2="215.95"/><line id="Line_213" data-name="Line 213" class="cls-13" x1="359.73" y1="236.16" x2="352.5" y2="215.95"/><line id="Line_214" data-name="Line 214" class="cls-13" x1="359.77" y1="236.16" x2="367" y2="190.97"/><line id="Line_215" data-name="Line 215" class="cls-13" x1="373.64" y1="215.95" x2="367.04" y2="190.97"/><line id="Line_216" data-name="Line 216" class="cls-13" x1="373.56" y1="215.95" x2="391.17" y2="215.95"/><line id="Line_217" data-name="Line 217" class="cls-13" x1="398.6" y1="236.16" x2="391.37" y2="215.95"/><line id="Line_218" data-name="Line 218" class="cls-13" x1="398.6" y1="236.16" x2="405.84" y2="190.97"/><line id="Line_219" data-name="Line 219" class="cls-13" x1="412.44" y1="215.95" x2="405.84" y2="190.97"/><line id="Line_220" data-name="Line 220" class="cls-13" x1="412.28" y1="215.95" x2="429.89" y2="215.95"/><line id="Line_221" data-name="Line 221" class="cls-13" x1="438.65" y1="236.16" x2="431.42" y2="215.95"/><line id="Line_222" data-name="Line 222" class="cls-13" x1="438.65" y1="236.16" x2="445.88" y2="190.97"/><line id="Line_223" data-name="Line 223" class="cls-13" x1="452.48" y1="215.95" x2="445.88" y2="190.97"/><line id="Line_224" data-name="Line 224" class="cls-13" x1="452.33" y1="215.95" x2="469.94" y2="215.95"/><line id="Line_225" data-name="Line 225" class="cls-13" x1="478.69" y1="236.16" x2="471.46" y2="215.95"/><line id="Line_226" data-name="Line 226" class="cls-13" x1="478.69" y1="236.16" x2="485.93" y2="190.97"/><line id="Line_227" data-name="Line 227" class="cls-13" x1="492.53" y1="215.95" x2="485.93" y2="190.97"/><line id="Line_228" data-name="Line 228" class="cls-13" x1="492.37" y1="215.95" x2="509.98" y2="215.95"/></g></g></svg>