<svg xmlns="http://www.w3.org/2000/svg" viewBox="0 0 1157.81 563.32"><defs><style>.cls-1,.cls-10,.cls-2{fill:none;stroke:#fff;stroke-miterlimit:10;}.cls-1{stroke-width:2px;}.cls-2{stroke-width:0.5px;}.cls-3,.cls-4{fill:#5dbca6;}.cls-3{opacity:0.28;}.cls-5{font-size:12px;fill:#1d1d1b;font-family:MyriadPro-Regular, Myriad Pro;letter-spacing:0.01em;}.cls-6{letter-spacing:-0.01em;}.cls-7{letter-spacing:0em;}.cls-8{letter-spacing:0em;}.cls-9{font-size:49px;fill:#fff;font-family:Helvetica-Light, Helvetica;font-weight:300;}.cls-10{stroke-width:4px;}</style></defs><g id="Layer_2" data-name="Layer 2"><g id="Layer_1-2" data-name="Layer 1"><path id="Path_2201-2" data-name="Path 2201-2" class="cls-1" d="M190.2,122.73a19,19,0,0,0,.83-4.42,18,18,0,0,0-.63-4.25,117.06,117.06,0,0,1,2.41-60.41l1.45-1.2c-7.28-11.6-5.85-29.86,3.44-40S224.53.49,234,6.82c3.82-5.55,13.49-6.66,20.13-5.28,15.49,3.22,29.82,13.9,38.92,26.74,13-2.42,33.5,21.33,30.63,39.73,13,9.4,19.25,25.21,24.2,40.35,1.56,4.77,3.06,9.72,2.55,14.71s-3.56,10.05-8.41,11.44c7.6,7.46,7.85,19.36,7.59,30-.15,6.62-.36,13.49-3.3,19.44s-9.42,10.75-16,9.57c11.5,17,9.53,28.11-2,35.9,2.82,7.11.34,17.38-4.14,23.6s-10.65,8.61-17.75,11.59c-1.16,26.33-12.74,36.39-30.7,41.08-1.8.47-3.78.92-4.9,2.39a9.47,9.47,0,0,0-1.3,3.94,17.92,17.92,0,0,1-29.1,9.74c2,3.91-.66,8.58-3.64,11.83-5.07,5.53-11.52,10-18.85,11.77s-14.28,1.15-20-3.69c-9.21-7.78-10.86-23.16-5.42-33.88,1-1.88,2.08-3.75,2.35-5.84a16.63,16.63,0,0,0-.92-6.3c-4.06-15.23-3.87-29.74,1.15-44.69-8.34-17.23-8.34-39.39.8-56.22-7.83-7.3-7.72-21.71-.72-29.79A59.64,59.64,0,0,1,190.2,122.73Z"/><path id="Path_2201-2-2" data-name="Path 2201-2" class="cls-1" d="M161.55,123.54a19,19,0,0,1-.83-4.42,18,18,0,0,1,.63-4.25,116.85,116.85,0,0,0-2.41-60.41l-1.45-1.2c7.29-11.6,5.85-29.86-3.44-40s-26.83-12-36.27-5.67C114,2.08,104.29,1,97.65,2.35,82.16,5.57,67.83,16.25,58.73,29.09c-13-2.42-33.5,21.33-30.63,39.73C15.14,78.22,8.85,94,3.9,109.17c-1.56,4.77-3.06,9.72-2.55,14.71s3.56,10.05,8.41,11.44c-7.6,7.46-7.84,19.35-7.59,30,.15,6.62.37,13.49,3.3,19.44s9.42,10.74,16,9.57c-11.5,17-9.53,28.11,2,35.9-2.82,7.11-.34,17.38,4.14,23.6s10.65,8.61,17.75,11.59c1.16,26.33,12.74,36.39,30.7,41.08,1.8.47,3.78.92,4.9,2.39a9.63,9.63,0,0,1,1.31,3.93,17.91,17.91,0,0,0,29.09,9.75c-2,3.91.66,8.58,3.64,11.83,5.07,5.53,11.52,10,18.85,11.77s14.28,1.15,20-3.69c9.21-7.78,10.86-23.16,5.42-33.88-.95-1.88-2.08-3.75-2.35-5.84a16.63,16.63,0,0,1,.92-6.3c4.06-15.23,3.87-29.74-1.14-44.69,8.33-17.23,8.33-39.4-.81-56.22,7.83-7.3,7.72-21.71.72-29.79A59.64,59.64,0,0,0,161.55,123.54Z"/><path id="Path_3103-2" data-name="Path 3103-2" class="cls-2" d="M286.49,299.25a54.69,54.69,0,0,0-1.68-10L288.5,288l1.6,8,2.35-2a11.05,11.05,0,0,0-.74-6l2.41-3.19c.38,2.4.76,4.81,1.13,7.21l-12.46-8.8a92.26,92.26,0,0,0-6-12.41l.09-.85,3.66,7.19.78-.87c-1.86-2.4-3.81-4.86-6.48-6.34s-6.29-1.7-8.61.27a2.77,2.77,0,0,1,2.36-2,6.27,6.27,0,0,1,3.22.54,16.57,16.57,0,0,1,9.78,11.12l-14.09,2.81a7.54,7.54,0,0,0-8.35-.72l-1.52,5a6.78,6.78,0,0,1-6,1.21l-2.63-3a85.35,85.35,0,0,0-3.82-13.94l-12.64,2.29a27.9,27.9,0,0,1,1.44,6.23l-2.13-1.25a26.32,26.32,0,0,0,1,5.28l5.24-1.49a29.13,29.13,0,0,0-7.95-27.84l1.53-2.33a6,6,0,0,1,5.34.11,12.61,12.61,0,0,1,4.13,3.62,29.94,29.94,0,0,1,6.42,16.73l-1.36.94a25.3,25.3,0,0,0-9.55-20.95l-.67,2.3a21.42,21.42,0,0,1,10.87,21.37l2.94,2.53a75.05,75.05,0,0,0-5.29-15.18l1-.58a4,4,0,0,1,1.77-1.92l-.7.49c-.1-.27-.72-.85-.12-.5,1.41,3.81,3.23,7.66,3.75,11.7l0,2.41A36,36,0,0,0,245,262l3.67,0a13.78,13.78,0,0,1,2.21,5.32l1.35-1.64q-1-2.78-1.94-5.55l.64.78,2.36-.78,1.26,4.78,4.28-.82a6.21,6.21,0,0,0,3.1-2.86l.61-.34A18.89,18.89,0,0,0,268,255l7.77,4.26c.51,2.11,1,4.22,1.52,6.33l-.91-1.2a7,7,0,0,1,2.29,4.44l-1.87-.44a13,13,0,0,1,2,3.64l-.74,1.16a27,27,0,0,1,3.14,8.83l.83-.8A19.26,19.26,0,0,0,279.2,274l-.24.47a10.26,10.26,0,0,0-10.55-6l.32,1.14a2.47,2.47,0,0,0,0-2.84l1.26-1.21,1.23,4.4,2.33-1.18a9.68,9.68,0,0,0-2-4.81l1.23-2.82a19.57,19.57,0,0,1,3.08,7.65l.08.6c2.44-6.4,5.21-13.24,11-17,3.93-2.53,8.82-3.3,12.69-5.92a2.33,2.33,0,0,1-1.73,1.43l0-3.92a4.33,4.33,0,0,1-3-1l1-4.32,1.76,2.24a5.35,5.35,0,0,0,2.83-1.54l4.72-.3,1.25-1.55-1.58,9.66a5.11,5.11,0,0,0,3.72-3.17l1,1.27a13.91,13.91,0,0,0,4.77-9l5.48-5.27a16.37,16.37,0,0,1-8.06,19.56l.84.23q1.13,6,2.26,12l2.57-1.23a41.57,41.57,0,0,0-1.78-11.18c-.1-.32-.16-.76.14-.92s.46.56.16.41l-6.29,2.61a70.44,70.44,0,0,1,2.66,11.93l-20.87-15A14.5,14.5,0,0,1,295,248c-3.94,3.87-8.88,6.57-13.17,10s-8.11,8.21-8.38,13.7l6.06-4.9a10,10,0,0,0-1.85-4.08l2.31.07-.42-1.6-1.52-.82c-.27-1.33-.55-2.67-.83-4l1.31-2.47a6.83,6.83,0,0,1,1.05,4.08l1.65-.4.41,1.2,1.79-1.29a1,1,0,0,1-.13-.95c.07-.33.12-.74-.15-1s-.75.23-.47.41l-1.52-2-.79-2,2.12-2c.54,1.47,1.09,2.93,1.63,4.39l1.55-.77-2.4-6.41,1.26-1.22,1.63,4.8.7-1.06a49.74,49.74,0,0,0-25.67-35.26l-1.74-1.66a93.35,93.35,0,0,0-2.05-15.6l-1.23,4.41a63.05,63.05,0,0,1,2.09,16l-5.68-1.6,1.92-2.73a2.45,2.45,0,0,1-.25,3.2l1.13-1.27a9.53,9.53,0,0,0-.77-5.21l-8.25-12.17a89.4,89.4,0,0,1-5.91,10.55l-7-.26a10.79,10.79,0,0,0,4.6-6.05l-.9-4.45q-1.63-7.8-3.26-15.59l-1.16,2a15.67,15.67,0,0,0-2.65-6.11l-3.56,2.15a32.2,32.2,0,0,1,2.67,12.38l1-9.62c-.34-3.21-.69-6.41-1-9.62l1.92-1c2.8,1.93,6.75.88,9.54-1.06a17.65,17.65,0,0,0,6.58-8.69c.59-.17,1.17.47,1.17,1.08a2.72,2.72,0,0,1-.78,1.62,28.83,28.83,0,0,1-19.72,10.48,25.54,25.54,0,0,0,16.79-5.51A14.34,14.34,0,0,0,249,165a7.62,7.62,0,0,0-.07-6.58l.85.95,1.92,4.61-.39.39-.78-.28,0-1.09a17,17,0,0,1-.66,7.13l-1.73.36a13,13,0,0,0-1.21-5.2l1.71,1.53a16.83,16.83,0,0,1,16.53-3.9l4-2.77-3-6.94-1.66,1.2q1,2.08,2,4.19L264,159.73,262.88,157l-1.9,0c.51,1.41,1,2.82,1.55,4.22l-1.15-.15a7.51,7.51,0,0,0-10.06,4.31l-.82-8.75,1.55,3.83,1.46-1.11-3-6.92,1.62-.8,3.09,6.52.77.77.78,2.3-1.2-.36A37.69,37.69,0,0,1,285.39,171l1.14-.11c1,2.3,2.07,4.6,3.1,6.91l2.61,1.54a17.45,17.45,0,0,0-2.72-7.86l.13.17-2.3-3.86-.81.41a14.12,14.12,0,0,0-.79-4.6l-.48,3.26c-.15.15-.3-.26-.1-.32s.39.11.52.27a13.2,13.2,0,0,1,2.71,6l.29-.85a46.2,46.2,0,0,1,27,11l2,.25a49.12,49.12,0,0,1,13.79,11.88l-1.06,1A33,33,0,0,0,310,177.87l-7,4.37a40.78,40.78,0,0,1,25.86,25.35c.8,2.37,1.28,5.27-.39,7.15l-.1-1.08q2.24,7.2,4.45,14.4l-.46-.68a12.53,12.53,0,0,0,5.75-8,2.22,2.22,0,0,0-2,2.47,13.64,13.64,0,0,0,1.6-11.34l.15,3.65c1,0,1.07,1.42.79,2.33A18.78,18.78,0,0,1,330.57,227l-1.38-.52a9.6,9.6,0,0,0,6.12-2l-.13-1c.94.42.17,1.81-.64,2.42l-6,4.48C337,223.09,339.42,209.73,334,200v5.67l3.51,13.94-.36,1.09c2.06-2.89,1.62-6.8.81-10.25a62.7,62.7,0,0,0-3.34-10.17c-1.27-3-2.92-6.06-5.77-7.67l.24.34L307.67,175.3l-.83-3a74.23,74.23,0,0,0-7-6.42l-4.9,2.26a3.72,3.72,0,0,0-.92-2.27l-.46,7.27-.48,1.14-1.9-3.47-2.37-2.28V164.7l12.09-18.52,8.09,4.27-4,3.59a37.75,37.75,0,0,0-20.92-6.52l-3.36-2.65a32.14,32.14,0,0,1,6.72-.34l3-7.45c2.91-1.44,3.53-5.25,3.4-8.47a41.6,41.6,0,0,0-4-16.34c-1.34-2.8-3.09-5.54-5.73-7.21l.13,1.67c2.22,1.21,3.57,3.51,4.82,5.7a42.07,42.07,0,0,1,4.3,9.26,14.19,14.19,0,0,1-.5,10l.68.07a2.18,2.18,0,0,0,.69-2l.43.44a1.13,1.13,0,0,0,.35-1.94l1.14-.78a2.75,2.75,0,0,1,.13,2.31l1-.79a101.5,101.5,0,0,0-4.92-12.33l2.14-1-8-10.85-.15,1.26a51,51,0,0,1,5.91,26.5l.78,1.44h.39l2.49.41.18,1.13,4.39,1.87-2.34-4.6-.05-2.28c.3.46,1.12-.33.67-.64l3.56,2.19-1.78-4.68a22,22,0,0,1,2.47,5.88,1.69,1.69,0,0,1-1.44-.08h-1.16a27.08,27.08,0,0,1,5.5,6.48l3.37,1.22a16.64,16.64,0,0,0-2.92-4l2.52-.59a42.88,42.88,0,0,1,4.33,7.25l5.38,17.29,8.21,5.3a32.74,32.74,0,0,1,1.2-16.34A60,60,0,0,1,333.39,139l2.7-4.15a12.92,12.92,0,0,0,11.55-4.07l-.44.44a19.6,19.6,0,0,0,2-11.46l1.35,1.52a247.41,247.41,0,0,0-15.71-25.59l-2.38-6.85a276.29,276.29,0,0,1,16.19,24l-.08-.32a30.24,30.24,0,0,1,.33,13.68h.53l.47-1.25a22.7,22.7,0,0,1-1.81,4.92l.46.3-10-19-1.13-6.9a217.66,217.66,0,0,1,12.76,22l-.28-.52a63.53,63.53,0,0,1,.21-9.15l-1.25,2.26.07,0a74.37,74.37,0,0,0-10.36-33l2.07,4.41a205.2,205.2,0,0,0-17.37-20.9l1.16.9.6-.3c2.05,0,3.66,1.68,4.91,3.29A85.16,85.16,0,0,1,346,107.86l1.1-2L328.89,81.2l-2.48,14a15.92,15.92,0,0,0-2.58,12.66l-7.42.68a18.79,18.79,0,0,1,.14-4.68l.42,17.34-.32-3-3.89,1.61a28.72,28.72,0,0,1-5.6-19.94l4.5-3,.9-11L310,83a5.61,5.61,0,0,1-.26-3l-2.78,10-.33-2.33-6.81.64c.9,2,.15,4.39-.84,6.38a30,30,0,0,1-28.64,16.07l-.86,2.64a7.73,7.73,0,0,1-2.24-2.77l-.77,1.53L264.11,109l-1.84,1a6,6,0,0,1,2.19,3.62h-2.32l-2.49,1.77c-.2.15-.27-.38,0-.38s.4.29.47.53l2.72,8.85,1.25-.79a129.08,129.08,0,0,0-5.35-13.46l-2.18.42a15.62,15.62,0,0,1,1.23,11.9H259a9.09,9.09,0,0,1,2.13,5.34l-1.32.77c.51,1,1,2,1.54,3.07l1.95-3.45-3.76-9.08.24,1-20.35.75a3.28,3.28,0,0,1,1.41,2.62l6.53,1.26a48.38,48.38,0,0,0-10.29-15.88L230,103.3l-1.06-1.67a1.49,1.49,0,0,0-.17,1.28l-13.25,16q-.07,5.34-.63,10.65l2.17,4.88c-.07-1.06-.15-2.12-.23-3.18l1.82-.42a3.44,3.44,0,0,1,.79,2.8l.43-4.8a24.2,24.2,0,0,1,2,6.8l2.73,1.23-2.16-7.57-.09.14a.7.7,0,0,0,.34.94l3.21,2.86a21.4,21.4,0,0,1,2.42,6.4l2-.8a16.25,16.25,0,0,0-2.42-6.4l.4-.28a26.45,26.45,0,0,0,10.91,4.24c3.92.42,8.15-.67,10.81-3.55-6.87,2.22-14.22-.89-20.76-3.94l6.73,5.93L237.7,142l2.78-2-.16-2.79,3.34,4a17.72,17.72,0,0,0-.47-5.18l2.66-.76c0-.4,0-.81,0-1.21,3.13,6,5.26,12.78,4.89,19.57s-3.51,13.63-9.19,17.45l-.31,2.14a6.63,6.63,0,0,1,.82,3.2l-2,1.19-.81-3.2-2.49-.38,1.62,5.6,1.66,3a24.2,24.2,0,0,0-11.58-9.93c-3.19-1.29-7.19-1.77-9.79.46A12.07,12.07,0,0,1,230,174.9a19.66,19.66,0,0,1,6.74,9.64l.43,5.1a73.54,73.54,0,0,0-3.63-11.2l1.67-1.63-.57-1,4.58,11.45-.44-1.23a21.67,21.67,0,0,0-21.05-13.88l.87,2.32.85-.41c.15.66.29,1.33.43,2l-1.7,1.58a.94.94,0,0,0-.35,1.21l-2.08.81a7.07,7.07,0,0,0-.29-3.62l.73.83a12.14,12.14,0,0,0-1.34-4.78l-.71.76-1.81-.2a4.9,4.9,0,0,1,1.72,4.6l.11-1.18a33.5,33.5,0,0,0-.4,8L211,182v-7.2L209.65,176c-.13,1.33-.25,2.67-.38,4l-.48-2.36-1-3.22c-.07-.25-.21-.53-.46-.54s-.24.51,0,.39l-3.43,2.86a8.38,8.38,0,0,0,1.68,3.67l-.49,2.3a4.11,4.11,0,0,0,.85,3l-8.05-3a15.13,15.13,0,0,0,2.32,4.67l2.29,5.43c.29,2.93.58,5.87.86,8.8h2.07l-.51-7.1,0,1.5,3.27-2.82a10,10,0,0,1,.46,6.85l.72-1.23a39.77,39.77,0,0,0-.69-7.22l2.57.53A15.63,15.63,0,0,0,193.13,198a1.09,1.09,0,0,0-.09-1.52l-1.68,8.24a4.88,4.88,0,0,0,.8-3.74,38.53,38.53,0,0,0-1.55,13.62l.12-7.76a70.8,70.8,0,0,0-.15,28.85l.56-1.38c.63,4.62,1.48,9.19,2.53,13.74l.85,2.5a7.71,7.71,0,0,1,11.39.64,23.57,23.57,0,0,1-7.81-1.79,7.68,7.68,0,0,1,4.4,1.21,18.17,18.17,0,0,1-13.63-5.44l12.59,10.74A16,16,0,0,0,198,268.32l4.54-.42c.63-.57,1.74,0,2,.76a3.87,3.87,0,0,1-.27,2.47l5.6,1.23a4,4,0,0,0-.3-2.18l.49-.58a10,10,0,0,0-.71-6.09,3.61,3.61,0,0,0-1.56-1.86,1.69,1.69,0,0,0-2.19.51l-5.39,15.15a4.28,4.28,0,0,1,.25,2.5l-1.24,6.84,1.57.62,3.74,3A13.5,13.5,0,0,1,219.31,296l-1.88-6.23-6.59-2.14-.28-2,.13-.69a3.7,3.7,0,0,0,.58-3.67l-1.8.43a24.92,24.92,0,0,0,10.08-2.93,29.25,29.25,0,0,1-9,2.08,22,22,0,0,0,7.37-2.06,9.12,9.12,0,0,0-5.17.74l-4.62.41h10a3.81,3.81,0,0,1-2.17-.48l1,1.75c-.15.11-.18-.29,0-.27s.27.23.31.42l1.05,4.64-2.91,1.23a25.33,25.33,0,0,0-1.22-6.4l.8-.53a13.06,13.06,0,0,0,7.05-2.45l-.6.18a20.19,20.19,0,0,1,2.84,7.6L240,289.13a1.27,1.27,0,0,0-.64-1.23l3.77-1.57.94,1.55,8.88,8.89c3.55,3.24,4.53,8.4,4.67,13.18,0,1.29-.15,2.88-1.36,3.35l-.73.82,3.56,13.51-3.33.43a100.08,100.08,0,0,0-5.23-17.61l.83-.15a3.28,3.28,0,0,0-.43-3.75l-.94-.33a2.64,2.64,0,0,1-.92,2.78l-1.77-.55a95.76,95.76,0,0,1,5.14,18l1.68-1.48A19.09,19.09,0,0,0,271.07,305l1,1.79-1.71-10,1.56.41a94.67,94.67,0,0,1,2.14,9.58l.83-1.79a44.36,44.36,0,0,1,9.93-2.63l-1.61.85,1,.76q-.89-5.59-1.75-11.18L280,296.06a17.89,17.89,0,0,1,.82,7.19l-2.31,1.18-1.74-9.17-3.46.72a38.77,38.77,0,0,1,3.35,12.49l-5.13-6.42a35,35,0,0,0-2.41-12l-1-2.25a13.11,13.11,0,0,1-13.52,6L257,295.5c.56-1.14,2.3-.52,3.33.23l8.17,6-1.44.31a16.93,16.93,0,0,0-1.61-7.6l-2.09.41c.29,1.33.57,2.67.86,4l-.48-.14a13.05,13.05,0,0,0-10.07-4.18l-.48-.42c2.7,1.55,6.09-.05,8.64-1.85a54.92,54.92,0,0,0,7.48-6.38l.06.94A13.47,13.47,0,0,1,260.1,294v.55a12.07,12.07,0,0,0,7.45-7.24l0,.36,1.56,7.21-3.17-5.62,1.46,4.85v-1.6a92.43,92.43,0,0,1,2.91,14l-.76-.16a23,23,0,0,1-7-9.47l-.39-.93a5,5,0,0,1,2-5.23l-1.73,4.45a15.29,15.29,0,0,0,2.4-3.62l-1.06,5.33.59-.44q1.21,3.63,2.42,7.26l1,1.78a24,24,0,0,1,1.73,10.19c-.13,2.67-1.18,5.83-3.82,6.39l-1.8-.35-1.57-7.21-2.52,1.62,1.61,6L250,326.19a29.14,29.14,0,0,0,12.67-3.34c1.36-.72,2.77-1.69,3.17-3.17l-.68-2-1.25-7.6,3.07,3.23c-.25-1.61-.49-3.21-.73-4.82l1.92,1.92c1.4,2.25.73,5.22-.53,7.56a17.49,17.49,0,0,1-10.21,8.33l.9-1.89a15.69,15.69,0,0,1-13.8-2.51l-1,.57A6.27,6.27,0,0,0,246.6,324l-4.91-2.82a39,39,0,0,0,9.69,3.53.33.33,0,0,0,0-.14.83.83,0,0,0-.91-.75l1.86.5-2.17,1.08a29,29,0,0,0,18.73-11.64l-.05-.48a12.64,12.64,0,0,0-4.91-13.86l.38,1.06a30.48,30.48,0,0,1-3.75-7.26l.07.86a33.29,33.29,0,0,1,7.08,13.22l.23-.82a13.13,13.13,0,0,0,4.95.4,12.26,12.26,0,0,0-4.21.59l7.89-1.52a18,18,0,0,1-6.63,1.45,26.28,26.28,0,0,0,9.72-2.88l-.15-.16a57.57,57.57,0,0,0,14.14-6.62,1.94,1.94,0,0,0,1-1.21c.08-.54-.65-1.1-1-.71l-.85.59c5.1-.72,8.17-5.94,9.82-10.77a58.19,58.19,0,0,0,3.13-18.44v-.88c.77-.16,1.05,1,1,1.75a49.87,49.87,0,0,1-2.5,10.5l-1.81-.88a28.89,28.89,0,0,0-2.05-8.49l-4.73,9.3a47.42,47.42,0,0,1,1.79,10.37l2.36-.4A32.61,32.61,0,0,0,297.81,276c-.48-.63.49.68.33.49l1.27-2.81,2,8.8,1.38,3.64A42.71,42.71,0,0,1,285,301.89l2.32,0a46.28,46.28,0,0,1-11.09,3.1l.12-.58a123,123,0,0,0-4-16.8l3,1.17a16,16,0,0,0-7.86-13.93l-4.83,1.45a5.09,5.09,0,0,0-5.3.44l-.35-6.55,2.52-.91,5.19-1.27v1.2l1.53.06c.22.42,1,.12,1-.35a1.72,1.72,0,0,0-.58-1.25l1.73-6.1A79.44,79.44,0,0,0,280,242.79l2.85-3.54-5.05-11.92.18-.87a23.2,23.2,0,0,1,3.26,6.78l2.78-.39a9.63,9.63,0,0,0-2.35-6l-.68.7a14.76,14.76,0,0,1,3.41,7.34l-1.47.76-3.48-8.47c-.09-.22-.16-.51,0-.64s.4.31.17.27l.13,1.45a30.35,30.35,0,0,0,7.32-32.32l-8-7.42,5.15-2.43a18.07,18.07,0,0,0,.59-16l-.07-.91a14.81,14.81,0,0,1,2.37,6.71,7,7,0,0,1-2.83,6.25l1.52-1a9.3,9.3,0,0,1,1.87,4.66l1.45-.74a30.12,30.12,0,0,0-2.6-7.32l2.66,3.47c-.88-2.44-1.77-4.87-2.65-7.31l-.91-1.47-6.45-11.59,1.18.38,6.25,10.72.18.43c7.58-.4,15.13,1.92,21.77,5.59s12.43,8.66,17.89,13.89l-.15-1.22a97.16,97.16,0,0,0-27.92-17.15l2.44,2.37a2.17,2.17,0,0,1,.8,1.9l-2.73.38c-.64-1.15-1.29-2.3-1.94-3.45l-.39,1.54a4.63,4.63,0,0,0-1.5-2l.05-.24a53.45,53.45,0,0,1,28.55,13.29l1.65.79-1.23-5.36h-1.59c-.14.51-.27,1-.41,1.53l3.53-2.29q1.56,4.6,3.1,9.21l.49.67a49.9,49.9,0,0,1,9.36,19.65c.4,1.72.61,3.76-.65,5l.81,2A97.67,97.67,0,0,0,335,201.32c.41,2,.82,3.93,1.24,5.9l.26-1.17a29.42,29.42,0,0,0-11.76-16.18l4.75-6a87.89,87.89,0,0,1,3.32,8.75l.09.63a12.07,12.07,0,0,0,9.89-5.39,7.73,7.73,0,0,0,1.36-3.89,5.83,5.83,0,0,0-.92-3.35l1.86,2.05a119,119,0,0,0-8.14-19.85l.72.69-2.34,4.61A117.17,117.17,0,0,1,343.09,187l1.37.18a12.41,12.41,0,0,1-8.38,6.42,12.57,12.57,0,0,0,3.48-2.88,21.22,21.22,0,0,0,3.18-5.64,70.53,70.53,0,0,0,5.43-26.92l.76,2.73a122.46,122.46,0,0,0-9.74-21.09l2-3.49q4,7.34,7.25,15l.44,1.34c.82,6.48,1.17,13.18-.73,19.43s-6.41,12-12.71,14L333,188.87a3.9,3.9,0,0,0,2.5,2.55A84.11,84.11,0,0,0,330.11,178l6.23,10.55a9.35,9.35,0,0,0,2,2.55,72,72,0,0,0-6.45-14.92l-1-1.38a15.62,15.62,0,0,1,1-7l-.54-2.64a35.14,35.14,0,0,1,3.18-11.36l3.42,4L346.6,177l3.06-.37q-5-12.27-10.71-24.23l.62.83,2.32-2.68a2.76,2.76,0,0,0-.83-1.4A117.13,117.13,0,0,1,350.8,172l-.44-1.56a37.28,37.28,0,0,1-11.3,21.66l-1.13.25a4.81,4.81,0,0,1-6,1.34l1.36.09-3.22-.46.45.45a14.58,14.58,0,0,0,5.54.37l.1,28.69a83.34,83.34,0,0,0-3.88-13.12l-2.83-.4A109.28,109.28,0,0,1,335,226l-21.6-4.26a2.33,2.33,0,0,0-.8-2.74l.95-.6a4.68,4.68,0,0,1,1.39,4.47l-.36-.09a46.64,46.64,0,0,0,13.29,5.81l-2.77-.69,0-.87,2.16.63-11.32-3.51-.83-.87a3.81,3.81,0,0,1,1,4l1.46-2.44a12.27,12.27,0,0,0-1.07-4.06l1.48-.33a11,11,0,0,1,1.77,4.36l-.64-.47a30,30,0,0,0,9.25,3.1l-.84.46a31,31,0,0,1-3,25.49l-1.23,1.45a49.65,49.65,0,0,0-2.07-12.4L318,244a58,58,0,0,1,2.86,12.81L322.2,253a33.42,33.42,0,0,1-13.71,12l1-.5a54.7,54.7,0,0,0-1.73-9.58l-2.86-.36a20.2,20.2,0,0,1,2.37,10.36l-2.09-.83a26.75,26.75,0,0,0-2.24-8.77l-.77.79a13.58,13.58,0,0,0-.41,4.4l-.41,3.2,2,11.2,2.91.54q-.39-5.26-.76-10.51v.63l5.72-3.17a9.12,9.12,0,0,0-4.53,2.11l8.06-3.7h0l.58,0a23.37,23.37,0,0,0,12.76-16.43l-1.75-.7a16.9,16.9,0,0,0-.76-7.2l1.63-2a22.17,22.17,0,0,1,.34,6.4l-3.67-2a77.22,77.22,0,0,1,.89,10.4l4.91-3.5A22,22,0,0,0,326.38,228l-.64.07-.21-2.78-2.75.8c.07-.81.15-1.62.22-2.42l3.78-5.18a70.29,70.29,0,0,1,4.3,12.43l-2.72-.83a25.91,25.91,0,0,0-3.53-9.64l-1.35-.94a8.49,8.49,0,0,0,2-5.74c0-.66-.45-1.52-1.06-1.28l-4-1a39.48,39.48,0,0,0-14.86-21.59l-4.33-2.05a41,41,0,0,1,11.85,18.63l-5.83.37a48.53,48.53,0,0,0-5.73-10.3l-4.36-3.71c2.17,3.37,4.36,6.79,5.59,10.6s1.41,8.1-.38,11.68l-2.84,2.38a31.39,31.39,0,0,1-6.68,14.67l6.34,2.3a98.56,98.56,0,0,0,6.44-11l4.17,6.19v.4l-2.72.29A9.67,9.67,0,0,0,312.3,218l-.21,2.21h1.5a10.1,10.1,0,0,1-4.23,8.18l1.09-.15c.24.43,1,.1,1.06-.38a1.77,1.77,0,0,0-.62-1.29l.95-2.07a2.53,2.53,0,0,1,.45,3.19l1.22.4a4.59,4.59,0,0,0-.05-4l.52.67-6.3,5.08a9,9,0,0,0,4.49-11.91l-1.92-2.65V214l-17.68,10.07a31.75,31.75,0,0,0,1.2-16l-6.54-2.09,1.22,3.2-1.16,1.56a14.9,14.9,0,0,1,2.36,6l-3.23-2.39a22,22,0,0,1,2.91,8l-1.67,1.21a9.58,9.58,0,0,0-1.63-4.39l-1.52,2.37,1.58,5.21-1.46,1.93-2.12-5.38c-.09-.24-.17-.56,0-.71s.45.34.19.31l-.1,2.2-1.44,4.54a9.6,9.6,0,0,0,3.62-5.69,13.65,13.65,0,0,0-4.65,4.9A25.05,25.05,0,0,0,284.63,195l-1.11,1.79a25.32,25.32,0,0,1,.26,6.33l-4.4-.66a141.62,141.62,0,0,1-1,14.68l-6.27,6.25a63.42,63.42,0,0,1,14.45,25l-.53-4c-.19-.37-.37-.74-.55-1.11l2.75,7.44,1.07.37a65.53,65.53,0,0,0-18.39-29.58c-1.34-1.24-2.94-2.5-4.78-2.39l-.66-.75a8.94,8.94,0,0,0-2.79-5.62l1.23-.41a25,25,0,0,1,4.39,7.23l-.8-.8a33,33,0,0,1-2.12-6.79l-.2.29a20.7,20.7,0,0,1,4.3,6.91l-1.38,23.68a4,4,0,0,1-.75,3.11,29.16,29.16,0,0,1-27.47,13.59l1.1-1.25c2.51,3,7,3.7,10.77,2.58s6.83-3.77,9.46-6.65a36.93,36.93,0,0,1-11,5.53,16.45,16.45,0,0,1-12.05-1l17.3-.81a9.15,9.15,0,0,1,1.15,4l2-2a9.32,9.32,0,0,0-1.09-3.63l2.36.43a9.37,9.37,0,0,0-.4-3.49c0,.36,0,.72,0,1.09L256,250c3.6-3.56,5.62-8.34,8.32-12.6a12.69,12.69,0,0,1,3.25-3.75,5.32,5.32,0,0,1,4.75-.84l6.86-2,3.63,9.6-1.05-.19a65.29,65.29,0,0,0-10.43-17.65c-2.42-2.93-5.54-5.85-9.37-5.88l-.43.73a8.92,8.92,0,0,0,4.26-6.42,24.2,24.2,0,0,0-.31-7.91q-1-6.15-2.31-12.22l-.94.33a1.38,1.38,0,0,1-.31-1.57,70.32,70.32,0,0,1,2.25,20.77l1.12-3.39c-.13.19-.33-.26-.1-.31s.4.17.51.36A61.85,61.85,0,0,1,270,216l1.86-1.94a71,71,0,0,0-5.5-10.47l2.28-2a7.06,7.06,0,0,0-2.7-4.87l-1.35-5.11.41,1.2.4.33a23.27,23.27,0,0,1-1,14.63,44.56,44.56,0,0,1-7.93,12.61,16.44,16.44,0,0,0,9.15-15.81l-.92.21A169.34,169.34,0,0,0,262.21,185l.83,3.43L259,192.05a87.28,87.28,0,0,1,2,18.79l.4,1.2a8.29,8.29,0,0,1,2.41,3.21l4.38-3.81-29,18.55a70.53,70.53,0,0,0-9.07,6.5l3.48.76a12,12,0,0,0-.36-5.62l0,.64-3.36,3.53,21.56-12.56c4.36-2.55,8.82-5.17,12-9.06s5-9.34,3.12-14l-.74.69c-.05-.41-.11-.81-.16-1.21a79.06,79.06,0,0,1,5,8.83l2.32-4.35c.27-5.13.46-10.63-2.27-15l3.62-.26q-.62-2.49-1.21-5a2.53,2.53,0,0,0-.77-1.52c-.47-.35-1.33-.19-1.4.39l6.88-2.27a22.09,22.09,0,0,0-4.91-7.85c-2.27-2.13-5.54-3.43-8.57-2.67L264,173.5a39.34,39.34,0,0,0-3.39,7.65l-7.74-4.68c-1.74,3-1.6,6.73-.94,10.13s1.82,6.73,2,10.19a17.88,17.88,0,0,1-6.58,14.37l-2.41,1.66-5.38,4.32-2.77,1a5.85,5.85,0,0,1-3.71,5.15l14.51,14.68a22.16,22.16,0,0,0,9.13-5l4.15,2.51a42.13,42.13,0,0,1-10.2,10.73l.42,3.9a10.44,10.44,0,0,1-11.6-1.13l-2.25-4.57-1.88.62,2-7.82a8.91,8.91,0,0,1-.13-5.19l2.74-1.08c.14,0,.06-.27-.08-.22s-.17.23-.17.38l0,3.74,3.35-3.59.54-2.85,2.58-.37v-2l3.63-2L249,222.5a27,27,0,0,1,.31,6.34l4.09-1.19c.14-1.74.27-3.47.41-5.2l3.81,2.4,0-4,3.12.38.7,4.82,3.6,2.4q-.78-7.14-1.28-14.3a3.41,3.41,0,0,1,.85,2.7l.13-1a65.52,65.52,0,0,0-32.67,19l-.93.41-.45,4.79-3.46.16a25.22,25.22,0,0,0-15.56-17.15c-1-.35-2.5-.28-2.49.74,1.94-1.84,5.19-1.65,7.47-.25s3.8,3.73,5.14,6c2.78,4.79,5.21,10.36,3.77,15.7l-6,11.93,3.09,10.05.53-.57c-2.69,6.38-.26,13.66,2.54,20a177.11,177.11,0,0,0,8.62,17l-1.25-2a8.19,8.19,0,0,0-.7-5.22l2,1.17a3.85,3.85,0,0,1,.68,4l-.8-.1a91.29,91.29,0,0,1-11.07-16.88c-1.61-3.17-3-7-1.27-10.12l1.16.85a28.7,28.7,0,0,0-7.71-18.15l1.33,4.49.95-2.25A14.12,14.12,0,0,1,222,269l.8,3.2,4.41-3.77-1.41-10.77a1.49,1.49,0,0,0-.27,1.56l-2.08,0a1.47,1.47,0,0,1-.46-1.08,40.75,40.75,0,0,1,1.34,8.28l-.14.73a43.25,43.25,0,0,1-2.25,9.6l-1.63-2.32a10,10,0,0,1,8.24-10.08A2.62,2.62,0,0,0,228,264a2.39,2.39,0,0,0-3.21,1l-4.6-.5a23.43,23.43,0,0,0-2.73-8l-2,.4-4.08-5.17-1.92,2.29c2-.45,3.89,1.2,5.18,2.82a34.28,34.28,0,0,1,7.11,16.31l.58,0a20.19,20.19,0,0,1-2.78,5.9l-1.3-.16a31.59,31.59,0,0,1,3.13,8l1.74.38a43.75,43.75,0,0,0-1.52-7.24l-.3-1.1q5.1,10.93,9.79,22.06l-.74-.92a17.82,17.82,0,0,0-1.65-6v1.59c.16,1.73.31,3.46.47,5.19l3,4.28a16.92,16.92,0,0,1,11.06-5.59c-8.91-1.72-18.68,3.72-21.84,12.16l2.53-4.05-.45-2.79.43-.4c-.15-1.47-.29-2.94-.44-4.4l0-3.2q1,3.6,2,7.2l.86-1.21a26.3,26.3,0,0,0-1.24-6.8l2.42,1.2a23.92,23.92,0,0,1,1.23,6.8l1,.55-2.3,1.83,11.1,5.44a25.23,25.23,0,0,1,3.59,13.19c0,4.22-1.83,9.08-5.94,10.18l.2.42a37.91,37.91,0,0,0-.44-7.6l-3.17,1.59a18.7,18.7,0,0,1,.8,5.61l1.85.57a15.32,15.32,0,0,0,4.71-16.48c-.35-1-1.08-2.16-2.16-2.07l.83,1.17.81,6.41-1.61-.41v6.41l1.58-.71c-.16,2.39-1.91,4.35-3.7,6a45.06,45.06,0,0,1-23.62,11.07l-.92-2.73q-.65-4.8-1.27-9.6l1.45-.18a10.67,10.67,0,0,0,9-.43,14.64,14.64,0,0,0,6-7,24.1,24.1,0,0,0,2-13.31l-3.35-.67a21.46,21.46,0,0,1,17.45-13.78l-5.05-.2a1,1,0,0,1-.37-1.12,12.25,12.25,0,0,1-.45,4.66L243,305.2c-.32-.75-.64-1.5-.95-2.25a94,94,0,0,1,5.89,18.82l-8-18.4,5.7,16.57-1.4,3.68-4.1-16.79-2,2a28.53,28.53,0,0,1,2.71,11.66l1.62.1a33.33,33.33,0,0,1-1.18,11l-3.7,2.28c3.06-1.94,4.7-5.61,4.87-9.21a22.57,22.57,0,0,0-2.5-10.42,1.54,1.54,0,0,0-1,1.37l-.37-.28a5.2,5.2,0,0,1,2.86,3.8,13,13,0,0,1-.12,4.89,31,31,0,0,1-4.57,12.69c-2.58,3.74-6.63,6.67-11.18,7.1l0-2.12-1.22-4.8-1.72,1.23.48,4.79,3.61-8.84a7.54,7.54,0,0,1,1.53,5.64l2.64-1.15a6.54,6.54,0,0,0-1.44-5.61l-13.65-22a3.42,3.42,0,0,1-3.11,1.58l4.15,8a3,3,0,0,1-1.33,3.65,8.54,8.54,0,0,1-4.09,1l-1.23,4a7.38,7.38,0,0,0,5-.26L213,333.65l1.62,11.6,2.82-2a31,31,0,0,0-1.31-7.59l3.74,2a12.59,12.59,0,0,1,.47,6.44H222a39.84,39.84,0,0,1-22.12.9l1.77-.52a182.37,182.37,0,0,0-4-23.21l-1.59-6.38a17.89,17.89,0,0,0-.23,11,12.07,12.07,0,0,0,7.47,7.77l3.18-1.95a67.91,67.91,0,0,1,2,14.8l1.79-.06A44,44,0,0,1,198.43,342l-1.38-1.13q-2-12-4-24l-1.48-1.77A28.37,28.37,0,0,1,196.12,304a23.48,23.48,0,0,1-3.44,5.07,19.14,19.14,0,0,1,4.82-6.39l-1.21,1.08a61.64,61.64,0,0,1,14-2.71,34.26,34.26,0,0,0-16,1.22l-1.81-.36a36.19,36.19,0,0,0,.46-9.12l1.67-1.1a110.29,110.29,0,0,0-.12,11.21l.55-.12a64.79,64.79,0,0,1-1.15-14.44A131.61,131.61,0,0,1,195,302.17l-1.66-10.34-.67-.07a57.7,57.7,0,0,1,3.16-41.39l-2.05,4-.21,2.34a17.71,17.71,0,0,0,.17-5.39c-3.55,7.71-2.53,16.63-1.43,25q.49,3.83,1,7.65l0,6a25,25,0,0,1-1.77-9.16l.26,0q1.65,9.3,3.28,18.62l5,2.52a45.19,45.19,0,0,0-1.22-10.8l-2.42-1.6a68,68,0,0,1,1.65,11.6l0-.06c.23.1.34-.37.11-.47a.72.72,0,0,0-.7.18,22,22,0,0,0-5,4.8,27.2,27.2,0,0,0,3.53-4.19l-6.3,11.8,3.57-7.35a1.22,1.22,0,0,0,.06-1.21,12.9,12.9,0,0,0-1.05,3.49l1.12,1.42c-3.58,3.55-4.43,9.14-3.42,14.06s3.61,9.36,6.17,13.69h0l3.22,5.45c-2.22-.09-3.71-2.24-4.7-4.21a55.26,55.26,0,0,1-5.59-18.52l1.19-.07,1.18,6.81,1.83,6.49a35.36,35.36,0,0,1-4-11.16c-.39-2.17-.45-4.72,1.17-6.24l-.13,1.28a72.09,72.09,0,0,1,2.35,18l11.29,4.8q-.69-6.26-1.92-12.42l2.62-.78a7,7,0,0,1-1.27-6.58,21.18,21.18,0,0,1,3.23-6.17l-5-2.34a13.65,13.65,0,0,1,7.88-4.94l.55-2.38a18.79,18.79,0,0,0-.82-7.07,3.52,3.52,0,0,0,.44,1.87l-1.65,2.8a6,6,0,0,0-1.14-4.84l-1.65-1.16a22.92,22.92,0,0,1,.37,6.4l-2.36-.4a27.51,27.51,0,0,0-1.29-7.19l-52.35.81a27.09,27.09,0,0,0-1.28,7.19l-2.37.4a22.92,22.92,0,0,1,.37-6.4L144.77,298a6,6,0,0,0-1.14,4.84L142,300.05a3.46,3.46,0,0,0,.44-1.86,18.79,18.79,0,0,0-.82,7.07l.56,2.38a13.63,13.63,0,0,1,7.87,4.94l-5,2.34a21.18,21.18,0,0,1,3.23,6.17,7.06,7.06,0,0,1-1.26,6.58l2.61.78q-1.23,6.17-1.92,12.42l11.29-4.8a72.09,72.09,0,0,1,2.35-18l-.13-1.28c1.62,1.52,1.56,4.07,1.18,6.24a35.86,35.86,0,0,1-4,11.16l1.82-6.49,1.18-6.81,1.19.07A55.26,55.26,0,0,1,157,339.46c-1,2-2.48,4.12-4.7,4.21l3.22-5.46h0c2.56-4.33,5.16-8.77,6.17-13.69s.16-10.51-3.42-14.06l1.12-1.42a12.9,12.9,0,0,0-1.05-3.49,1.22,1.22,0,0,0,.06,1.21l3.57,7.35-6.3-11.8a26.71,26.71,0,0,0,3.54,4.19,22.41,22.41,0,0,0-5-4.8.77.77,0,0,0-.71-.19c-.23.11-.12.58.11.48l0,.06a68.82,68.82,0,0,1,1.65-11.6l-2.42,1.6a45.19,45.19,0,0,0-1.22,10.8l5-2.52q1.63-9.31,3.28-18.62l.26,0a25,25,0,0,1-1.77,9.16l0-6,1-7.65c1.1-8.41,2.12-17.33-1.43-25a17.71,17.71,0,0,0,.17,5.39l-.21-2.34-2.05-4a57.7,57.7,0,0,1,3.16,41.39l-.67.07L156.75,303a131.61,131.61,0,0,1,1.15-13.88,64.79,64.79,0,0,1-1.15,14.44l.55.12a110.29,110.29,0,0,0-.12-11.21l1.67,1.1a36.22,36.22,0,0,0,.46,9.12l-1.81.36a34.25,34.25,0,0,0-16-1.22,61.54,61.54,0,0,1,14,2.71l-1.21-1.08a19.21,19.21,0,0,1,4.82,6.38,23.18,23.18,0,0,1-3.44-5.06,28.37,28.37,0,0,1,4.52,11.16l-1.47,1.76q-2,12-4,24l-1.38,1.13a44,44,0,0,1-11.91,4.38l1.79.06a68.44,68.44,0,0,1,2-14.8l3.18,1.95a12,12,0,0,0,7.47-7.77,17.89,17.89,0,0,0-.23-11l-1.59,6.38a182.37,182.37,0,0,0-4,23.21l1.77.52a39.93,39.93,0,0,1-22.12-.9h1.62a12.7,12.7,0,0,1,.47-6.44l3.74-2a31,31,0,0,0-1.31,7.58l2.82,2,1.62-11.6-2.21-4.74a7.38,7.38,0,0,0,5,.26l-1.23-4a8.54,8.54,0,0,1-4.09-1,3,3,0,0,1-1.33-3.65l4.15-8a3.43,3.43,0,0,1-3.11-1.58l-13.64,22a6.51,6.51,0,0,0-1.45,5.61l2.64,1.15a7.54,7.54,0,0,1,1.53-5.64l3.61,8.84.48-4.79-1.72-1.23-1.21,4.8,0,2.12c-4.55-.43-8.6-3.36-11.17-7.1a30.89,30.89,0,0,1-4.58-12.69,13,13,0,0,1-.12-4.89,5.23,5.23,0,0,1,2.86-3.8l-.37.28a1.54,1.54,0,0,0-1-1.37,22.57,22.57,0,0,0-2.5,10.42c.17,3.6,1.81,7.27,4.87,9.21l-3.7-2.28a33.33,33.33,0,0,1-1.18-11l1.62-.1a28.53,28.53,0,0,1,2.71-11.66l-2-2-4.1,16.79-1.4-3.68,5.7-16.57-8,18.4a94,94,0,0,1,5.89-18.82c-.31.75-.63,1.5-1,2.25l6.23-2.36a12.06,12.06,0,0,1-.46-4.66,1,1,0,0,1-.37,1.12l-5.05.2a21.46,21.46,0,0,1,17.45,13.78l-3.35.67a24.1,24.1,0,0,0,2,13.31,14.69,14.69,0,0,0,6,7,10.67,10.67,0,0,0,9,.43l1.45.18q-.63,4.8-1.27,9.6l-.92,2.73a45.08,45.08,0,0,1-23.62-11.08c-1.79-1.61-3.54-3.57-3.7-6l1.58.71v-6.41l-1.61.4.81-6.4.83-1.17c-1.07-.09-1.81,1.05-2.16,2.07a15.32,15.32,0,0,0,4.71,16.48l1.85-.57a18.7,18.7,0,0,1,.8-5.61l-3.17-1.59a37.91,37.91,0,0,0-.44,7.6l.2-.42c-4.11-1.1-5.89-6-5.94-10.18a25.15,25.15,0,0,1,3.6-13.19l11.1-5.44L122,305.41l1-.55a23.92,23.92,0,0,1,1.23-6.8l2.42-1.2a26.22,26.22,0,0,0-1.24,6.8l.86,1.21q1-3.6,2-7.2l0,3.2c-.15,1.46-.29,2.93-.44,4.4l.43.4-.45,2.79,2.53,4.05c-3.16-8.44-12.93-13.88-21.84-12.17a17,17,0,0,1,11.06,5.6l3-4.28c.16-1.73.31-3.46.47-5.2v-1.58a17.82,17.82,0,0,0-1.65,6l-.74.92q4.68-11.13,9.79-22.06l-.3,1.1a43.54,43.54,0,0,0-1.52,7.24l1.74-.38a31.44,31.44,0,0,1,3.13-8l-1.3.16a20.19,20.19,0,0,1-2.78-5.9l.58,0a34.28,34.28,0,0,1,7.11-16.31c1.29-1.62,3.15-3.27,5.18-2.82l-1.92-2.29-4.08,5.17-2-.4a23.43,23.43,0,0,0-2.73,8l-4.6.5a2.39,2.39,0,0,0-3.21-1,2.62,2.62,0,0,0-.55.39,10,10,0,0,1,8.24,10.08l-1.63,2.32a43.25,43.25,0,0,1-2.25-9.6l-.14-.73a40.75,40.75,0,0,1,1.34-8.28,1.47,1.47,0,0,1-.46,1.08l-2.07,0a1.51,1.51,0,0,0-.28-1.56l-1.41,10.77,4.41,3.77.8-3.2a14.12,14.12,0,0,1,4.31-9.53l.95,2.25,1.33-4.49a28.7,28.7,0,0,0-7.71,18.15l1.16-.85c1.74,3.09.34,7-1.27,10.11a91,91,0,0,1-11.07,16.89l-.8.1a3.85,3.85,0,0,1,.68-4l2-1.17a8.19,8.19,0,0,0-.7,5.22l-1.25,2a177.11,177.11,0,0,0,8.62-17c2.8-6.33,5.23-13.61,2.55-20l.52.56,3.09-10-6-11.93c-1.43-5.34,1-10.91,3.77-15.7,1.34-2.3,2.86-4.63,5.14-6s5.53-1.59,7.48.25c0-1-1.54-1.09-2.5-.74A25.22,25.22,0,0,0,124.49,241l-3.46-.16-.45-4.79-.93-.41a65.52,65.52,0,0,0-32.67-19l.13,1A3.41,3.41,0,0,1,88,215q-.51,7.16-1.27,14.3l3.6-2.4L91,222l3.12-.38.05,4,3.81-2.4c.14,1.73.27,3.46.41,5.2l4.09,1.19a27.51,27.51,0,0,1,.31-6.34l-.73,1.54,3.63,2v2l2.59.37c.18.95.35,1.9.53,2.85l3.35,3.59,0-3.74c0-.15,0-.33-.17-.38s-.22.25-.08.22l2.74,1.08a8.83,8.83,0,0,1-.13,5.19l2,7.82-1.89-.62-2.25,4.57a10.44,10.44,0,0,1-11.6,1.13l.42-3.9a42.17,42.17,0,0,1-10.2-10.74l4.15-2.5a22,22,0,0,0,9.13,5l14.51-14.67a5.85,5.85,0,0,1-3.71-5.15l-2.76-1-5.39-4.32L104.46,212a17.88,17.88,0,0,1-6.58-14.37c.13-3.46,1.28-6.8,2-10.2s.8-7.12-.94-10.12L91.15,182a39.52,39.52,0,0,0-3.39-7.64l-.33-3.54c-3-.76-6.3.54-8.57,2.67A22.09,22.09,0,0,0,74,181.29l6.89,2.26c-.08-.57-.94-.73-1.41-.38a2.53,2.53,0,0,0-.77,1.52c-.4,1.66-.8,3.33-1.21,5l3.62.26c-2.73,4.36-2.54,9.86-2.27,15l2.32,4.35a78.18,78.18,0,0,1,5-8.83c0,.4-.11.8-.16,1.2l-.74-.68c-1.84,4.68-.09,10.14,3.12,14s7.67,6.51,12,9.06l21.56,12.56-3.36-3.53,0-.64a12,12,0,0,0-.36,5.62l3.48-.76a70.53,70.53,0,0,0-9.07-6.5l-29-18.55,4.38,3.81a8.29,8.29,0,0,1,2.41-3.21l.4-1.2a87.28,87.28,0,0,1,2-18.79l-4.07-3.61.84-3.44a167.67,167.67,0,0,0-2.44,19.84l-.92-.21a16.44,16.44,0,0,0,9.15,15.81,44.56,44.56,0,0,1-7.93-12.61,23.27,23.27,0,0,1-1-14.63l.4-.33.41-1.2-1.35,5.11a7.06,7.06,0,0,0-2.7,4.87l2.28,1.95a71.63,71.63,0,0,0-5.5,10.48l1.86,1.94a61.35,61.35,0,0,1,4.27-8.92c.11-.19.29-.42.51-.36s0,.5-.1.31l1.12,3.39a70.28,70.28,0,0,1,2.25-20.77,1.38,1.38,0,0,1-.31,1.57l-.94-.34q-1.35,6.07-2.31,12.23a23.93,23.93,0,0,0-.3,7.91,8.88,8.88,0,0,0,4.25,6.42l-.43-.73c-3.83,0-7,3-9.37,5.88A65.29,65.29,0,0,0,70,241.07l-1,.19,3.63-9.6,6.86,2a5.32,5.32,0,0,1,4.75.84,12.57,12.57,0,0,1,3.25,3.75c2.7,4.26,4.72,9,8.32,12.59l-3.41,4.45c0-.37,0-.73,0-1.09a9.37,9.37,0,0,0-.4,3.49l2.36-.43a9.32,9.32,0,0,0-1.09,3.63l2,2a9.23,9.23,0,0,1,1.15-4l17.3.82a16.45,16.45,0,0,1-12.05,1,36.93,36.93,0,0,1-11-5.53c2.63,2.88,5.72,5.53,9.46,6.65s8.26.39,10.77-2.58l1.1,1.25a29.16,29.16,0,0,1-27.47-13.59,4,4,0,0,1-.75-3.11l-1.38-23.68a20.7,20.7,0,0,1,4.3-6.91l-.2-.29a33,33,0,0,1-2.12,6.79l-.8.8a25,25,0,0,1,4.39-7.23l1.23.4a9,9,0,0,0-2.79,5.62l-.66.76c-1.84-.11-3.44,1.14-4.78,2.38A65.62,65.62,0,0,0,62.49,252l1.07-.37,2.75-7.44c-.18.37-.36.74-.55,1.11l-.53,3.95a63.45,63.45,0,0,1,14.45-25l-6.27-6.26a141.23,141.23,0,0,1-1-14.67l-4.4.66a25.32,25.32,0,0,1,.26-6.33l-1.11-1.79a25.05,25.05,0,0,0,4.46,33.93,13.65,13.65,0,0,0-4.65-4.9,9.6,9.6,0,0,0,3.62,5.69L69.11,226l-.1-2.2c-.25,0,0-.46.19-.31s.13.47,0,.7l-2.12,5.39-1.45-1.93,1.57-5.21-1.52-2.37a9.58,9.58,0,0,0-1.63,4.39l-1.67-1.21a22,22,0,0,1,2.91-8l-3.23,2.39a14.9,14.9,0,0,1,2.36-6l-1.16-1.56,1.22-3.2L58,209a31.75,31.75,0,0,0,1.2,16L41.5,214.85v1.2l-1.92,2.64a9,9,0,0,0,4.49,11.92l-6.3-5.08.52-.67a4.59,4.59,0,0,0,0,4l1.22-.4a2.53,2.53,0,0,1,.45-3.19l1,2.07a1.72,1.72,0,0,0-.61,1.28c0,.49.81.82,1,.39l1.09.15A10.12,10.12,0,0,1,38.16,221h1.5l-.21-2.21a9.67,9.67,0,0,0,5.17,12.37l-2.72-.29v-.4l4.17-6.19a98.56,98.56,0,0,0,6.44,11l6.34-2.3a31.39,31.39,0,0,1-6.68-14.67l-2.84-2.38c-1.79-3.58-1.61-7.88-.38-11.68s3.42-7.23,5.59-10.6l-4.36,3.71a48.53,48.53,0,0,0-5.73,10.3l-5.83-.37A40.9,40.9,0,0,1,50.47,188.6l-4.33,2.05a39.48,39.48,0,0,0-14.86,21.59l-4,1c-.61-.24-1,.62-1.06,1.28a8.51,8.51,0,0,0,2,5.74l-1.35.94a25.91,25.91,0,0,0-3.53,9.64l-2.72.83A70.29,70.29,0,0,1,25,219.26l3.78,5.18c.07.8.15,1.61.22,2.41l-2.75-.79L26,228.84l-.64-.07A22,22,0,0,0,22,246.56l4.91,3.5a77.08,77.08,0,0,1,.89-10.4l-3.67,2a22.16,22.16,0,0,1,.34-6.4l1.63,2a16.9,16.9,0,0,0-.76,7.2l-1.75.7a23.37,23.37,0,0,0,12.76,16.43l.58,0h0l8.06,3.7a9.12,9.12,0,0,0-4.53-2.11l5.72,3.17v-.63q-.37,5.25-.76,10.51l2.91-.54,2-11.2L50,261.25a13.63,13.63,0,0,0-.41-4.4l-.77-.78a26.75,26.75,0,0,0-2.24,8.77l-2.09.83a20.11,20.11,0,0,1,2.38-10.36l-2.87.36a54.7,54.7,0,0,0-1.73,9.58l1,.5a33.33,33.33,0,0,1-13.7-12l1.38,3.86a58,58,0,0,1,2.86-12.81l-3.19-1.58a49.65,49.65,0,0,0-2.07,12.4l-1.23-1.45a31,31,0,0,1-3-25.5l-.84-.46a29.69,29.69,0,0,0,9.25-3.09l-.64.47a11,11,0,0,1,1.77-4.36l1.48.33a12.14,12.14,0,0,0-1.07,4.06l1.46,2.44a3.81,3.81,0,0,1,1-4l-.83.87-11.32,3.51,2.16-.63,0,.87-2.77.69a46.64,46.64,0,0,0,13.29-5.81l-.36.09a4.68,4.68,0,0,1,1.39-4.47l1,.6a2.33,2.33,0,0,0-.8,2.74l-21.6,4.26a109.28,109.28,0,0,1,5.47-16.72l-2.83.39a83.77,83.77,0,0,0-3.88,13.13l.1-28.69a14.58,14.58,0,0,0,5.54-.37l.45-.45-3.22.46,1.36-.09a4.83,4.83,0,0,1-6-1.34l-1.13-.25a37.28,37.28,0,0,1-11.3-21.66L1,172.8a117.13,117.13,0,0,1,9.74-22.89,2.76,2.76,0,0,0-.83,1.4L12.18,154l.62-.83q-5.72,12-10.71,24.23l3.06.37,8.73-19.09,3.42-4A35.28,35.28,0,0,1,20.48,166l-.54,2.65a15.62,15.62,0,0,1,1,7l-1,1.38a71.74,71.74,0,0,0-6.45,14.92,9.5,9.5,0,0,0,1.95-2.55l6.23-10.55a84.11,84.11,0,0,0-5.41,13.39,4,4,0,0,0,2.5-2.55l-2.43-2.84c-6.29-1.94-10.81-7.73-12.71-14s-1.55-13-.73-19.43l.44-1.34q3.27-7.69,7.25-15l2,3.49a122.46,122.46,0,0,0-9.74,21.09l.76-2.73A70.53,70.53,0,0,0,9,185.84a21.22,21.22,0,0,0,3.18,5.64,12.57,12.57,0,0,0,3.48,2.88,12.41,12.41,0,0,1-8.38-6.42l1.37-.19A117.45,117.45,0,0,1,16.45,169l-2.33-4.62.71-.68A118.07,118.07,0,0,0,6.7,183.52l1.85-2.05a5.82,5.82,0,0,0-.92,3.34A7.73,7.73,0,0,0,9,188.71a12.07,12.07,0,0,0,9.89,5.39l.09-.63a87,87,0,0,1,3.32-8.75l4.75,6a29.42,29.42,0,0,0-11.76,16.18l.27,1.16,1.23-5.89A97.67,97.67,0,0,0,13,219.27l.81-2c-1.26-1.25-1.05-3.3-.65-5a50,50,0,0,1,9.36-19.65L23,192q1.55-4.61,3.1-9.21l3.53,2.29c-.14-.51-.27-1-.41-1.53H27.65l-1.23,5.36,1.65-.79a53.45,53.45,0,0,1,28.55-13.29l.05.24a4.63,4.63,0,0,0-1.5,2l-.39-1.54c-.65,1.15-1.3,2.3-1.94,3.45l-2.72-.38a2.14,2.14,0,0,1,.79-1.9l2.44-2.37a97.16,97.16,0,0,0-27.92,17.15l-.15,1.22c5.46-5.23,11.26-10.21,17.89-13.89s14.19-6,21.77-5.59l.18-.43L71.37,162l1.18-.38L66.1,173.24l-.91,1.47c-.88,2.43-1.77,4.87-2.65,7.31l2.66-3.48a30.19,30.19,0,0,0-2.6,7.33l1.45.74A9.3,9.3,0,0,1,65.92,182l1.52,1a7,7,0,0,1-2.83-6.25A14.81,14.81,0,0,1,67,169.94l-.07.91a18.07,18.07,0,0,0,.59,16l5.15,2.43-8,7.42A30.35,30.35,0,0,0,72,229l.13-1.45c-.23,0,0-.41.18-.28s.11.43,0,.65l-3.48,8.46-1.47-.75a14.76,14.76,0,0,1,3.41-7.34l-.68-.7a9.63,9.63,0,0,0-2.35,6l2.78.39a23.2,23.2,0,0,1,3.26-6.78l.19.87-5,11.92,2.85,3.54a79.07,79.07,0,0,0,11.61,18.82l1.73,6.1a1.72,1.72,0,0,0-.58,1.25c.06.47.8.77,1,.35l1.53-.06v-1.2l5.19,1.27,2.52.91-.35,6.55a5.09,5.09,0,0,0-5.3-.44l-4.83-1.45a16,16,0,0,0-7.86,13.93l3-1.17a122.64,122.64,0,0,0-4,16.8l.12.58a45.77,45.77,0,0,1-11.08-3.11l2.31,0A42.78,42.78,0,0,1,49,286.89l1.38-3.64,2-8.8,1.27,2.81c-.16.19.81-1.12.33-.49A32.61,32.61,0,0,0,52,289.26l2.36.4a47.42,47.42,0,0,1,1.79-10.37L51.41,270a28.89,28.89,0,0,0-2,8.49l-1.81.88a49.24,49.24,0,0,1-2.49-10.5c-.1-.78.18-1.91.95-1.75V268a58.19,58.19,0,0,0,3.13,18.44c1.65,4.83,4.72,10,9.82,10.77l-.85-.59c-.38-.39-1.11.16-1,.71a1.92,1.92,0,0,0,1,1.21,57.34,57.34,0,0,0,14.13,6.62l-.15.16a26.28,26.28,0,0,0,9.72,2.88,17.85,17.85,0,0,1-6.63-1.46l7.89,1.53a12.26,12.26,0,0,0-4.21-.59,13.33,13.33,0,0,0,5-.4l.23.82a33.29,33.29,0,0,1,7.08-13.22l.07-.86a30.12,30.12,0,0,1-3.75,7.26l.38-1.06a12.64,12.64,0,0,0-4.91,13.86l0,.48a29,29,0,0,0,18.73,11.64l-2.17-1.09,1.86-.49a.83.83,0,0,0-.91.75.33.33,0,0,0,0,.14,39,39,0,0,0,9.69-3.53l-4.91,2.82a6.27,6.27,0,0,0,3.08-1.55l-1-.57a15.69,15.69,0,0,1-13.8,2.51l.9,1.89a17.49,17.49,0,0,1-10.21-8.33c-1.26-2.34-1.93-5.31-.53-7.56l1.92-1.92c-.24,1.61-.48,3.21-.73,4.82l3.07-3.23-1.25,7.6-.68,2c.4,1.48,1.81,2.45,3.18,3.17A29.06,29.06,0,0,0,101.75,327l-11.37-4.12,1.61-6-2.52-1.62-1.57,7.21-1.8.35c-2.64-.56-3.69-3.72-3.82-6.39A24,24,0,0,1,84,306.23l1-1.78q1.2-3.63,2.42-7.26l.59.44L87,292.3a15.29,15.29,0,0,0,2.4,3.62l-1.73-4.45a5,5,0,0,1,2,5.23l-.38.93a23.13,23.13,0,0,1-7,9.47l-.76.16a92.81,92.81,0,0,1,2.91-14v1.61L85.83,290l-3.17,5.62,1.56-7.21,0-.36a12.07,12.07,0,0,0,7.45,7.24v-.56a13.43,13.43,0,0,1-9.28-7.13l.06-.95a54.29,54.29,0,0,0,7.48,6.39c2.55,1.8,5.94,3.4,8.64,1.85l-.48.42A13,13,0,0,0,88,299.53l-.47.13c.28-1.33.56-2.66.85-4l-2.09-.41a16.93,16.93,0,0,0-1.61,7.6l-1.44-.31,8.18-6c1-.75,2.76-1.37,3.33-.23l2.42-1.74a13.11,13.11,0,0,1-13.52-6l-1,2.25a35,35,0,0,0-2.41,12l-5.13,6.41a38.78,38.78,0,0,1,3.35-12.48L75,296.06l-1.74,9.18L71,304.06a17.89,17.89,0,0,1,.82-7.19l-2.45-3.21q-.87,5.59-1.75,11.18l1-.76L67,303.23a44.36,44.36,0,0,1,9.93,2.63l.83,1.79a94.67,94.67,0,0,1,2.14-9.58l1.57-.41c-.58,3.33-1.15,6.65-1.72,10l1-1.79A19.1,19.1,0,0,0,97.63,325.8l1.68,1.48a95.76,95.76,0,0,1,5.14-18l-1.77.55a2.64,2.64,0,0,1-.92-2.78l-.94.33a3.28,3.28,0,0,0-.43,3.75l.83.15A100.08,100.08,0,0,0,96,328.87l-3.33-.43,3.56-13.52-.73-.81c-1.2-.47-1.4-2.06-1.36-3.35.14-4.78,1.12-9.94,4.68-13.18l8.87-8.89.94-1.55,3.77,1.57a1.27,1.27,0,0,0-.64,1.23l15.71-3.48a20.19,20.19,0,0,1,2.84-7.6l-.6-.18a13.15,13.15,0,0,0,7.05,2.45l.8.53a25.33,25.33,0,0,0-1.22,6.4l-2.91-1.23,1.05-4.64c0-.19.12-.41.31-.42s.16.38,0,.27l1-1.75a3.86,3.86,0,0,1-2.18.48h10l-4.62-.41a9.12,9.12,0,0,0-5.17-.74,22,22,0,0,0,7.37,2.06,29.12,29.12,0,0,1-9-2.08,24.83,24.83,0,0,0,10.07,2.93l-1.8-.43a3.75,3.75,0,0,0,.58,3.67l.13.69-.28,2-6.59,2.14-1.88,6.22a13.51,13.51,0,0,1,14.75-5.65l3.74-3,1.57-.63-1.24-6.83a4.28,4.28,0,0,1,.25-2.5L146.12,263a1.68,1.68,0,0,0-2.19-.51,3.61,3.61,0,0,0-1.56,1.86,10,10,0,0,0-.71,6.09l.49.58a4,4,0,0,0-.3,2.18l5.6-1.23a3.87,3.87,0,0,1-.27-2.47c.27-.79,1.38-1.33,2-.76l4.54.42a16,16,0,0,0-3.44-12.41L162.88,246a18.17,18.17,0,0,1-13.63,5.44,7.61,7.61,0,0,1,4.4-1.21,23.57,23.57,0,0,1-7.81,1.79,7.71,7.71,0,0,1,11.39-.64l.85-2.5c1-4.55,1.9-9.12,2.53-13.74l.56,1.38a70.85,70.85,0,0,0-.15-28.86l.12,7.77a38.53,38.53,0,0,0-1.55-13.62,4.88,4.88,0,0,0,.8,3.74l-1.68-8.24a1.07,1.07,0,0,0-.09,1.51,15.63,15.63,0,0,0-18.1-5.44l2.56-.53a39.77,39.77,0,0,0-.69,7.22l.72,1.23a10,10,0,0,1,.46-6.85l3.27,2.82,0-1.5q-.27,3.54-.52,7.1h2.07c.28-2.93.57-5.87.86-8.8l2.29-5.43A15.13,15.13,0,0,0,153.9,184l-8.05,3a4.16,4.16,0,0,0,.86-3l-.5-2.3a8.43,8.43,0,0,0,1.68-3.67l-3.43-2.86c.22.12.24-.41,0-.4s-.39.3-.46.54l-1,3.23-.48,2.36c-.13-1.33-.25-2.67-.38-4l-1.31-1.19v7.2l-2.83,2a33.5,33.5,0,0,0-.4-8l.11,1.18a4.93,4.93,0,0,1,1.72-4.61l-1.81.21-.71-.76a12.09,12.09,0,0,0-1.34,4.78l.73-.83a7.07,7.07,0,0,0-.29,3.62l-2.08-.81a.94.94,0,0,0-.35-1.21l-1.7-1.59c.14-.66.28-1.33.43-2l.85.41.87-2.33a21.7,21.7,0,0,0-21.05,13.89L112.5,188l4.58-11.45-.57,1,1.67,1.63a73.54,73.54,0,0,0-3.63,11.2l.43-5.1a19.73,19.73,0,0,1,6.74-9.65c3.24-2.32,7.67-3.23,11.37-1.7-2.6-2.23-6.6-1.75-9.79-.46a24.2,24.2,0,0,0-11.58,9.93l1.66-3,1.62-5.6-2.49.38-.81,3.2-2-1.19a6.53,6.53,0,0,1,.83-3.2l-.32-2.14c-5.68-3.82-8.82-10.66-9.19-17.45s1.76-13.52,4.9-19.57c0,.4,0,.81,0,1.21l2.66.76a17.72,17.72,0,0,0-.47,5.18l3.34-4-.16,2.79,2.78,2,1.69-7.18,6.73-5.93c-6.54,3-13.89,6.16-20.76,3.94,2.66,2.88,6.89,4,10.81,3.55A26.45,26.45,0,0,0,123.43,133l.4.28a16.25,16.25,0,0,0-2.42,6.4l2,.8a21.68,21.68,0,0,1,2.42-6.4l3.22-2.86a.7.7,0,0,0,.33-.94l-.09-.14-2.16,7.57,2.74-1.23a23.85,23.85,0,0,1,2-6.8l.43,4.8a3.41,3.41,0,0,1,.8-2.8l1.81.42c-.08,1.06-.16,2.12-.23,3.18l2.17-4.88q-.56-5.31-.63-10.65l-13.25-16a1.49,1.49,0,0,0-.17-1.28l-1.06,1.67-7.1,5.64a48.38,48.38,0,0,0-10.29,15.88l6.53-1.26a3.28,3.28,0,0,1,1.41-2.62L92,121l.24-1-3.76,9.08,2,3.45,1.55-3.07-1.33-.77a9.09,9.09,0,0,1,2.13-5.34H94a15.62,15.62,0,0,1,1.23-11.9L93,111a128,128,0,0,0-5.36,13.47l1.25.79,2.72-8.85c.07-.24.21-.53.47-.53s.18.53,0,.38l-2.49-1.77H87.29a6,6,0,0,1,2.19-3.62l-1.84-1-2.31,3.09-.77-1.53a7.82,7.82,0,0,1-2.24,2.77l-.86-2.64A30,30,0,0,1,52.82,95.45c-1-2-1.74-4.36-.84-6.39l-6.81-.63-.33,2.33-2.78-10a5.63,5.63,0,0,1-.26,3l-2.61,3,.9,11,4.5,3A28.68,28.68,0,0,1,39,120.65l-3.89-1.6-.32,3,.42-17.34a18.79,18.79,0,0,1,.14,4.68l-7.42-.68a15.92,15.92,0,0,0-2.58-12.66L22.86,82,4.61,106.64l1.1,2A85.29,85.29,0,0,1,21.77,74.09c1.25-1.62,2.86-3.33,4.91-3.29l.6.3,1.16-.9A205.2,205.2,0,0,0,11.07,91.1l2.07-4.41a74.23,74.23,0,0,0-10.35,33h.06L1.6,117.37a63.53,63.53,0,0,1,.21,9.15l-.28.52A217.66,217.66,0,0,1,14.29,105l-1.13,6.9-9.95,19,.46-.3a22.89,22.89,0,0,1-1.81-4.92L2.33,127h.53a30.24,30.24,0,0,1,.33-13.68l-.08.32a276.29,276.29,0,0,1,16.19-24l-2.38,6.85A247.41,247.41,0,0,0,1.21,122.08l1.35-1.52a19.6,19.6,0,0,0,2,11.46l-.44-.44a12.92,12.92,0,0,0,11.55,4.07l2.7,4.15a60,60,0,0,1,5.31,10.83A32.71,32.71,0,0,1,24.87,167l8.22-5.29,5.37-17.29a42.88,42.88,0,0,1,4.33-7.25l2.52.59a16.64,16.64,0,0,0-2.92,4l3.37-1.22a27.08,27.08,0,0,1,5.5-6.48H50.1a1.69,1.69,0,0,1-1.44.08,22,22,0,0,1,2.47-5.88l-1.78,4.68,3.56-2.19c-.45.31.37,1.1.67.64l0,2.28q-1.18,2.3-2.35,4.6l4.39-1.87.18-1.13,2.49-.41h.39l.78-1.45a51,51,0,0,1,5.91-26.49l-.15-1.26-8,10.85,2.14,1a101.5,101.5,0,0,0-4.92,12.33l1.05.79a2.75,2.75,0,0,1,.13-2.31l1.14.78a1.13,1.13,0,0,0,.35,1.94l.43-.44a2.18,2.18,0,0,0,.69,2l.68-.07a14.19,14.19,0,0,1-.5-10,42.53,42.53,0,0,1,4.3-9.26c1.25-2.19,2.6-4.49,4.82-5.7l.13-1.67c-2.64,1.67-4.39,4.41-5.73,7.21a41.6,41.6,0,0,0-4,16.34c-.13,3.21.5,7,3.4,8.47l3,7.45a31.41,31.41,0,0,1,6.71.34l-3.36,2.65a37.75,37.75,0,0,0-20.92,6.52l-4-3.59L50.81,147,62.9,165.51v3.83l-2.37,2.29-1.9,3.46L58.15,174l-.46-7.27a3.72,3.72,0,0,0-.92,2.27l-4.9-2.26a72.91,72.91,0,0,0-7,6.42l-.83,3L22.69,193.75l.24-.34c-2.85,1.61-4.5,4.67-5.77,7.67a62.7,62.7,0,0,0-3.34,10.17c-.81,3.45-1.25,7.36.81,10.25l-.36-1.09,3.51-13.94V200.8c-5.44,9.74-3.06,23.1,5.42,30.41l-6-4.48c-.81-.62-1.57-2-.64-2.42l-.13,1a9.6,9.6,0,0,0,6.12,2l-1.38.52a18.81,18.81,0,0,1-8.12-10.52c-.28-.91-.17-2.29.79-2.33l.15-3.65a13.64,13.64,0,0,0,1.6,11.34,2.22,2.22,0,0,0-1.95-2.47,12.53,12.53,0,0,0,5.75,8l-.46.68q2.22-7.2,4.45-14.4l-.1,1.08c-1.67-1.88-1.19-4.78-.39-7.15a40.76,40.76,0,0,1,25.86-25.35l-7-4.37a33,33,0,0,0-20.46,18.18l-1.06-1A49,49,0,0,1,34.08,184l2-.25a46.2,46.2,0,0,1,27-11l.29.85a13.16,13.16,0,0,1,2.71-6c.13-.17.32-.34.52-.28s0,.47-.1.33L66,164.36a14.12,14.12,0,0,0-.79,4.6l-.81-.41-2.29,3.85.12-.16a17.57,17.57,0,0,0-2.72,7.86l2.61-1.54c1-2.31,2.07-4.61,3.1-6.91l1.14.11a37.69,37.69,0,0,1,29.87-10.07l-1.2.36.78-2.3.77-.77,3.09-6.52,1.62.79-3,6.93,1.45,1.11,1.55-3.83-.82,8.75a7.51,7.51,0,0,0-10.06-4.31l-1.14.15c.51-1.4,1-2.81,1.54-4.22l-1.9,0-1.15,2.69-2.38-1.18q1-2.1,2-4.19L85.68,154l-3,6.94,4,2.77a16.83,16.83,0,0,1,16.53,3.9l1.72-1.53a12.83,12.83,0,0,0-1.22,5.2l-1.73-.37a17,17,0,0,1-.66-7.12l0,1.09-.78.28-.39-.39,1.93-4.61.84-.95a7.59,7.59,0,0,0-.06,6.58,14.22,14.22,0,0,0,4.29,5.23,25.54,25.54,0,0,0,16.79,5.51A28.83,28.83,0,0,1,104.13,166a2.72,2.72,0,0,1-.78-1.62c0-.61.58-1.25,1.17-1.08A17.69,17.69,0,0,0,111.1,172c2.8,1.94,6.74,3,9.54,1.06l1.92,1c-.34,3.21-.69,6.41-1,9.62l1,9.62a32.2,32.2,0,0,1,2.67-12.38l-3.56-2.15a15.67,15.67,0,0,0-2.65,6.11l-1.16-2q-1.64,7.78-3.26,15.59l-.9,4.45a10.79,10.79,0,0,0,4.6,6.05l-7,.26a89.4,89.4,0,0,1-5.91-10.55l-8.25,12.17a9.53,9.53,0,0,0-.77,5.21l1.13,1.27a2.45,2.45,0,0,1-.25-3.2l1.92,2.73-5.68,1.6a63.05,63.05,0,0,1,2.09-16l-1.23-4.41a93.22,93.22,0,0,0-2,15.6l-1.74,1.66a49.77,49.77,0,0,0-25.67,35.26l.7,1.06,1.63-4.8,1.26,1.22-2.4,6.41,1.55.77c.55-1.46,1.09-2.93,1.63-4.39l2.12,2-.79,2-1.52,2c.28-.18-.21-.62-.47-.41s-.22.62-.15.94a1,1,0,0,1-.13,1l1.8,1.29c.13-.4.26-.8.4-1.2l1.65.4a6.83,6.83,0,0,1,1.05-4.08l1.31,2.47c-.28,1.33-.56,2.66-.83,4l-1.51.82-.43,1.6,2.31-.07a10,10,0,0,0-1.85,4.08l6.06,4.9c-.27-5.49-4.08-10.21-8.38-13.7s-9.23-6.18-13.17-10a14.5,14.5,0,0,1,3.53,1.39l-20.87,15a69.51,69.51,0,0,1,2.67-11.93l-6.3-2.61c-.3.15-.14-.58.16-.42s.24.61.14.93a41.57,41.57,0,0,0-1.78,11.18l2.57,1.23q1.13-6,2.26-12l.84-.23a16.37,16.37,0,0,1-8.06-19.56l5.48,5.27a13.91,13.91,0,0,0,4.77,9l1-1.27a5.11,5.11,0,0,0,3.72,3.17L45.3,238.4,46.55,240l4.72.3a5.42,5.42,0,0,0,2.83,1.54l1.76-2.24,1,4.32a4.38,4.38,0,0,1-3,1l0,3.92a2.33,2.33,0,0,1-1.73-1.43c3.87,2.62,8.76,3.39,12.69,5.92,5.8,3.73,8.57,10.57,11,17l.08-.6A19.57,19.57,0,0,1,79,262l1.23,2.81a9.75,9.75,0,0,0-2,4.82l2.34,1.18,1.22-4.4,1.26,1.21a2.47,2.47,0,0,0,0,2.84l.32-1.14a10.26,10.26,0,0,0-10.55,6l-.24-.47a19.26,19.26,0,0,0-2.79,7.22l.83.8A26.83,26.83,0,0,1,73.74,274L73,272.87a13,13,0,0,1,2-3.64l-1.87.44a7,7,0,0,1,2.29-4.44l-.91,1.2c.51-2.11,1-4.22,1.52-6.33l7.77-4.26a19,19,0,0,0,5.46,5.8l.61.34a6.21,6.21,0,0,0,3.1,2.86l4.28.82,1.26-4.79,2.36.79.64-.78q-1,2.78-1.94,5.55l1.35,1.64a13.78,13.78,0,0,1,2.21-5.32l3.67,0a36,36,0,0,0-5.08,13.29l0-2.41c.52-4.05,2.34-7.89,3.76-11.7.59-.35,0,.23-.13.5l-.7-.5a4,4,0,0,1,1.77,1.93l1,.58A75.05,75.05,0,0,0,102,279.65l2.94-2.53a21.42,21.42,0,0,1,10.87-21.37l-.67-2.3a25.29,25.29,0,0,0-9.55,20.94l-1.36-.93a29.94,29.94,0,0,1,6.42-16.73,12.49,12.49,0,0,1,4.13-3.62,6,6,0,0,1,5.34-.11l1.53,2.33a29.13,29.13,0,0,0-8,27.84l5.24,1.48a26.09,26.09,0,0,0,1-5.27l-2.12,1.25a27.33,27.33,0,0,1,1.43-6.23l-12.64-2.29a85.35,85.35,0,0,0-3.82,13.94l-2.63,3a6.78,6.78,0,0,1-6-1.21l-1.52-5a7.52,7.52,0,0,0-8.35.72l-14.09-2.81A16.57,16.57,0,0,1,80,269.6a6.27,6.27,0,0,1,3.22-.54,2.77,2.77,0,0,1,2.36,2c-2.32-2-5.94-1.74-8.61-.27s-4.62,3.94-6.48,6.34l.78.86,3.67-7.18.08.84a93,93,0,0,0-6,12.42l-12.46,8.8c.38-2.4.75-4.81,1.13-7.21L60,288.85a11,11,0,0,0-.74,6l2.35,2,1.6-8,3.69,1.21a54.69,54.69,0,0,0-1.68,10l61.37-126.82a1,1,0,0,0,.45,1.17l2.33,1.63c.12-1.33.24-2.67.37-4l27.84-2.32a17.33,17.33,0,0,1,.53,24.13l-.07-1.2,3.66-16.73a20.3,20.3,0,0,0,.71-6.47,7,7,0,0,0-3.19-5.45,2.81,2.81,0,0,0-3.31.13l1.48.8a12.33,12.33,0,0,0-5.57-.88,6.48,6.48,0,0,0,4.11,1l-5.28-1.22a9.68,9.68,0,0,0,5.32,1,6.8,6.8,0,0,0-6.88-1.3,7.87,7.87,0,0,0,5,1.3,3,3,0,0,1,2.11.25,2.48,2.48,0,0,1,.75,1.75q.45,3.12.91,6.26l-5.1,3.86a10.49,10.49,0,0,0-8.59-8.43l3.49-6.46-1.21-.8v-5.6l-1.57-2c-.17,1.86-.34,3.73-.5,5.59l-2.57.37,1.86-9.56,4-1.37A50.08,50.08,0,0,0,146.9,134l.66-5.78c2.29.31,3.44,2.89,4,5.12a47.08,47.08,0,0,1,.72,19.31l5.51-5a17.47,17.47,0,0,1,3.42-6.54l-2.87.84,2.39-5.85L159,134.44a20.09,20.09,0,0,1,2.36-6.43l1.6.38a37.74,37.74,0,0,0-3.7-8,13,13,0,0,0-6.8-5.46l5.23,5.51-.39,1.21,2.07,3.21,1.19-2.81,1.1,1.27a1.62,1.62,0,0,1-.38-1.71c3.81,8.43,2.85,18.12,1.82,27.3l-1.92-2.78A49.33,49.33,0,0,1,156.5,156l1.72-.35-4,9.06-.85,0c.49-.7,1.6-.29,2.26.24,3.28,2.64,5,6.83,5.44,11s-.15,8.36-.77,12.49l2.75-5.37a25.27,25.27,0,0,1-7.23,12.38l.77-.42,1.12,4.16-2,15.21,5.17-6.27a125.68,125.68,0,0,1-.34,22.37l-2.45,3.89a51.42,51.42,0,0,0,1.63-14.4l.53.42a1.71,1.71,0,0,1,1-1.81,67,67,0,0,1-1.4,27.47l.58-2.4a13.39,13.39,0,0,1-1.95,4.57,4.59,4.59,0,0,1-4.36,1.94l-2-4-.34-1.66-7.68-1v1.33l-6,1.33a10.63,10.63,0,0,1,5.3-9.42l6.93.43A43,43,0,0,0,154,222.27a26.18,26.18,0,0,0-3.64-14.81l3.63-.22q.27-4.89.56-9.79c0-.34,0-.78-.35-.87s-.36.64-.08.45l-2-1.78a1.4,1.4,0,0,0,.45-1.08,37.77,37.77,0,0,0-.86,8.68l-15.84,1.06a18,18,0,0,0,5.67,6.35l1.37-4.29a10.77,10.77,0,0,0,5.07,7.86l-1.37,4.08a58.83,58.83,0,0,1,.29,9.66l-2,.14c-4.59.11-8.71,3.17-11.2,7s-3.62,8.35-4.55,12.81l-.51,2.45A9.35,9.35,0,0,1,125,241.9a17.81,17.81,0,0,1,3.09-8.57c2.36-3.72,5.7-7.12,10-8.24l-.39.28a18.52,18.52,0,0,1-3-1.32,17.92,17.92,0,0,1-7.08-24.47l-1.87,1.77c-.2,4.24,0,8.59,1.47,12.57s4.56,7.55,8.65,8.83l.47.85c-8.72-3.65-13.84-14.17-11.3-23.2l.06,6.07a38.7,38.7,0,0,0-1.69,9.18h1.35a11.1,11.1,0,0,1,1.43-4.44l1.27,4.43-.85,3.59,1.52.7a8.82,8.82,0,0,0-1.82,4.52l2.61-2.49a21.67,21.67,0,0,0-2.24,8.48l3.22.4a23.45,23.45,0,0,1,1.86-6.46l-.69-1.55c.09-.38.18-.76.28-1.14a83.78,83.78,0,0,0-3.81,12.37l2,2a85.26,85.26,0,0,1,4.36-11.63l5.07-7.75c-3.33-1.8-5.25-5.51-5.82-9.23s0-7.5.61-11.21c.39-2.43.77-4.86,1.16-7.28l3.71,6.94c2.94-1.93,6.29-3.59,9.82-3.46s7.18,2.56,7.58,6a8.05,8.05,0,0,1-1.59-3.61,37.57,37.57,0,0,1,5.8,11.07l-.68-.27a163.24,163.24,0,0,1-1.67,16.81l36-.81a163.24,163.24,0,0,1-1.67-16.81l-.68.27a37.57,37.57,0,0,1,5.8-11.07,8.14,8.14,0,0,1-1.59,3.62c.4-3.48,4.05-5.92,7.58-6s6.88,1.53,9.82,3.46l3.71-6.94q.58,3.63,1.16,7.28c.59,3.71,1.18,7.49.61,11.21s-2.49,7.43-5.82,9.23l5.07,7.75a85.26,85.26,0,0,1,4.36,11.63l2-2a83.78,83.78,0,0,0-3.81-12.37c.1.38.19.76.28,1.14l-.69,1.55a23.45,23.45,0,0,1,1.86,6.46l3.22-.39a21.5,21.5,0,0,0-2.24-8.49l2.61,2.49a8.82,8.82,0,0,0-1.82-4.52l1.52-.7-.85-3.59,1.27-4.43a11.1,11.1,0,0,1,1.43,4.44h1.35a38.21,38.21,0,0,0-1.69-9.18l.06-6.07c2.54,9-2.58,19.55-11.3,23.2l.47-.85c4.09-1.28,7.14-4.85,8.65-8.83s1.67-8.33,1.47-12.57l-1.87-1.77a17.92,17.92,0,0,1-7.08,24.47,18.52,18.52,0,0,1-3,1.32l-.39-.28c4.29,1.12,7.63,4.52,10,8.24a17.93,17.93,0,0,1,3.08,8.57,9.35,9.35,0,0,1-3.58,8.07l-.5-2.45c-.94-4.46-2.07-9-4.56-12.81s-6.61-6.89-11.2-7l-2-.14a58.83,58.83,0,0,1,.29-9.66L203.81,213a10.77,10.77,0,0,0,5.07-7.86l1.37,4.29a18.07,18.07,0,0,0,5.67-6.34L200.08,202a37.77,37.77,0,0,0-.86-8.68,1.39,1.39,0,0,0,.45,1.08l-2,1.78c.28.19.25-.55-.08-.45s-.37.53-.35.87q.28,4.91.56,9.79l3.63.23a26.13,26.13,0,0,0-3.64,14.8,43,43,0,0,0,3.62,14.95l6.93-.43a10.63,10.63,0,0,1,5.3,9.42l-6-1.33v-1.33l-7.68,1-.34,1.66-2,4a4.59,4.59,0,0,1-4.36-1.94,13.43,13.43,0,0,1-1.95-4.56l.58,2.39a67,67,0,0,1-1.4-27.47,1.71,1.71,0,0,1,1,1.81l.53-.42a51.38,51.38,0,0,0,1.63,14.4l-2.45-3.89a125.68,125.68,0,0,1-.34-22.37l5.17,6.27-2-15.21,1.12-4.16.77.42a25.27,25.27,0,0,1-7.23-12.38l2.75,5.37c-.62-4.13-1.24-8.33-.77-12.48s2.16-8.35,5.44-11c.66-.53,1.78-.94,2.26-.24l-.85,0-4-9.06,1.72.35a49.33,49.33,0,0,1-4.64-9.93l-1.92,2.78c-1-9.18-2-18.87,1.82-27.29a1.6,1.6,0,0,1-.38,1.7l1.1-1.27,1.19,2.81,2.07-3.21-.39-1.21,5.23-5.51a13,13,0,0,0-6.8,5.46,37.74,37.74,0,0,0-3.7,8l1.6-.38a20.35,20.35,0,0,1,2.37,6.43L191,135.3l2.39,5.85-2.87-.84a17.47,17.47,0,0,1,3.42,6.54l5.51,5a47.26,47.26,0,0,1,.72-19.31c.56-2.23,1.71-4.81,4-5.12l.66,5.78a50.11,50.11,0,0,0-.76,14.66l4,1.37L210,158.8l-2.57-.37c-.16-1.86-.33-3.73-.5-5.59l-1.57,2v5.6l-1.21.8,3.49,6.46a10.49,10.49,0,0,0-8.59,8.43l-5.1-3.86c.31-2.09.61-4.17.91-6.26a2.48,2.48,0,0,1,.75-1.75,3.08,3.08,0,0,1,2.11-.25,7.87,7.87,0,0,0,5-1.3,6.78,6.78,0,0,0-6.88,1.31,9.77,9.77,0,0,0,5.32-1l-5.28,1.22a6.48,6.48,0,0,0,4.11-1,12.33,12.33,0,0,0-5.57.88l1.48-.8a2.83,2.83,0,0,0-3.31-.13,7,7,0,0,0-3.19,5.45,20.3,20.3,0,0,0,.71,6.47l3.66,16.73-.07,1.2a17.33,17.33,0,0,1,.53-24.13L222,171.23c.13,1.33.25,2.67.38,4l2.32-1.63a1,1,0,0,0,.45-1.17L204.23,42c-.15-6.14,0-12.48,2.5-18.08S214.84,13.66,221,14l3.26-7.55a7.09,7.09,0,0,1-.83-2.69c.16.36.31.72.46,1.08l2.14-.87a52.22,52.22,0,0,0-19.5,3.62l-.81-.37-1.57-1.56.31,1.59-1.21,1.21a.5.5,0,0,0-.67-.23.48.48,0,0,0-.23.66.47.47,0,0,0,.2.22L201,9.65a46.21,46.21,0,0,0-10.26,17.09L190,28c-.18-1.64.39.54.78,1.41,1.36,3,2.55,6.29,3.66,9.39l-4.37-7.13a49.43,49.43,0,0,0,2.07,18.68l.26-.34a2.48,2.48,0,0,1-.36-2H192l-.81-4.8-.59-.12a16.36,16.36,0,0,0,2.26,9.08,6.62,6.62,0,0,1-1.36-3.91,6,6,0,0,1,.82,3.32l-3-6.67a74.64,74.64,0,0,1,1.28-21.45l3,.94c-.07-.26-.76-1.24-.05-.32a87.08,87.08,0,0,1,4.89,13.12l1.45,2.45a10.57,10.57,0,0,1,2.22-7.38L210,35a19.8,19.8,0,0,1,4.35-8.63l6.88,9.23a11.57,11.57,0,0,0-.48,6l2.61,10c-.07-.46-1,0-.61.32L222.27,54l0,1.58-1.14-2.21q3.32,7.86,6.34,15.84l-.33-3.63q-2.87-7.18-5.72-14.37v-.86A30.14,30.14,0,0,1,246.7,61l3.51-1,5.52,15.65,2,.8q-2-6.37-4-12.74c.13.37.25.75.38,1.12l.55-4.07a115.31,115.31,0,0,0-17.74-10c-2.46-1.12-5.63-2.06-7.65-.27l-.6-.34a15.51,15.51,0,0,1,15.58,3.62l-.64,1.86a53.59,53.59,0,0,1,3.63,10L251,69.2,246.89,58l.7-1.12a27.84,27.84,0,0,0-27.06-6l.53-.08a47.79,47.79,0,0,1,11.3,31.55l-1.93.49a39.92,39.92,0,0,0-6.3-29.19l1.36.37V52.42l2,.4.43,1.59,2.42,1.21a9.72,9.72,0,0,0-.89-3.47l.85,1.07,2.42-.8c-.1-.19-.65-.91-.12-.47.37,1.26.89,2.44,1.33,3.68l3.29,1.58a18,18,0,0,0-1.73-4.76l2.49.77a17,17,0,0,1,2.81,6.41l2,.4c-.39-1.05-2.62-7-2-5.61l10.44.16A137.94,137.94,0,0,0,272.79,83l1.12-.58c-5.84-1.82-10.15-6.66-13.76-11.56-4.39-6-8.19-12.31-12-18.65l0-1.92-8.36-3.09-4.46,1.53a50.28,50.28,0,0,1,24.14,21.81l2.74,2.25,2,9.6-3.23-1.21a71.7,71.7,0,0,1-3.79-14l-1.43.12a34.28,34.28,0,0,1-.58-28l-4.32-1.65a10.6,10.6,0,0,0-.71,5L231.39,41a23.81,23.81,0,0,1,8.75-1.61l2.65-7.24a20.28,20.28,0,0,0-12.1-.95L225.91,30a22.92,22.92,0,0,0-1.23-6.8v-.64l8.9-8.51-.63.29c.29,1,.59,2,.88,2.94a.67.67,0,0,0-.14-.15,1,1,0,0,0-1.33.09l-.78,0A13.75,13.75,0,0,1,243.19,23l-.38-.53-.39-1.1a20.59,20.59,0,0,1,2,4.31l.91-1.61a23,23,0,0,0-16.54-4.4l-.47.79a8,8,0,0,1,2,4.4l-2.84-.4a6.79,6.79,0,0,0-1.54-3.63l-2.41,2.43a21,21,0,0,1,16.81-4.36l.88,1.57,1.2,3.6-5.19-5.23L236,17l2,3.87-2,.8a16.65,16.65,0,0,0-2.48-4c-.69-.71,0,.14.06.39l19.69-14,.83,2.39,3.29-.82-.87-1c.68,1.15,1.37,2.3,2.05,3.46l-9,10.35a9.77,9.77,0,0,0-3.68-2l2.33-6.53a31.32,31.32,0,0,1,29.2,12.53L267.83,38a9.12,9.12,0,0,1-1.13,4l2.53,5A139.25,139.25,0,0,1,278,62.44c1.35,2.77,2.62,6,1.41,8.82l-8.72,9.93c-4.37-2.88-8.8-5.84-12.07-9.9s-5.28-9.47-4-14.52V55.4c-2.06,2.28-.78,5.89.8,8.53A60.2,60.2,0,0,0,272,82l-1,.44c.17,1.2.33,2.4.49,3.59l-2.06-1.59a12.76,12.76,0,0,0-.76-4.42l-1.67,1.22a14.81,14.81,0,0,0-1.22-5.2l-10.26,5.59.33.33-1.2,1.57a30.57,30.57,0,0,0,5.72,8.27,14.87,14.87,0,0,0,8.94,4.37l2,5.06a4,4,0,0,0,3.69-1l-.35-5.21A42.31,42.31,0,0,1,261,91.2l-8,12c-4.55-4.94-9.63-9.55-15.7-12.47S224,86.75,217.63,89l.53,1a29.47,29.47,0,0,1,32.28,8.86l-5.28,4.47a29.77,29.77,0,0,1,4.74,11.63l-2.06,2.91a44.14,44.14,0,0,0-20.53-25.75l.79-.29a.14.14,0,0,1,0-.06.56.56,0,0,1,.37-.7l.83-2.33,1.94,2.68,2.66-.35-2.63-2.88a19.73,19.73,0,0,1,3.1,5.15L232,86.93a54.92,54.92,0,0,0-10.89-35c-.75-1-1.68-2-2.93-2.11L215.9,49c2.61-.3,5,1.54,6.73,3.46a32.94,32.94,0,0,1,8.47,24.43l.48,1.14q-2.76-9.42-5.53-18.84L222.66,62a61.9,61.9,0,0,0-4.43-9.61l-1.17-1.21,2.08,5.58-2.59-4a.38.38,0,0,0-.48-.23.4.4,0,0,0-.23.23l-1.24.79L213.94,57a76.76,76.76,0,0,1,4.72,11.83,25.73,25.73,0,0,1,.59,12.59l-6,2.9A91.09,91.09,0,0,0,211,61.43l1,1.88-17.05,13.1-4-14.8,1-1.62c.92-4.27,4.82-7.16,8.45-9.65.48-.33,1.47-.34,1.3.21l-7.26,3.8c-1,.51-2.06,1.73-1.25,2.45a16,16,0,0,0,4.11-6.55,15.52,15.52,0,0,0-6.52,11.44A13.75,13.75,0,0,0,193,54.76,60.06,60.06,0,0,0,189.64,76l.74,1.26a69.8,69.8,0,0,0,3.51,14.44l-5.75,1.12q1.86,7.83,3.74,15.67l-3.19-1.91a23.14,23.14,0,0,0,1.91,8.59c.43,1,1.25,2.13,2.32,1.91l.7-1c-1.05-2.36-2.09-4.72-3.14-7.09l1.07,4.19q-.74-4.8-1.92-9.51l.67-1.65c-.62-9.26-1.24-18.52-1.1-27.8,0-3.3.23-6.74,1.9-9.59l3.66.66a40.36,40.36,0,0,0-2.14-7.7L194,55.63a7.38,7.38,0,0,1,.81,4l6.45-4.8-1-4.31L201.32,52l2.61-2a6.68,6.68,0,0,0,.61,4.82L207.35,50c-.55,1-2,1-3.21.86-2.46-.25-5.45.12-6.58,2.3l.52-1.15a3.15,3.15,0,0,0,.33,2.42l-1.93.77-.43-2.4,0-3.6q-2.88-7.57-5.75-15.17a3,3,0,0,1,.91,1.57l-.12-.72a67.08,67.08,0,0,1,3.3-14.12l.41-1.14q1.44,4.18,2.89,8.38l3.48-1.33A33.83,33.83,0,0,1,206.1,9.84l2-3.42V5.22l4.49,1.57a.94.94,0,0,1-.29-.86c.1-.3.7-.25.62.06l2.83,0-.41-1.61L215,4c-4.4-.4-8.77,1.33-12.33,3.91s-6.43,6-9.27,9.31l5,2.83-2.07-5.58,2.07-.82,1.22,3.2L201.28,14l-.81-2.8,11.39,1.58c3.14-.87,6.3-1.66,9.49-2.35l.22-2.06-.9-4,.25-.22a9.81,9.81,0,0,1,12,2.45l1.37.42c.2,3.19.4,6.39.59,9.58l-.18-1.36c-.15-1.67-.29-3.35-.44-5L233.64,9a3.8,3.8,0,0,1,0,4.29,11.3,11.3,0,0,1-3.35,3.1L229.18,18l3.19,6.43,1.21-1.6a17.08,17.08,0,0,0-2.16-5.46,2.08,2.08,0,0,0,1,1.44L232,18a4.7,4.7,0,0,0,1-3.36c0,.68,0,1.36,0,2l-.24-1.3a15.24,15.24,0,0,0,0-9.49c-.31-.93-1.24-2-2.05-1.45l-1.4-.71a5.57,5.57,0,0,1,4.92,5.64v-.5a15,15,0,0,1,13-8.34l1.07,2.36a9,9,0,0,0,.59,2l-3.17-1.23-.88-1.46L245.27,4l-2.87.79.21-1.62-1.4-1.65a14.74,14.74,0,0,0-5,6.9h.12l.41.8L238.41,8V6.82l2-.8-.81-3.2.16-1.08c13.43-2.36,27,3,38.81,9.84L278,14a16,16,0,0,1,3.22,5.2l1.17-4a44.4,44.4,0,0,1,3.34,8l3.23-.44-2.85-3.18,4,7.59c.88-.3,1.79.62,1.84,1.54a4.49,4.49,0,0,1-.94,2.55c-2.46,3.92-5.25,8.11-9.65,9.63l0-.06a24.72,24.72,0,0,1,8.42,14.58l-.64-1.35a14.29,14.29,0,0,0-2.58-8.76l.64.11A23.7,23.7,0,0,1,288.58,34l-8.14-2.27A44.51,44.51,0,0,0,265.33,20l-.67,2.65A13.58,13.58,0,0,0,257.61,20l4.33,4.43a32.45,32.45,0,0,1,12.18,10.9l-2.21,3.11a6,6,0,0,1,.39,3.2l3.24.8-.4-2L274,39.87a22.91,22.91,0,0,0,11,.69c1.52-.28,3.42-1.52,2.71-2.88v-.11a9.9,9.9,0,0,0,2-4.26,10.74,10.74,0,0,0-2.92,5.22l-.34-.42a1.76,1.76,0,0,1,1.88-1,20.21,20.21,0,0,1-2.56,4L286,43a23.74,23.74,0,0,0-16.18-4.37l.09.18V40l-.62-1.28a38.13,38.13,0,0,0,11.12,1.93l1.19-.64c.66,2.67,1.33,5.33,2,8l-2-1.21A12.3,12.3,0,0,0,280,42l-2.12-.77.92,3.57,4.77-5.18a119.79,119.79,0,0,0,1.68,13.59l2.92,3.17q-1.33-5.87-2.66-11.73c0-.21-.07-.48.12-.58s.33.34.12.28L286,44a55.91,55.91,0,0,1,3.55,15.61l-1.83,6L290.82,77l-4.49,7a21,21,0,0,1,1.35,12.62l8.3,24.8a77.38,77.38,0,0,0-8.54-14.74.86.86,0,0,0-.1.16.75.75,0,0,0,.37,1l1.5-2.61,2.35,3,1.16-1.53a4.58,4.58,0,0,0-1.54-2.69l2.68-1.13c.25.51.51,1,.77,1.53l1.18-1.16c-.26-1-.51-2-.77-3.07l-3.15-.55c-3,5.66-9.45,9-15.87,9.76s-12.92-.66-19.12-2.5l2.3-.4-.06,1a29.73,29.73,0,0,0,21.23,2.1l-1,2.23c2.68,5.9,5.4,12.41,3.63,18.63l-33,14.24a94.53,94.53,0,0,1,6.29,11.08l2.22.81a9.9,9.9,0,0,1,.92,4.58L244,170.81a1,1,0,0,0-.35,1.21l2.78.82a6,6,0,0,0-1.18-4.42L247,168a26,26,0,0,1,29.6-4.24l-.52-1.32a38.84,38.84,0,0,0-3.07-8.47l-3.9-.75,3.87,8.06,1.33.24.58.21a17.11,17.11,0,0,1,10,22.14l-.54.91,2.12,6.07-2.29-.39-1.35-1.18a25,25,0,0,0,2.77-16.78c-.49-2.6-2.21-5.65-4.85-5.31l2.13.26a17.26,17.26,0,0,0-1.55-8L279.45,164a23.8,23.8,0,0,0-2.6-7.69l3.91-4.68a49.68,49.68,0,0,1,9.75,3.95l3.11-1.8A124.29,124.29,0,0,1,321.18,176l14.44-1.52c.2-.21-.29-.48-.47-.26s-.07.55,0,.82a95.79,95.79,0,0,1,4.42,13l5,1.17c5.36-11.16,5.08-24.06,4.71-36.42-.06-1.7-.15-3.52-1.17-4.88l1.21,1.95A101.15,101.15,0,0,0,344.67,137a4.23,4.23,0,0,0-1.17-1.74,1.51,1.51,0,0,0-1.95,0l.23-.43,4.77,8.76,3.81,22.74a87.86,87.86,0,0,0-8.15-33.7c-.38-.81-1.14-1.78-2-1.41l.09.92c.25-.28.73.19.58.53a1.19,1.19,0,0,1-.94.53,14.51,14.51,0,0,1-7.13-.59l1.41.27c5.1.4,11.09.43,14.25-3.55l-.44-.88.8-1.41-2.67,5-.09-1-4.68,4.3-.14.16a1.27,1.27,0,0,1-1.79,0l-3.38-2.09-.48.48h3.22l-1.16-2.25a31.77,31.77,0,0,0-3.56-7.26l-1.52,1.51a19.46,19.46,0,0,1,2.31,7.68l-.19.73a9.42,9.42,0,0,0,7.49-.07l-1.44-.91,1-.21a71.58,71.58,0,0,0-4.56-9.86l1.2-4.63,6.94,12.71-1.9-1.57,6.23-6.36a47.91,47.91,0,0,0-4.3-23.76l-4.17-4.49q-6.81-10-14.38-19.53L323.43,80a3.57,3.57,0,0,0-2,.33l0-1.68-.39-1.23a18.59,18.59,0,0,0,1.78,12.27c.92,1.74,2.12,3.33,3,5.08a37.11,37.11,0,0,1,3,9.19c.91,4,1.81,8.07.91,12l.75,12.57c0-.34-.62-.27-.69.07s.18.64.34.94.22.75-.08.91l-1.74,1.25v-3.07l-6.57,6.52c-.37-.77-.75-1.54-1.13-2.31l-2.31-1.54c.9,2.05,1.8,4.09,2.71,6.14l1.35,1a4.49,4.49,0,0,1,1.52-3.89,53.33,53.33,0,0,0-4.8,11.67,19.65,19.65,0,0,0,.64,12.41l-.71.66a22.78,22.78,0,0,0-3.41-7l2.63-.33-3.48-6.52-.4,2.31,5.19,8.34-2.87,1.05a33,33,0,0,1,7.71-22.74,12.17,12.17,0,0,0-4.81,8.36,26.7,26.7,0,0,0,.77,9.81l1.12-1.08-5.93-8.74-.75-.79a31.47,31.47,0,0,1,4.61,8.08l.41-1.92-.78-.77-1.38-1.23q-2.24-4.72-4.49-9.44l4.65,5.73-1.16-.75.92.93-4.93-7.78-6.48-1c-3.92-.85-7.9-1.71-11.9-1.44s-8.1,1.81-10.55,4.95l-.74.9a20.36,20.36,0,0,1,13.5-4.41,32.65,32.65,0,0,1,13.9,3.8c3.4,1.72,6.68,3.94,8.76,7.11l1.13-.88q-4.09-6.84-8.6-13.39l3.17.33a37,37,0,0,1,6.22,10.38l5.08-1.7a18.6,18.6,0,0,0-2.39,9.3l-.28-1.16c-2.82-5.55-8.19-9.57-14.09-11.69s-12.31-2.48-18.57-2.08A43.21,43.21,0,0,0,279.38,136l-2.66-3.46c2-5.29.07-11.25-2.58-16.28a12.51,12.51,0,0,1,2.59,3.65l-7.28-1.72a34.51,34.51,0,0,1,3.06,19.71l-5.84-1.36a15.12,15.12,0,0,1-5,6l4.36,3a11.3,11.3,0,0,1-4.72,2.29l-1,.39a5.88,5.88,0,0,0-3.4.88l-3,1a80.12,80.12,0,0,0-6.45-11.87l1.48,2.64.43-2.33c.12.14-1.13-1.09-.44-.45a62.26,62.26,0,0,1,3.93,6.59l.77-2.3-1.94-4.22,1.94-1.15c.39.76.77,1.53,1.16,2.3l2.34-.39-1.12-2.7,1.88-.75V134.1c.38,1.24.77,2.49,1.16,3.73L256.44,133c-1.31,2-4,2.69-6.38,3.05a80.88,80.88,0,0,1-17.59.69l-2.31-2.58c2.27-.42,4.57.32,6.8.9a51.11,51.11,0,0,0,15,1.57c2.55-.12,5.62-.82,6.38-3.23a31.39,31.39,0,0,1-14.08,5c-5,.36-10.33-1.12-13.9-4.64l1-2.25.07.3q1.26,6.09,2.54,12.19l7.11,2.16a18.07,18.07,0,0,1-.7,11.78c-1.69,3.64-5.34,6.54-9.38,6.6l1.4-6.72a8,8,0,0,0,2.34-4l-4-3.66a17.14,17.14,0,0,1-5.3,8.72l-7.1-.38a5.93,5.93,0,0,0,2.29-2.37l1.67-1.68a7.18,7.18,0,0,0,1.12-5.29l.94-6.65a4.84,4.84,0,0,1-.31-2.66l-9.67,1.39a15.89,15.89,0,0,1-3.32,13c-1,1.22-2.28,2.45-2.3,4,6.2-4,8.09-13.29,3.94-19.35l-.91.27a3.11,3.11,0,0,0,0-.32l2.42,13.92.82-4.8a87.11,87.11,0,0,0-4.19-13.86l1,1.42.42-1.69a25.74,25.74,0,0,1,2.55,11.62c-.22,4-2,8-5.39,10.26l3.43,3a92.05,92.05,0,0,0-4.48-16.29l-10.54-12.28a9.88,9.88,0,0,1,.66-4.66l.84-4.35c-.28-.85-.57-1.7-.86-2.55a4.38,4.38,0,0,0,.38,3.38l-1.18-.42-1.6-2.81,1.07-1.81a1.75,1.75,0,0,1,1.15-2.08,4.16,4.16,0,0,1,2.61.12,12.86,12.86,0,0,1,6.26,4.3l-1.73-1c0-2-2-3.5-4-3.74a10.56,10.56,0,0,0-5.72,1.33c-2.24,1-4.65,2.69-4.83,5.14a.87.87,0,0,0,.72-.91q-1.11,8.42-1.4,16.91l0-.92,2,24.66h.12a11.79,11.79,0,0,0-1.15-6.48l-.66,2.83a13.84,13.84,0,0,0,2.31,4.56l1,.88A74.89,74.89,0,0,1,187,132.56l-22.27.81a74.89,74.89,0,0,1-6.89,30.08l1-.88a14,14,0,0,0,2.3-4.56l-.65-2.83a11.69,11.69,0,0,0-1.16,6.48h.12l2-24.66,0,.92q-.28-8.49-1.4-16.91a.87.87,0,0,0,.72.91c-.18-2.45-2.59-4.09-4.83-5.14a10.56,10.56,0,0,0-5.72-1.33c-2,.24-3.91,1.77-4,3.74l-1.73,1a12.8,12.8,0,0,1,6.26-4.3,4.16,4.16,0,0,1,2.61-.12,1.73,1.73,0,0,1,1.15,2.07l1.07,1.82-1.6,2.81-1.18.42a4.38,4.38,0,0,0,.38-3.38l-.86,2.55.84,4.35a9.89,9.89,0,0,1,.67,4.66l-10.55,12.28a91.82,91.82,0,0,0-4.48,16.29l3.43-3c-3.35-2.22-5.17-6.27-5.39-10.27a25.72,25.72,0,0,1,2.55-11.61l.42,1.69,1-1.42a86.8,86.8,0,0,0-4.19,13.86l.82,4.8,2.42-13.92a3.11,3.11,0,0,0,0,.32l-.91-.27c-4.15,6.06-2.26,15.36,3.94,19.34,0-1.57-1.29-2.81-2.3-4a15.89,15.89,0,0,1-3.32-13l-9.67-1.4a4.87,4.87,0,0,1-.31,2.67l.94,6.64a7.19,7.19,0,0,0,1.12,5.3l1.67,1.68a5.93,5.93,0,0,0,2.29,2.37l-7.1.38A17.14,17.14,0,0,1,121,151l-4,3.66a8,8,0,0,0,2.34,4l1.4,6.72c-4-.06-7.69-3-9.38-6.6a18.14,18.14,0,0,1-.7-11.78l7.11-2.16q1.27-6.09,2.54-12.19l.07-.3,1,2.24c-3.57,3.53-8.87,5-13.9,4.65a31.39,31.39,0,0,1-14.08-5c.76,2.41,3.83,3.11,6.38,3.22a50.45,50.45,0,0,0,15-1.57c2.23-.57,4.53-1.31,6.8-.89l-2.31,2.58a80.88,80.88,0,0,1-17.59-.69c-2.41-.36-5.07-1-6.38-3.05l-2.61,4.83c.39-1.24.78-2.49,1.16-3.73v1.43l1.88.75-1.12,2.7,2.34.39c.39-.77.77-1.54,1.16-2.3l1.94,1.15-1.94,4.22.77,2.3a62.26,62.26,0,0,1,3.93-6.59c.69-.64-.55.59-.44.45l.43,2.33,1.48-2.64A80.12,80.12,0,0,0,97.85,151l-3-1a5.88,5.88,0,0,0-3.4-.88l-1-.39a11.28,11.28,0,0,1-4.73-2.29l4.36-3a15.12,15.12,0,0,1-5-6l-5.84,1.36A34.51,34.51,0,0,1,82.3,119L75,120.72a12.51,12.51,0,0,1,2.59-3.65c-2.65,5-4.61,11-2.58,16.28l-2.66,3.46a43.21,43.21,0,0,0-11.44-2.07c-6.26-.4-12.67,0-18.57,2.08S31.09,143,28.27,148.51L28,149.67a18.6,18.6,0,0,0-2.39-9.3l5.08,1.7a37,37,0,0,1,6.22-10.38l3.17-.33q-4.51,6.55-8.6,13.39l1.13.88c2.08-3.18,5.36-5.39,8.76-7.11a32.65,32.65,0,0,1,13.9-3.8,20.36,20.36,0,0,1,13.5,4.41l-.74-.9c-2.45-3.14-6.55-4.69-10.55-4.95s-8,.59-11.9,1.44l-6.48,1-4.93,7.78.92-.92-1.15.75,4.64-5.73q-2.25,4.73-4.49,9.44l-1.38,1.23-.78.77.41,1.92a31.47,31.47,0,0,1,4.61-8.08l-.75.79-5.93,8.74,1.12,1.08a26.7,26.7,0,0,0,.77-9.81,12.17,12.17,0,0,0-4.81-8.37A33,33,0,0,1,35.05,158L32.18,157l5.19-8.34-.4-2.31-3.48,6.52,2.63.33a22.66,22.66,0,0,0-3.41,7l-.71-.66a19.65,19.65,0,0,0,.64-12.41,53.33,53.33,0,0,0-4.8-11.67,4.48,4.48,0,0,1,1.52,3.88l1.35-1c.91-2.05,1.81-4.09,2.71-6.14l-2.31,1.54c-.38.77-.76,1.54-1.13,2.31l-6.57-6.52v3.07l-1.74-1.25c-.3-.16-.25-.61-.08-.91s.41-.61.34-1-.7-.4-.69-.06L22,116.76c-.9-4,0-8.07.91-12a37.11,37.11,0,0,1,3-9.19c.93-1.75,2.12-3.34,3-5.09a18.56,18.56,0,0,0,1.78-12.26l-.39,1.22,0,1.69a3.57,3.57,0,0,0-2-.33L25,76.47Q17.38,86,10.57,96L6.4,100.49a47.91,47.91,0,0,0-4.3,23.76l6.23,6.36-1.9,1.57,6.94-12.71,1.2,4.63A71.58,71.58,0,0,0,10,134l1,.21-1.44.91a9.42,9.42,0,0,0,7.49.07l-.19-.73a19.46,19.46,0,0,1,2.31-7.68l-1.52-1.51a32.19,32.19,0,0,0-3.56,7.26l-1.16,2.24h3.22l-.48-.48-3.38,2.1a1.27,1.27,0,0,1-1.79,0,1.15,1.15,0,0,1-.14-.17l-4.68-4.29-.08,1q-1.35-2.52-2.67-5c.26.47.52.94.79,1.41l-.44.88c3.16,4,9.15,3.94,14.25,3.55l1.41-.27a14.51,14.51,0,0,1-7.13.59,1.19,1.19,0,0,1-.94-.53c-.15-.34.33-.81.58-.53l.09-.92c-.83-.37-1.59.6-2,1.41a87.86,87.86,0,0,0-8.15,33.7L5.2,144.4,10,135.63l.23.44a1.51,1.51,0,0,0-1.95,0,4.23,4.23,0,0,0-1.17,1.74,100.6,100.6,0,0,0-4.73,12.94l1.21-1.95c-1,1.36-1.11,3.18-1.16,4.88C2,166,1.74,178.91,7.1,190.07l5-1.17a95.79,95.79,0,0,1,4.42-13c.12-.27.22-.6,0-.82s-.67.05-.47.26l14.44,1.52a124.29,124.29,0,0,1,27.56-22.31l3.11,1.8a49.68,49.68,0,0,1,9.75-4l3.91,4.67a23.94,23.94,0,0,0-2.6,7.7l-1.91-4.56a17.24,17.24,0,0,0-1.55,8L71,168c-2.64-.34-4.36,2.71-4.85,5.31A25,25,0,0,0,68.89,190l-1.35,1.18-2.29.39,2.12-6.07-.54-.92a17.11,17.11,0,0,1,10-22.13l.58-.21,1.33-.24L82.61,154l-3.9.75a38.84,38.84,0,0,0-3.07,8.47l-.52,1.32a26,26,0,0,1,29.6,4.24l1.74.47a6,6,0,0,0-1.18,4.42l2.78-.82a1,1,0,0,0-.35-1.21l-15.46-9.56a9.9,9.9,0,0,1,.92-4.58l2.22-.81a96,96,0,0,1,6.29-11.08l-33-14.24c-1.77-6.22,1-12.73,3.63-18.63l-1-2.23a29.79,29.79,0,0,0,21.23-2.1l-.06-1,2.3.4c-6.2,1.84-12.69,3.27-19.11,2.49s-12.84-4.09-15.88-9.75l-3.15.55c-.26,1-.51,2-.77,3.07l1.18,1.16.78-1.53,2.67,1.13A4.55,4.55,0,0,0,59,107.56l1.16,1.53,2.35-3,1.51,2.61a.74.74,0,0,0,.36-1,.86.86,0,0,0-.1-.16,77.38,77.38,0,0,0-8.54,14.74l8.3-24.8a21,21,0,0,1,1.35-12.62l-4.49-7L64,66.47l-1.83-6a55.91,55.91,0,0,1,3.55-15.61l.28.34c-.21.06-.07-.38.12-.28s.17.37.13.58L63.57,57.2,66.49,54a119.68,119.68,0,0,0,1.68-13.6l4.77,5.19.92-3.57-2.12.77a12.29,12.29,0,0,0-1.57,4.81l-2,1.21c.67-2.67,1.34-5.33,2-8l1.19.64a38.13,38.13,0,0,0,11.12-1.93l-.62,1.28v-1.2l.09-.18a23.74,23.74,0,0,0-16.18,4.37L66,42a20.21,20.21,0,0,1-2.56-4,1.76,1.76,0,0,1,1.88,1l-.33.42a10.84,10.84,0,0,0-2.93-5.22,10,10,0,0,0,2,4.26v.11c-.71,1.36,1.19,2.6,2.71,2.88a22.91,22.91,0,0,0,11-.69l-1.19.55-.4,2,3.24-.8a6,6,0,0,1,.39-3.2l-2.21-3.11a32.45,32.45,0,0,1,12.18-10.9l4.33-4.43a13.58,13.58,0,0,0-7,2.71l-.67-2.65A44.51,44.51,0,0,0,71.31,32.49l-8.14,2.27a23.7,23.7,0,0,1,1.44,11.46l.64-.11a14.36,14.36,0,0,0-2.58,8.76L62,56.22a24.77,24.77,0,0,1,8.42-14.58l0,.06C66,40.18,63.24,36,60.78,32.07a4.49,4.49,0,0,1-.94-2.55c0-.92,1-1.84,1.84-1.54l4-7.59-2.85,3.18,3.23.44a44.4,44.4,0,0,1,3.34-8l1.17,4a16.17,16.17,0,0,1,3.22-5.21l-.6-2.43C85,5.57,98.55.19,112,2.55l.16,1.08-.81,3.2,2,.8v1.2L115,10.05l.41-.8h.12a14.74,14.74,0,0,0-5-6.9L109.14,4l.21,1.62-2.87-.79.43-1.89L106,4.4l-3.17,1.23a9,9,0,0,0,.59-2l1.07-2.36a15,15,0,0,1,13,8.34v.5a5.58,5.58,0,0,1,4.92-5.64l-1.4.71c-.81-.56-1.74.52-2,1.45a15.24,15.24,0,0,0,0,9.49l-.24,1.3c0-.68,0-1.36,0-2a4.7,4.7,0,0,0,1,3.36l-.4.84a2.08,2.08,0,0,0,1-1.44,17.08,17.08,0,0,0-2.16,5.46l1.22,1.6,3.18-6.43-1.11-1.63a11.14,11.14,0,0,1-3.35-3.09,3.8,3.8,0,0,1,0-4.29l-.61,1.28c-.15,1.67-.29,3.35-.44,5l-.18,1.36c.2-3.19.39-6.39.59-9.58l1.37-.42a9.81,9.81,0,0,1,12-2.45l.25.22-.9,4,.22,2.06c3.19.69,6.35,1.48,9.49,2.35L151.28,12l-.81,2.8,1.64,2.81,1.21-3.2,2.07.82-2.07,5.58,5-2.84c-2.84-3.34-5.71-6.72-9.27-9.3s-7.93-4.31-12.32-3.91l-.36.44L136,6.84l2.83,0c-.08-.31.52-.36.62-.06a.94.94,0,0,1-.29.86L143.61,6v1.2l2,3.42A33.83,33.83,0,0,1,150.6,27.5l3.49,1.33L157,20.45l.41,1.14a67.08,67.08,0,0,1,3.3,14.12l-.12.72a3,3,0,0,1,.91-1.57q-2.86,7.59-5.75,15.17l0,3.6-.43,2.4-1.93-.77a3.15,3.15,0,0,0,.33-2.42l.52,1.15c-1.13-2.19-4.12-2.55-6.58-2.3-1.18.13-2.66.18-3.21-.86l2.81,4.78a6.73,6.73,0,0,0,.62-4.82l2.6,2,1.08-1.48-1,4.31,6.45,4.8a7.44,7.44,0,0,1,.81-4l1.39,1.92a40.36,40.36,0,0,0-2.14,7.7l3.66-.66c1.67,2.85,1.86,6.29,1.91,9.59.13,9.27-.49,18.54-1.11,27.8l.67,1.65c-.79,3.13-1.43,6.31-1.92,9.51l1.07-4.19c-1.05,2.37-2.09,4.73-3.14,7.09l.7,1c1.07.22,1.89-.92,2.33-1.91a23.17,23.17,0,0,0,1.9-8.59l-3.18,1.91q1.86-7.84,3.73-15.67l-5.75-1.12A69.8,69.8,0,0,0,161.37,78l.74-1.26a60.06,60.06,0,0,0-3.34-21.21A13.75,13.75,0,0,0,161,62.5a15.52,15.52,0,0,0-6.52-11.44,16,16,0,0,0,4.11,6.55c.81-.73-.28-1.94-1.25-2.45l-7.26-3.8c-.17-.55.82-.54,1.3-.21,3.63,2.49,7.53,5.38,8.46,9.65l1,1.62-4,14.8-17.05-13.1,1-1.88a91.09,91.09,0,0,0-2.24,22.86l-6-2.9a25.73,25.73,0,0,1,.59-12.59,76.76,76.76,0,0,1,4.72-11.83l-.66-3.35-1.24-.79a.4.4,0,0,0-.23-.23.38.38,0,0,0-.48.23l-2.59,4L134.69,52l-1.17,1.21a60.93,60.93,0,0,0-4.42,9.61L125.7,60q-2.76,9.42-5.53,18.84l.48-1.14a32.94,32.94,0,0,1,8.47-24.43c1.77-1.92,4.12-3.76,6.73-3.47l-2.31.84c-1.24.07-2.18,1.12-2.93,2.11a54.92,54.92,0,0,0-10.89,35l-2.32,6.35a19.73,19.73,0,0,1,3.1-5.15l-2.63,2.88,2.66.35,1.94-2.68.83,2.33a.58.58,0,0,1,.38.7l0,.06.79.28a44.19,44.19,0,0,0-20.53,25.76l-2.06-2.91a29.77,29.77,0,0,1,4.74-11.63l-5.28-4.47a29.47,29.47,0,0,1,32.28-8.86l.53-1c-6.36-2.22-13.56-1.14-19.63,1.78S103.34,99.09,98.79,104l-8-12A42.31,42.31,0,0,1,77,95.86l-.35,5.21a4,4,0,0,0,3.69,1l2-5.06a14.87,14.87,0,0,0,8.94-4.37A30.83,30.83,0,0,0,97,84.33l-1.21-1.57.33-.33L85.9,76.84A14.58,14.58,0,0,0,84.69,82L83,80.82a12.76,12.76,0,0,0-.76,4.42l-2.06,1.59c.16-1.2.33-2.39.49-3.59l-1-.44A60.3,60.3,0,0,0,96.4,64.74c1.58-2.64,2.86-6.25.8-8.53v1.37c1.24,5.05-.76,10.45-4,14.52s-7.7,7-12.07,9.9l-8.72-9.93c-1.21-2.83.06-6.06,1.41-8.82a140.32,140.32,0,0,1,8.73-15.37l2.53-5a9,9,0,0,1-1.12-4L74.38,23.21a31.32,31.32,0,0,1,29.2-12.53l2.33,6.53a9.77,9.77,0,0,0-3.68,2l-9-10.35c.68-1.16,1.37-2.31,2-3.46l-.87,1,3.29.82.83-2.39,19.69,14c.08-.25.75-1.1.06-.39a16.65,16.65,0,0,0-2.48,4l-2-.8,2-3.87-1.27,1.85-5.19,5.23,1.2-3.6.88-1.57A21,21,0,0,1,128.22,24l-2.4-2.43a6.73,6.73,0,0,0-1.55,3.63l-2.84.4a8,8,0,0,1,2-4.4l-.47-.79a22.91,22.91,0,0,0-16.54,4.4l.91,1.6a20.75,20.75,0,0,1,2-4.3l-.39,1.1-.38.53A13.77,13.77,0,0,1,120.17,18l-.78.05a1,1,0,0,0-1.33-.09.67.67,0,0,0-.14.15c.29-1,.59-2,.88-2.94l-.63-.29,8.9,8.51V24a22.92,22.92,0,0,0-1.23,6.8L121.06,32a20.36,20.36,0,0,0-12.1,1l2.65,7.24a23.81,23.81,0,0,1,8.75,1.61l-18.83,1.71a10.47,10.47,0,0,0-.71-5L96.5,40.15a34.28,34.28,0,0,1-.58,28l-1.43-.12A71.89,71.89,0,0,1,90.7,82l-3.23,1.21,2-9.6,2.74-2.25a50.28,50.28,0,0,1,24.14-21.81L111.91,48l-8.36,3.09,0,1.92C99.8,59.39,96,65.74,91.6,71.7,88,76.6,83.68,81.44,77.84,83.26l1.12.58a137.94,137.94,0,0,0,21.52-28.45l10.44-.16c.6-1.38-1.63,4.55-2,5.6l2-.4a17,17,0,0,1,2.81-6.4l2.49-.77A18,18,0,0,0,114.49,58l3.29-1.59c.44-1.23,1-2.41,1.33-3.67.53-.44,0,.27-.12.47l2.42.8.86-1.07a9.53,9.53,0,0,0-.9,3.47l2.42-1.21.43-1.59,2-.4v1.61l1.36-.37a39.92,39.92,0,0,0-6.3,29.19l-1.93-.49a47.79,47.79,0,0,1,11.3-31.55l.53.08a27.84,27.84,0,0,0-27.06,6l.7,1.12L100.76,70l3.7-3.57a54,54,0,0,1,3.63-10l-.64-1.85A15.54,15.54,0,0,1,123,51l-.6.35c-2-1.79-5.19-.85-7.65.27A115.31,115.31,0,0,0,97,61.56l.55,4.07c.13-.37.25-.75.38-1.13q-2,6.38-4,12.75l2-.8,5.52-15.65,3.51,1a30.14,30.14,0,0,1,25.25-10.6V52q-2.85,7.2-5.72,14.38L124.24,70q3-8,6.34-15.84l-1.14,2.21.05-1.58L129,52.77c.34-.31-.54-.77-.61-.31l2.61-10a11.67,11.67,0,0,0-.47-6l6.87-9.23a19.8,19.8,0,0,1,4.35,8.63l7.86-2.74a10.52,10.52,0,0,1,2.22,7.38L153.3,38a87.08,87.08,0,0,1,4.89-13.12c.71-.92,0,.06-.05.32l3-.94a74.62,74.62,0,0,1,1.28,21.45l-3,6.67a5.88,5.88,0,0,1,.83-3.32A6.7,6.7,0,0,1,158.92,53a16.28,16.28,0,0,0,2.26-9.08l-.59.12-.81,4.8h-.05a2.48,2.48,0,0,1-.36,2l.26.34A49.23,49.23,0,0,0,161.7,32.5l-4.37,7.13c1.11-3.1,2.31-6.37,3.66-9.39.39-.87,1-3,.78-1.41l-.8-1.28a46.13,46.13,0,0,0-10.26-17.09l-1.53-.57a.56.56,0,0,0,.21-.22.49.49,0,0,0-.24-.66.5.5,0,0,0-.67.23L147.27,8l.32-1.59L146,8l-.81.37a52,52,0,0,0-19.5-3.62l2.14.87c.15-.36.3-.72.46-1.08a7.09,7.09,0,0,1-.83,2.69l3.26,7.54c6.18-.3,11.75,4.38,14.29,10s2.65,11.94,2.5,18.08L39.88,48l5.28-12.39,3.16.39.2-1.58-1.69.41L44.6,41.59l1.52-.44A3.81,3.81,0,0,0,48,40.22a54.85,54.85,0,0,0-8.81,16.85l-2.91-2.22q2.55-9.16,5.8-18.09l-1,.92c2.12-2.77,4.62-5.42,7.85-6.77s7.35-1.09,9.81,1.39l-1.62-.62a2.83,2.83,0,0,1,.57-3.18h-.21a9.36,9.36,0,0,1,5.26,8.11l1.3.84a11.41,11.41,0,0,1-.67-15.57l-.34.14A90.61,90.61,0,0,1,75.74,11.47c4.64-3,10-5.15,15.48-5.31l.33-.53q-1.2,2.4-2.42,4.8L87.5,7.62c-.68,1.2-1.35,2.4-2,3.6l-2.72-1.16q-.84,2.38-1.7,4.77L76.21,16,79,10.43l-2.17,1.86A23.5,23.5,0,0,0,59.7,27l0,1.45V30l.81.8,1.72-.16A6.46,6.46,0,0,0,53,29.79L51.52,34c.14-.67.28-1.33.41-2l2.08.81a1,1,0,0,1-.38-1.19l.71-.53c-4.78-.49-9.09,2.76-12.45,6.16A69.24,69.24,0,0,0,30.8,52c-2.06,3.68-3.83,7.84-3.15,12l2.18-.36a87.72,87.72,0,0,1,3.93-16.83l-3.4,3.94a53.48,53.48,0,0,0-2.88,16.09l1.18-1.35a5.57,5.57,0,0,0,6.73,3.33l1.43.29A14.29,14.29,0,0,0,24.5,71.87l.82-.4-7,7.28-1.74-.57a50.92,50.92,0,0,1,10-9c1.78-1.22,4.23-2.32,6-1l-1.84,1.4a8.48,8.48,0,0,1-3.61-6.76A16.75,16.75,0,0,1,29,55.15a33.84,33.84,0,0,1,8.32-11.27l1.12-3.81q-2.88,10-5.75,20L48.8,71.3a2.06,2.06,0,0,0-1.92-1.73,27,27,0,0,0,3.79,4l.42-.42a14.76,14.76,0,0,0-11.49-5.2L41,70.4c0-.39-.7,0-.45.34s.72.17,1.07,0l3.45-1.43.07.54a57.18,57.18,0,0,0-11.53-2.15v-.54H32.37a35.13,35.13,0,0,0,10.91.87l2.87-4.29a14.65,14.65,0,0,1-1.66-4.36,4.87,4.87,0,0,1,1.28-4.32l6,3.39a12,12,0,0,1,1.55-13.55l.87-.8,2-3.23a2,2,0,0,1-.29,1.23l6.79,4.08a18,18,0,0,1,11.49-6.88l-1,1.13A19.33,19.33,0,0,0,62.36,51.3l22,8.76A6.87,6.87,0,0,0,82.5,63.8l1.26,1.33-2,3.33L80,72.09A136.61,136.61,0,0,0,88.4,57.77l20.86,13.67-.88-1.87A11.73,11.73,0,0,1,109.55,75,10.2,10.2,0,0,1,108,78.94a44.12,44.12,0,0,1-3.79,5.51l1,2-1.42,1.95,3.92,7.05c-2.11-.65-4.15,1.06-5.63,2.68-5.2,5.73-9.78,13.1-8.45,20.7l1.06-.52c-.47-4.11-.93-8.32,0-12.36s3.52-7.94,7.46-9.32l-2.82.56a49.32,49.32,0,0,1,29.1-7.55l1.8,0A8.39,8.39,0,0,0,124,87.17a19.71,19.71,0,0,0-6.7,1.47A59.55,59.55,0,0,0,103,96.24l.1-.27c4.1-3.38,8.68-6.49,13.93-7.44s11.29.74,14.12,5.22l-.39,2.18c1.35,3.45,0,7.35-1.72,10.63a46.61,46.61,0,0,1-6.81,9.67l-.26-1.56a1.34,1.34,0,0,0,1,1.43,25.48,25.48,0,0,0,8.94-16.92,2.9,2.9,0,0,0-.55-2.43c-.62-.6-2-.24-1.88.61a2,2,0,0,0,.5.88c1.44,1.94.58,4.65-.33,6.88L125,116.57l3.28.17a67.1,67.1,0,0,0,4.87-9.65l-1.71,2.78-1.17-.77.9-1.37q-3.73,7.13-7.88,14l-1.83-.34a71.2,71.2,0,0,1,5.8-10.6l.79-2.48a31.77,31.77,0,0,1,8.41-2.12,10.61,10.61,0,0,1,8,2.56.92.92,0,0,1,.38.85c-.08.31-.68.34-.66,0l.76-.16a9.94,9.94,0,0,0-.81,3.84l-3.5-4.24-.76,1.54,2,1.55.8-2.29.91,1.15-2.76-2.58,3.59,1.86a83.49,83.49,0,0,1-10.95-5l5.09,2,.94-.2a12.16,12.16,0,0,0-3.1,5L133,114.09a40,40,0,0,1,4.24-7.3l3.58-4.72-.39-6,9.25,7.28a59.6,59.6,0,0,1-4.13-32.25v-3l.34-.33,2.36-3a91.65,91.65,0,0,1,4.7,19.31l4.68-.09q2.16-6.89,4.3-13.77c0-.08.05-.17.08-.25l-.84,0c-.1-1-.21-2-.31-3.07a168.79,168.79,0,0,1,.75,21.33l-.74.57c.75-.25,1.23.78,1.33,1.55a74.09,74.09,0,0,1-1.3,26.13l-.17-1.33A162.16,162.16,0,0,0,162,86.82l.63-1.16q-1.8,7.32-3,14.76l32.51-.81q-1.24-7.44-3-14.76l.63,1.16a161.19,161.19,0,0,0,1.34,28.29l-.18,1.33a74.09,74.09,0,0,1-1.3-26.13c.1-.77.58-1.79,1.33-1.55l-.74-.57a167,167,0,0,1,.76-21.33c-.11,1-.22,2-.32,3.07l-.84,0c0,.09.05.17.08.25q2.15,6.89,4.3,13.77l4.68.09A91.65,91.65,0,0,1,203.52,64l2.36,3,.34.33v3a59.6,59.6,0,0,1-4.13,32.25l9.25-7.28-.39,6,3.58,4.72a40,40,0,0,1,4.24,7.3l-3.44-1.93a12.16,12.16,0,0,0-3.1-5l.94.2,5.09-2a82.2,82.2,0,0,1-10.95,5l3.59-1.86-2.76,2.58.91-1.15.8,2.3,2-1.56c-.25-.52-.51-1-.76-1.54l-3.5,4.24a9.8,9.8,0,0,0-.81-3.84l.76.16c0,.33-.58.31-.66,0a.92.92,0,0,1,.38-.85,10.61,10.61,0,0,1,8-2.56,31.77,31.77,0,0,1,8.41,2.12l.79,2.48a71.2,71.2,0,0,1,5.8,10.6l-1.83.34q-4.14-6.92-7.88-14l.9,1.37-1.17.77-1.71-2.78a67.1,67.1,0,0,0,4.87,9.65l3.28-.17-4.68-11.45c-.91-2.23-1.77-4.94-.33-6.88a2,2,0,0,0,.5-.88c.12-.85-1.26-1.21-1.88-.61a2.9,2.9,0,0,0-.55,2.43,25.46,25.46,0,0,0,8.94,16.92,1.34,1.34,0,0,0,1-1.43l-.26,1.56a46.61,46.61,0,0,1-6.81-9.67c-1.72-3.28-3.07-7.17-1.72-10.63L220.57,93c2.83-4.49,8.87-6.18,14.12-5.23s9.83,4.06,13.93,7.44l.11.27a60.16,60.16,0,0,0-14.32-7.6,19.71,19.71,0,0,0-6.7-1.47,8.43,8.43,0,0,0-6.22,2.43l1.81,0a49.3,49.3,0,0,1,29.09,7.55l-2.82-.56c3.94,1.38,6.53,5.29,7.46,9.32s.46,8.25,0,12.36l1.06.52c1.33-7.6-3.25-15-8.45-20.7-1.48-1.62-3.52-3.33-5.63-2.68l3.92-7.05-1.42-1.95,1-2a44.12,44.12,0,0,1-3.79-5.51,10.14,10.14,0,0,1-1.53-3.92,11.73,11.73,0,0,1,1.17-5.45l-.88,1.87L263.35,57a137.5,137.5,0,0,0,8.38,14.31L270,67.65l-2-3.33L269.26,63a7,7,0,0,0-1.85-3.74l22-8.76a19.33,19.33,0,0,0-10.75-10.83l-1-1.13a18,18,0,0,1,11.49,6.88l6.79-4.08a2,2,0,0,1-.29-1.22l2,3.22.87.8A12,12,0,0,1,300,57.68l6-3.39a4.87,4.87,0,0,1,1.28,4.32A14.65,14.65,0,0,1,305.6,63l2.87,4.29a35.43,35.43,0,0,0,10.91-.86h-1.24v.53a57.18,57.18,0,0,0-11.53,2.15l.07-.54L310.13,70c.35.14.82.27,1.07,0s-.44-.72-.45-.34l1.4-2.46a14.83,14.83,0,0,0-11.49,5.2l.42.42a27,27,0,0,0,3.79-4A2.07,2.07,0,0,0,303,70.49l16.16-11.26q-2.88-10-5.75-20l1.12,3.81a33.94,33.94,0,0,1,8.32,11.27A16.75,16.75,0,0,1,324.59,62,8.48,8.48,0,0,1,321,68.77l-1.84-1.4c1.74-1.28,4.19-.18,6,1a51.15,51.15,0,0,1,10,9l-1.73.57-7-7.28.82.4a14.29,14.29,0,0,0-12.32-2.76l1.43-.29a5.57,5.57,0,0,0,6.73-3.33L324.27,66a53.48,53.48,0,0,0-2.88-16.09L318,46a87.72,87.72,0,0,1,3.93,16.83l2.18.36c.68-4.16-1.09-8.32-3.15-12a69.24,69.24,0,0,0-11.09-14.73c-3.36-3.4-7.67-6.65-12.44-6.16l.7.53a1,1,0,0,1-.38,1.19l2.08-.81c.14.67.27,1.33.41,2L298.79,29a6.46,6.46,0,0,0-9.23.88l1.72.16.81-.8v-1.6l0-1.45a23.48,23.48,0,0,0-17.16-14.69l-2.17-1.86,2.82,5.6L270.69,14q-.85-2.38-1.7-4.77l-2.72,1.16c-.67-1.2-1.34-2.4-2-3.6l-1.63,2.81q-1.22-2.4-2.42-4.8l.33.53c5.53.16,10.85,2.33,15.48,5.31A91.39,91.39,0,0,1,288.7,21.22l-.35-.14a11.41,11.41,0,0,1-.67,15.57l1.3-.84a9.36,9.36,0,0,1,5.26-8.11H294a2.83,2.83,0,0,1,.57,3.18l-1.62.62c2.46-2.48,6.57-2.73,9.81-1.39s5.73,4,7.85,6.77l-1-.92q3.25,8.92,5.8,18.09l-2.91,2.22a54.85,54.85,0,0,0-8.81-16.85,3.81,3.81,0,0,0,1.91.93l1.52.44-2.23-6.73-1.69-.41.2,1.58,3.16-.39,5.28,12.39"/><text/><rect class="cls-3" x="169.62" y="160.52" width="179.95" height="179.95" rx="89.97"/><rect class="cls-4" x="241.87" y="248.49" width="29.53" height="29.53" rx="14.76"/><text class="cls-5" transform="translate(488.48 325.66)">S<tspan class="cls-6" x="5.99" y="0">c</tspan><tspan class="cls-7" x="11.29" y="0">ena</tspan><tspan class="cls-8" x="29.75" y="0">r</tspan><tspan class="cls-7" x="33.72" y="0">io </tspan></text><text class="cls-9" transform="translate(459.56 352.72) scale(1.12 1)">TYPE: BrainChip </text><line class="cls-10" x1="329.07" y1="307.84" x2="376.86" y2="345.57"/><line class="cls-10" x1="448.32" y1="345.96" x2="375.7" y2="345.23"/></g></g></svg>