<svg xmlns="http://www.w3.org/2000/svg" viewBox="0 0 2082.5 1287.72"><defs><style>.cls-1{font-size:50px;fill:#fff;font-family:MyriadPro-Regular, Myriad Pro;}.cls-2{letter-spacing:-0.07em;}.cls-3{letter-spacing:-0.01em;}.cls-4{letter-spacing:0.01em;}.cls-5{font-size:30px;}.cls-6{letter-spacing:0.02em;}.cls-7{letter-spacing:-0.01em;}.cls-8{letter-spacing:0em;}.cls-9{letter-spacing:-0.01em;}.cls-10{letter-spacing:-0.01em;}.cls-11{letter-spacing:-0.01em;}.cls-12{letter-spacing:-0.01em;}.cls-13{letter-spacing:0em;}.cls-14{letter-spacing:-0.01em;}.cls-15{letter-spacing:0.01em;}.cls-16{letter-spacing:-0.01em;}.cls-17{letter-spacing:-0.01em;}.cls-18{letter-spacing:0.02em;}.cls-19{letter-spacing:-0.01em;}.cls-20{letter-spacing:0em;}.cls-21{letter-spacing:-0.01em;}.cls-22{letter-spacing:0.02em;}.cls-23{letter-spacing:0.02em;}.cls-24{letter-spacing:-0.01em;}.cls-25{letter-spacing:0.01em;}.cls-26{letter-spacing:0em;}.cls-27{letter-spacing:0em;}.cls-28{letter-spacing:-0.01em;}.cls-29{letter-spacing:-0.04em;}.cls-30{letter-spacing:-0.02em;}.cls-31{letter-spacing:0em;}.cls-32{letter-spacing:0.03em;}.cls-33{letter-spacing:-0.04em;}.cls-34{letter-spacing:0em;}.cls-35{letter-spacing:0em;}.cls-36{letter-spacing:0em;}.cls-37{letter-spacing:0em;}.cls-38{letter-spacing:0.01em;}.cls-39{letter-spacing:0em;}.cls-40{letter-spacing:0.01em;}.cls-41{letter-spacing:0.01em;}.cls-42{letter-spacing:-0.03em;}.cls-43{letter-spacing:-0.07em;}.cls-44,.cls-45{fill:none;stroke:#fff;stroke-miterlimit:10;}.cls-44{stroke-width:5px;}.cls-45{stroke-width:6px;}</style></defs><g id="Layer_2" data-name="Layer 2"><g id="Layer_1-2" data-name="Layer 1"><text class="cls-1"><tspan class="cls-2" x="72.37" y="97.11">T</tspan><tspan class="cls-3" x="93.67" y="97.11">o</tspan><tspan x="120.42" y="97.11">xici</tspan><tspan class="cls-4" x="189.37" y="97.11">t</tspan><tspan x="206.37" y="97.11">y </tspan><tspan class="cls-5"><tspan x="72.37" y="133.11">Each nanopa</tspan><tspan class="cls-6" x="233.8" y="133.11">r</tspan><tspan x="244.33" y="133.11">ticle is uniqu</tspan><tspan class="cls-7" x="402.07" y="133.11">e</tspan><tspan x="416.74" y="133.11">, and it is </tspan><tspan x="72.37" y="169.11">seen th</tspan><tspan class="cls-8" x="163.9" y="169.11">a</tspan><tspan x="178.24" y="169.11">t sometimes mo</tspan><tspan class="cls-9" x="379.66" y="169.11">r</tspan><tspan x="389.17" y="169.11">e than one </tspan><tspan x="72.37" y="205.11">of the same nanopa</tspan><tspan class="cls-6" x="320.44" y="205.11">r</tspan><tspan x="330.97" y="205.11">ticles sh</tspan><tspan class="cls-10" x="430.24" y="205.11">o</tspan><tspan x="446.5" y="205.11">w in</tspan><tspan x="498.61" y="205.11">-</tspan><tspan class="cls-11" x="72.37" y="241.11">c</tspan><tspan x="85.63" y="241.11">onsis</tspan><tspan class="cls-12" x="149.53" y="241.11">t</tspan><tspan x="159.28" y="241.11">e</tspan><tspan class="cls-13" x="174.31" y="241.11">n</tspan><tspan x="190.84" y="241.11">t p</tspan><tspan class="cls-9" x="224.2" y="241.11">r</tspan><tspan x="233.71" y="241.11">ope</tspan><tspan class="cls-6" x="282.28" y="241.11">r</tspan><tspan x="292.81" y="241.11">ties and e</tspan><tspan class="cls-14" x="412.45" y="241.11">ff</tspan><tspan x="429.55" y="241.11">e</tspan><tspan class="cls-15" x="444.58" y="241.11">c</tspan><tspan x="458.41" y="241.11">t</tspan><tspan class="cls-16" x="468.34" y="241.11">s</tspan><tspan x="479.89" y="241.11">. </tspan><tspan class="cls-17" x="72.37" y="277.11">T</tspan><tspan x="87.07" y="277.11">hese nanopa</tspan><tspan class="cls-18" x="247.78" y="277.11">r</tspan><tspan x="258.31" y="277.11">ticles can h</tspan><tspan class="cls-19" x="396.61" y="277.11">a</tspan><tspan class="cls-9" x="410.83" y="277.11">v</tspan><tspan x="424.96" y="277.11">e dan</tspan><tspan x="494.38" y="277.11">-</tspan><tspan x="72.37" y="313.11">ge</tspan><tspan class="cls-9" x="104.17" y="313.11">r</tspan><tspan x="113.68" y="313.11">ous e</tspan><tspan class="cls-14" x="179.95" y="313.11">ff</tspan><tspan x="197.05" y="313.11">e</tspan><tspan class="cls-15" x="212.08" y="313.11">c</tspan><tspan x="225.91" y="313.11">ts on human health both </tspan><tspan x="72.37" y="349.11">in the sho</tspan><tspan class="cls-6" x="195.37" y="349.11">r</tspan><tspan x="205.9" y="349.11">t and long </tspan><tspan class="cls-12" x="339.91" y="349.11">t</tspan><tspan x="349.66" y="349.11">e</tspan><tspan class="cls-20" x="364.69" y="349.11">r</tspan><tspan x="374.62" y="349.11">m.</tspan></tspan></text><text class="cls-1"><tspan x="70.5" y="747.11">Drug deli</tspan><tspan class="cls-21" x="263" y="747.11">v</tspan><tspan x="286.55" y="747.11">e</tspan><tspan class="cls-22" x="311.6" y="747.11">r</tspan><tspan x="329.2" y="747.11">y </tspan><tspan class="cls-5"><tspan x="70.5" y="783.11">Nanoscale molecules a</tspan><tspan class="cls-9" x="354.45" y="783.11">r</tspan><tspan x="363.96" y="783.11">e being de</tspan><tspan class="cls-9" x="496.19" y="783.11">v</tspan><tspan x="510.32" y="783.11">el</tspan><tspan x="532.43" y="783.11">-</tspan><tspan x="70.5" y="819.11">oped </tspan><tspan class="cls-11" x="142.35" y="819.11">t</tspan><tspan x="152.1" y="819.11">o imp</tspan><tspan class="cls-9" x="224.04" y="819.11">r</tspan><tspan class="cls-10" x="233.55" y="819.11">o</tspan><tspan class="cls-9" x="249.81" y="819.11">v</tspan><tspan x="263.94" y="819.11">e the pha</tspan><tspan class="cls-20" x="381.48" y="819.11">r</tspan><tspan x="391.41" y="819.11">ma</tspan><tspan class="cls-12" x="430.89" y="819.11">c</tspan><tspan x="444.15" y="819.11">odynam</tspan><tspan x="547.79" y="819.11">-</tspan><tspan x="70.5" y="855.11">ic and pha</tspan><tspan class="cls-20" x="199.89" y="855.11">r</tspan><tspan x="209.82" y="855.11">ma</tspan><tspan class="cls-12" x="249.3" y="855.11">c</tspan><tspan x="262.56" y="855.11">o</tspan><tspan class="cls-23" x="279.03" y="855.11">k</tspan><tspan x="293.61" y="855.11">inetic p</tspan><tspan class="cls-24" x="386.13" y="855.11">r</tspan><tspan x="395.64" y="855.11">ope</tspan><tspan class="cls-18" x="444.21" y="855.11">r</tspan><tspan x="454.74" y="855.11">ties of </tspan><tspan x="70.5" y="891.11">drug</tspan><tspan class="cls-16" x="130.53" y="891.11">s</tspan><tspan x="142.08" y="891.11">.</tspan><tspan class="cls-25" x="70.5" y="927.11">I</tspan><tspan x="77.97" y="927.11">mp</tspan><tspan class="cls-9" x="120.06" y="927.11">r</tspan><tspan class="cls-17" x="129.57" y="927.11">o</tspan><tspan class="cls-9" x="145.83" y="927.11">v</tspan><tspan x="159.96" y="927.11">eme</tspan><tspan class="cls-8" x="215.04" y="927.11">n</tspan><tspan x="231.57" y="927.11">t of drug bio</tspan><tspan class="cls-19" x="386.4" y="927.11">a</tspan><tspan class="cls-8" x="400.62" y="927.11">v</tspan><tspan x="414.93" y="927.11">ailabili</tspan><tspan class="cls-4" x="496.13" y="927.11">t</tspan><tspan x="506.33" y="927.11">y is </tspan><tspan x="70.5" y="963.11">one of the vital nano</tspan><tspan class="cls-11" x="328.08" y="963.11">t</tspan><tspan x="337.83" y="963.11">echnology appli</tspan><tspan x="539.57" y="963.11">-</tspan><tspan x="70.5" y="999.11">c</tspan><tspan class="cls-8" x="83.94" y="999.11">a</tspan><tspan x="98.28" y="999.11">tion</tspan><tspan class="cls-16" x="148.35" y="999.11">s</tspan><tspan x="159.9" y="999.11">.</tspan></tspan></text><text class="cls-1"><tspan class="cls-26" x="1511.37" y="85.11">G</tspan><tspan x="1543.92" y="85.11">ene the</tspan><tspan class="cls-27" x="1701.72" y="85.11">r</tspan><tspan x="1717.82" y="85.11">a</tspan><tspan class="cls-28" x="1741.92" y="85.11">p</tspan><tspan x="1770.02" y="85.11">y</tspan><tspan class="cls-5"><tspan x="1511.37" y="121.11">Nano</tspan><tspan class="cls-11" x="1578.69" y="121.11">t</tspan><tspan x="1588.44" y="121.11">echnology applic</tspan><tspan class="cls-8" x="1803.63" y="121.11">a</tspan><tspan x="1817.97" y="121.11">tion </tspan><tspan class="cls-14" x="1874.4" y="121.11">f</tspan><tspan x="1882.77" y="121.11">or disor</tspan><tspan x="1977.51" y="121.11">-</tspan><tspan x="1511.37" y="157.11">ders can be the </tspan><tspan class="cls-9" x="1708.71" y="157.11">r</tspan><tspan x="1718.22" y="157.11">esult of a de</tspan><tspan class="cls-14" x="1869.39" y="157.11">f</tspan><tspan x="1877.76" y="157.11">e</tspan><tspan class="cls-15" x="1892.79" y="157.11">c</tspan><tspan x="1906.62" y="157.11">ti</tspan><tspan class="cls-9" x="1923.57" y="157.11">v</tspan><tspan x="1937.7" y="157.11">e </tspan><tspan x="1511.37" y="193.11">gen</tspan><tspan class="cls-7" x="1559.82" y="193.11">e</tspan><tspan x="1574.49" y="193.11">.</tspan><tspan class="cls-29" x="1580.7" y="193.11"> </tspan><tspan class="cls-30" x="1585.98" y="193.11">W</tspan><tspan x="1610.88" y="193.11">ith the help of i</tspan><tspan class="cls-8" x="1799.61" y="193.11">n</tspan><tspan x="1816.14" y="193.11">t</tspan><tspan class="cls-31" x="1826.07" y="193.11">r</tspan><tspan x="1835.73" y="193.11">a</tspan><tspan class="cls-12" x="1850.19" y="193.11">c</tspan><tspan x="1863.45" y="193.11">ellular gene </tspan><tspan x="1511.37" y="229.11">deli</tspan><tspan class="cls-9" x="1557.42" y="229.11">v</tspan><tspan x="1571.55" y="229.11">e</tspan><tspan class="cls-32" x="1586.58" y="229.11">r</tspan><tspan class="cls-33" x="1597.14" y="229.11">y</tspan><tspan x="1610.1" y="229.11">, the </tspan><tspan class="cls-34" x="1670.64" y="229.11">e</tspan><tspan class="cls-35" x="1685.58" y="229.11">xp</tspan><tspan class="cls-9" x="1716.54" y="229.11">r</tspan><tspan x="1726.05" y="229.11">ession of a pa</tspan><tspan class="cls-6" x="1895.28" y="229.11">r</tspan><tspan x="1905.81" y="229.11">ticular </tspan><tspan x="1511.37" y="265.11">gene m</tspan><tspan class="cls-19" x="1606.23" y="265.11">a</tspan><tspan x="1620.45" y="265.11">y be al</tspan><tspan class="cls-12" x="1700.94" y="265.11">t</tspan><tspan x="1710.69" y="265.11">e</tspan><tspan class="cls-9" x="1725.72" y="265.11">r</tspan><tspan x="1735.23" y="265.11">e</tspan><tspan class="cls-9" x="1750.26" y="265.11">d</tspan><tspan x="1766.88" y="265.11">, and a de</tspan><tspan class="cls-14" x="1886.61" y="265.11">f</tspan><tspan x="1894.98" y="265.11">e</tspan><tspan class="cls-15" x="1910.01" y="265.11">c</tspan><tspan x="1923.84" y="265.11">ti</tspan><tspan class="cls-9" x="1940.79" y="265.11">v</tspan><tspan x="1954.92" y="265.11">e </tspan><tspan x="1511.37" y="301.11">gene can be </tspan><tspan class="cls-11" x="1670.58" y="301.11">c</tspan><tspan x="1683.84" y="301.11">o</tspan><tspan class="cls-36" x="1700.31" y="301.11">r</tspan><tspan class="cls-9" x="1710.24" y="301.11">r</tspan><tspan x="1719.75" y="301.11">e</tspan><tspan class="cls-15" x="1734.78" y="301.11">c</tspan><tspan class="cls-12" x="1748.61" y="301.11">t</tspan><tspan class="cls-37" x="1758.36" y="301.11">e</tspan><tspan class="cls-24" x="1773.39" y="301.11">d</tspan><tspan x="1790.01" y="301.11">.</tspan></tspan></text><text class="cls-1"><tspan class="cls-38" x="1505.37" y="747.11">M</tspan><tspan x="1546.17" y="747.11">isuse</tspan><tspan class="cls-5"><tspan x="1505.37" y="783.11" xml:space="preserve"> Nanomedicine can be used neg</tspan><tspan class="cls-8" x="1906.08" y="783.11">a</tspan><tspan x="1920.42" y="783.11">ti</tspan><tspan class="cls-9" x="1937.37" y="783.11">v</tspan><tspan x="1951.5" y="783.11">e</tspan><tspan x="1966.53" y="783.11">-</tspan><tspan x="1505.37" y="819.11">l</tspan><tspan class="cls-6" x="1512.45" y="819.11">y</tspan><tspan x="1527.3" y="819.11">; the</tspan><tspan class="cls-9" x="1581.48" y="819.11">r</tspan><tspan x="1590.99" y="819.11">e </tspan><tspan class="cls-9" x="1612.38" y="819.11">r</tspan><tspan x="1621.89" y="819.11">emains the need </tspan><tspan class="cls-12" x="1836.27" y="819.11">t</tspan><tspan x="1846.02" y="819.11">o be </tspan><tspan class="cls-39" x="1907.31" y="819.11">e</tspan><tspan class="cls-15" x="1922.25" y="819.11">x</tspan><tspan x="1936.53" y="819.11">t</tspan><tspan class="cls-31" x="1946.46" y="819.11">r</tspan><tspan x="1956.12" y="819.11">a </tspan><tspan x="1505.37" y="855.11">cautious </tspan><tspan class="cls-9" x="1617.99" y="855.11">r</tspan><tspan x="1627.5" y="855.11">ega</tspan><tspan class="cls-9" x="1673.76" y="855.11">r</tspan><tspan x="1683.27" y="855.11">ding its us</tspan><tspan class="cls-7" x="1810.59" y="855.11">e</tspan><tspan x="1825.26" y="855.11">. </tspan><tspan class="cls-40" x="1837.83" y="855.11">S</tspan><tspan x="1852.8" y="855.11">ome of </tspan><tspan x="1505.37" y="891.11">the medicines a</tspan><tspan class="cls-9" x="1702.17" y="891.11">r</tspan><tspan x="1711.68" y="891.11">e mic</tspan><tspan class="cls-9" x="1778.55" y="891.11">r</tspan><tspan class="cls-41" x="1788.06" y="891.11">o</tspan><tspan x="1804.98" y="891.11">-si</tspan><tspan class="cls-17" x="1833.09" y="891.11">z</tspan><tspan x="1845.72" y="891.11">e</tspan><tspan class="cls-9" x="1860.75" y="891.11">d</tspan><tspan x="1877.37" y="891.11">, they </tspan><tspan x="1505.37" y="927.11">can be embedded inside a</tspan><tspan class="cls-14" x="1834.38" y="927.11">n</tspan><tspan class="cls-9" x="1850.64" y="927.11">y</tspan><tspan x="1864.47" y="927.11">on</tspan><tspan class="cls-42" x="1897.59" y="927.11">e</tspan><tspan class="cls-43" x="1911.87" y="927.11">’</tspan><tspan x="1915.92" y="927.11">s </tspan><tspan x="1505.37" y="963.11">body leading </tspan><tspan class="cls-11" x="1676.61" y="963.11">t</tspan><tspan x="1686.36" y="963.11">o misuse of the o</tspan><tspan class="cls-36" x="1898.94" y="963.11">r</tspan><tspan x="1908.87" y="963.11">i</tspan><tspan class="cls-11" x="1915.89" y="963.11">g</tspan><tspan x="1932.48" y="963.11">inal </tspan><tspan x="1505.37" y="999.11">pu</tspan><tspan class="cls-20" x="1538.97" y="999.11">r</tspan><tspan x="1548.9" y="999.11">pose of these medicine</tspan><tspan class="cls-16" x="1838.31" y="999.11">s</tspan><tspan x="1849.86" y="999.11">. </tspan></tspan></text><rect class="cls-44" x="5.5" y="15.72" width="631.5" height="400.5" rx="65.35"/><rect class="cls-44" x="1448.5" y="15.72" width="631.5" height="400.5" rx="65.35"/><rect class="cls-44" x="1430.5" y="665.72" width="631.5" height="400.5" rx="65.35"/><rect class="cls-44" x="2.5" y="665.72" width="631.5" height="400.5" rx="65.35"/><polyline class="cls-45" points="637 249.17 741.42 249.17 835.36 393.72"/><polyline class="cls-45" points="637.5 248.72 741.92 248.72 835.86 393.28"/><polyline class="cls-45" points="636.5 938.28 740.92 938.28 834.86 793.72"/><polyline class="cls-45" points="1430.5 933.72 1326.08 933.72 1232.14 789.17"/><polyline class="cls-45" points="1448.5 248.72 1344.08 248.72 1250.14 393.28"/></g></g></svg>