<svg xmlns="http://www.w3.org/2000/svg" viewBox="0 0 902.17 430.72"><defs><style>.cls-1,.cls-2,.cls-6{isolation:isolate;}.cls-2{font-size:21.88px;}.cls-2,.cls-3,.cls-6{fill:#fff;}.cls-2,.cls-5,.cls-6{stroke:#fff;}.cls-2,.cls-5,.cls-6,.cls-7{stroke-miterlimit:10;}.cls-2,.cls-6{font-family:Helvetica;}.cls-3{font-size:49px;font-family:Helvetica-Light, Helvetica;font-weight:300;}.cls-4{fill:#5dbca6;}.cls-5,.cls-7{fill:none;stroke-width:3px;}.cls-5{opacity:0.65;}.cls-6{font-size:31px;}.cls-7{stroke:#5dbca6;}</style></defs><g id="Layer_2" data-name="Layer 2"><g id="Layer_1-2" data-name="Layer 1"><g class="cls-1"><text class="cls-2" transform="translate(233.71 299.7)">70%</text></g><text class="cls-3" transform="translate(437.28 204.79) scale(1.12 1)">Soldiers with<tspan x="0" y="58.8">Nanotechnology</tspan></text><g id="Group_135" data-name="Group 135"><g id="Group_134" data-name="Group 134"><path id="Path_4330" data-name="Path 4330" class="cls-4" d="M97.32,59.35a125.75,125.75,0,0,1,41-6.49"/></g></g><path class="cls-5" d="M27.26,116A119,119,0,0,0,1.54,188.8h0c-1.3,55.12,31.63,102.42,84,120.7L127.2,191.76Z"/><g class="cls-1"><text class="cls-2" transform="translate(190.76 193.08)">55%</text></g><text class="cls-6" transform="translate(30.99 223.16)">20%</text><path id="Path_4327" data-name="Path 4327" class="cls-7" d="M428.84,213.7H331.67"/><path class="cls-4" d="M160.82,177.86,105.86,347a169.32,169.32,0,0,0,55,8.7h1.32c96.21-.08,175.25-77.07,177.66-173.25A177.87,177.87,0,0,0,160.82,0h0s-35.43,0-55,8.7h0A170.4,170.4,0,0,0,16.93,73.32L156,175.5h0l1.91,1.41,2.38,1.75"/><g class="cls-1"><text class="cls-6" transform="translate(215.09 176.86)">70%</text></g></g></g></svg>