<svg xmlns="http://www.w3.org/2000/svg" viewBox="0 0 442.02 292.76"><defs><style>.cls-1,.cls-2,.cls-3,.cls-4,.cls-5,.cls-6{fill:#fff;stroke:#fff;stroke-miterlimit:10;}.cls-2{stroke-width:4px;}.cls-3{stroke-width:5px;}.cls-4{stroke-width:3px;}.cls-5{font-size:31.99px;font-family:MyriadPro-Regular, Myriad Pro;}.cls-6{stroke-width:0.25px;}</style></defs><g id="Layer_2" data-name="Layer 2"><g id="Layer_1-2" data-name="Layer 1"><path class="cls-1" d="M92.39,221.86c3.12,1.44,6.27,2.85,9.36,4.34a2.2,2.2,0,0,0,2.28,0c1.91-1,3.89-2,5.79-3,1.59-.87,3.12-2.1,4.61.49l.16-.51L113,221.3c1.44-.78,2.84-1.55,4.26-2.29q19.15-9.9,38.3-19.82a3.3,3.3,0,0,1,3.49.06q15.19,7.92,30.48,15.71c1.63.82,3,1.64,3.29,3.43A12.84,12.84,0,0,0,194,221l-2.55-1.26c-10.88-5.61-21.78-11.19-32.64-16.84a2.91,2.91,0,0,0-3.05,0c-9.81,5.1-19.66,10.14-29.47,15.24-2.3,1.19-4.5,2.55-6.79,3.76-4.44,2.33-8.89,4.66-13.4,6.89A2.14,2.14,0,0,0,104.7,231c0,8.35,0,16.7,0,25,0,8.75,0,17.49,0,26.23a2.08,2.08,0,0,0,1.37,2.13q25,12.82,50,25.73a2.41,2.41,0,0,0,2.57,0c4.76-2.52,9.55-5,14.34-7.45q9-4.67,18.09-9.31c.83-.43,1.68-.91,2.58-.13l1,.83c.53,1.08-.41,1.41-1.17,1.8l-19.46,10c-5.07,2.62-10.16,5.22-15.21,7.89a2.65,2.65,0,0,1-2.84,0q-25.87-13.39-51.79-26.74a2.17,2.17,0,0,0-2.38,0c-10.22,5.63-20.47,11.21-30.89,16.9l-1.86-2.77,10.74-5.9c6.77-3.7,13.56-7.37,20.29-11.11a2.19,2.19,0,0,0,1-1.64c.06-17.28,0-34.56.09-51.84a1.9,1.9,0,0,0-1.39-1.92c-1.94-.87-3.85-1.77-5.79-2.67l1.67-2-.44-.44a11.73,11.73,0,0,1-1.73,1.05,2.64,2.64,0,0,1-1.71.23c-.44-.19-.61-.88-.89-1.36l.45-.2.74,1.32c1.12-1,.52-2,.36-3Z" transform="translate(-0.74 -58.54)"/><path class="cls-1" d="M194.65,294.09l-1-.83c-.74-.48-.56-.89.14-1.24,3.74-1.87,7.49-3.72,11.22-5.62,1.53-.78,3-1.61,4.48-2.53.33-.21.42-.87.42-1.33q0-10.12,0-20.24c0-10.34,0-20.68,0-31a2.56,2.56,0,0,0-1.76-2.67c-2.47-1.14-4.85-2.44-7.31-3.7a26.28,26.28,0,0,1,5.4-.71,8.7,8.7,0,0,1,3.69,1.63,3,3,0,0,0,3.45.09q13.48-6.91,27.09-13.66,11.63-5.81,23.33-11.48c1-.48.92-1.13.92-1.87V170.52h3.59v1.83c0,8.85,0,17.69,0,26.54A2,2,0,0,0,269.5,201q11,5.85,22,11.76c2.88,1.54,5.76,3.07,8.61,4.65,6,3.33,12,6.69,18.05,10a8.68,8.68,0,0,0,2.31.5l.27-.47,2.48,2.42,0,0c-3.77,2.17-3.77,2.16-7.55.11-4.82-2.62-9.67-5.2-14.47-7.85-1.44-.79-2.75-1.77-4.12-2.67l.29-.42c.78.43,1.54.87,2.34,1.27a13,13,0,0,0,1.36.49c-.14-.4-.16-.91-.46-1.19-1.32-1.24-2.71-2.35-4.76-1-.2.13-.83-.12-1.19-.31-9-4.88-18-9.79-27.09-14.64a2.36,2.36,0,0,0-1.79-.06q-14.55,7.11-29,14.31c-5.3,2.64-10.55,5.37-15.83,8.05-2,1-4,2-6.05,3a1.87,1.87,0,0,0-1.32,2c.06,7.49,0,15,0,22.48,0,10.29,0,20.59,0,30.88a1.94,1.94,0,0,1-1.25,2c-5.26,2.64-10.48,5.35-15.7,8C195.86,294.66,195.21,295,194.65,294.09Z" transform="translate(-0.74 -58.54)"/><path class="cls-1" d="M152.68,210.07l1.25-1.92,50.95,26.69-1.23,1.92Z" transform="translate(-0.74 -58.54)"/><path class="cls-1" d="M323.22,229.85,321.35,227l32.43-17.33,1.92,2.84c-3.54,1.85-7.06,3.65-10.54,5.51-5.5,3-11,6-16.45,8.91-1.83,1-3.69,1.9-5.53,2.86Z" transform="translate(-0.74 -58.54)"/><path class="cls-1" d="M112.9,230.42H115a5.73,5.73,0,0,1,.15.91q0,18.51,0,37c0,4.29,0,8.59,0,12.88,0,1.92,0,1.92-2.27,1.65Z" transform="translate(-0.74 -58.54)"/><path class="cls-1" d="M92.42,221.83c-1.54.11-2.63.74-2.93,2.21l-22.75-11,1.63-2.81,15.19,7.12c2.28,1.07,4.57,2.1,6.83,3.2a18.36,18.36,0,0,1,2,1.3Z" transform="translate(-0.74 -58.54)"/><path class="cls-1" d="M156.3,302.9a24.1,24.1,0,0,1,3.8-3.07c6.67-3.55,13.43-6.95,20.16-10.41,1.5-.77,3-1.61,4.53-2.27a5.43,5.43,0,0,1,2,0l.26.23c.84,1-.29,1.21-.86,1.5q-10.28,5.35-20.61,10.64c-3.43,1.76-6.88,3.5-10.42,5.31-.41-1.15-.33-1.9,1.14-2Z" transform="translate(-0.74 -58.54)"/><path class="cls-1" d="M187,287.42l-.26-.23c0-.39-.08-1,.14-1.15,6-3.15,12-6.23,18.13-9.37l1.27,2c-3.67,1.79-7.34,3.53-10.95,5.35-2.12,1.07-4.12,2.33-6.26,3.37A5.65,5.65,0,0,1,187,287.42Z" transform="translate(-0.74 -58.54)"/><polygon class="cls-1" points="155.56 244.36 155.52 244.35 155.52 244.29 155.56 244.36"/><line class="cls-2" x1="404.03" y1="154.02" x2="440.98" y2="176.63"/><line class="cls-3" x1="66" y1="152.69" x2="102.63" y2="169.87"/><line class="cls-2" x1="350.22" y1="154.79" x2="318.54" y2="171.13"/><line class="cls-4" x1="271.79" y1="146.32" x2="314.89" y2="169.92"/><line class="cls-4" x1="165.32" y1="146.35" x2="207.79" y2="169.07"/><line class="cls-2" x1="168.01" y1="147.81" x2="211.65" y2="169.77"/><text class="cls-5" transform="translate(11.25 160.91) scale(1.12 1)">HO</text><text class="cls-5" transform="translate(13.98 256.52) scale(1.12 1)">HO</text><text class="cls-5" transform="translate(238.64 104.25) scale(1.12 1)">OH</text><path class="cls-6" d="M15.74,58.67h6L36.05,93.82H30.21l-4-10.53H10.65L6.39,93.82H.93Zm8.77,20.74-6-15.53L12.18,79.41Z" transform="translate(-0.74 -58.54)"/><path class="cls-6" d="M41.14,58.67H56.87q8,0,12.43,5.14,3.95,4.65,3.94,11.89a21.77,21.77,0,0,1-2.33,10.12q-4.09,8-14.09,8H41.14ZM55.83,89.75a16,16,0,0,0,4.35-.5,9.52,9.52,0,0,0,5-3.59,13.91,13.91,0,0,0,2.23-5.46,19.15,19.15,0,0,0,.39-3.68q0-6.54-2.84-10.15t-9.15-3.61H46.53v27Z" transform="translate(-0.74 -58.54)"/><path class="cls-6" d="M81.17,58.67H99.06a19.45,19.45,0,0,1,7.29,1.17q5.45,2.25,5.44,8.3a8.53,8.53,0,0,1-1.46,5.17,10.19,10.19,0,0,1-4.08,3.23,8.15,8.15,0,0,1,3.47,2.2,7.36,7.36,0,0,1,1.3,4.43l.18,4.71a13.08,13.08,0,0,0,.38,3A3,3,0,0,0,113.29,93v.79h-6.53a3.94,3.94,0,0,1-.43-1.18,19.16,19.16,0,0,1-.27-2.77L105.74,84q-.18-3.45-2.79-4.62a12.43,12.43,0,0,0-4.66-.65H86.5V93.82H81.17Zm17.32,16.1a10.78,10.78,0,0,0,5.77-1.34q2.11-1.34,2.12-4.83c0-2.51-1-4.21-3-5.12a10.42,10.42,0,0,0-4.25-.72H86.5v12Z" transform="translate(-0.74 -58.54)"/><path class="cls-6" d="M120.66,58.67h28.56V63H125.86V73.65h21.59v4.06H125.86V89.63h23.76v4.19h-29Z" transform="translate(-0.74 -58.54)"/><path class="cls-6" d="M156.75,58.67H163l19.63,28.4V58.67h5.09V93.82h-6L161.84,65.45V93.82h-5.09Z" transform="translate(-0.74 -58.54)"/><path class="cls-6" d="M207.81,58.67h6l14.28,35.15h-5.84l-4-10.53H202.72l-4.26,10.53H193Zm8.77,20.74-6-15.53-6.35,15.53Z" transform="translate(-0.74 -58.54)"/><path class="cls-6" d="M233,58.67h5.33v31h19.75v4.19H233Z" transform="translate(-0.74 -58.54)"/><path class="cls-6" d="M264.69,58.67h5.39V93.82h-5.39Z" transform="translate(-0.74 -58.54)"/><path class="cls-6" d="M278.73,58.67H285l19.63,28.4V58.67h5.09V93.82h-6L283.82,65.45V93.82h-5.09Z" transform="translate(-0.74 -58.54)"/><path class="cls-6" d="M318.87,58.67h28.56V63H324.06V73.65h21.6v4.06h-21.6V89.63h23.77v4.19h-29Z" transform="translate(-0.74 -58.54)"/><text class="cls-5" transform="translate(368.87 145.69) scale(1.12 1)">H<tspan x="0" y="29.8">N</tspan></text></g></g></svg>