<svg xmlns="http://www.w3.org/2000/svg" viewBox="0 0 839.93 355.71"><defs><style>.cls-1,.cls-2,.cls-3,.cls-4,.cls-6,.cls-7,.cls-8{isolation:isolate;}.cls-1,.cls-2{font-size:21.88px;}.cls-1,.cls-4,.cls-7{fill:#fff;}.cls-1,.cls-2,.cls-7,.cls-8{font-family:Helvetica;}.cls-2,.cls-6,.cls-8,.cls-9{fill:none;stroke-miterlimit:10;}.cls-2,.cls-6,.cls-8{stroke:#fff;}.cls-4{font-size:49px;font-family:Helvetica-Light, Helvetica;font-weight:300;}.cls-5{fill:#5ebca6;}.cls-6,.cls-9{stroke-width:3px;}.cls-6{opacity:0.65;}.cls-7,.cls-8{font-size:31px;}.cls-9{stroke:#5ebca6;}</style></defs><g id="Layer_2" data-name="Layer 2"><g id="Layer_1-2" data-name="Layer 1"><g id="Layer_1-2-2" data-name="Layer 1-2"><text class="cls-1" transform="translate(233.71 299.7)">70%</text><text class="cls-2" transform="translate(233.71 299.7)">70%</text><g class="cls-3"><text class="cls-4" transform="translate(437.28 204.79) scale(1.12 1)">Soldiers with</text><text class="cls-4" transform="translate(437.28 263.59) scale(1.12 1)">Nanotechnology</text></g><g id="Group_135" data-name="Group 135"><g id="Group_134" data-name="Group 134"><path id="Path_4330" data-name="Path 4330" class="cls-5" d="M97.32,59.35a125.81,125.81,0,0,1,41-6.49"/></g></g><path class="cls-6" d="M27.26,116A119,119,0,0,0,1.54,188.8h0c-1.3,55.12,31.63,102.42,84,120.7L127.2,191.76Z"/><text class="cls-1" transform="translate(190.76 193.08)">55%</text><text class="cls-2" transform="translate(190.76 193.08)">55%</text><text class="cls-7" transform="translate(30.99 223.16)">20%</text><text class="cls-8" transform="translate(30.99 223.16)">20%</text><path id="Path_4327" data-name="Path 4327" class="cls-9" d="M428.84,213.7H331.67"/><path class="cls-5" d="M160.82,177.86,105.86,347a169,169,0,0,0,55,8.7h1.32c96.21-.08,175.25-77.07,177.66-173.25A177.87,177.87,0,0,0,166.61.06Q163.72,0,160.82,0h0s-35.43,0-55,8.7h0A170.45,170.45,0,0,0,16.93,73.32L156,175.5h0l1.91,1.41,2.38,1.75"/><text class="cls-7" transform="translate(211.25 171.59)">80%</text></g></g></g></svg>