<svg xmlns="http://www.w3.org/2000/svg" viewBox="0 0 436.9 460.01"><defs><style>.cls-1{fill:none;stroke:#fdeff0;stroke-linecap:round;stroke-width:4px;}.cls-2,.cls-3{isolation:isolate;}.cls-3{font-size:49px;font-family:Helvetica;}.cls-3,.cls-7{fill:#fff;}.cls-4{letter-spacing:-0.07em;}.cls-5{letter-spacing:-0.02em;}.cls-6{letter-spacing:0em;}.cls-7{font-size:28.81px;stroke:#fff;stroke-miterlimit:10;font-family:MyriadPro-Regular, Myriad Pro;}</style></defs><g id="Layer_2" data-name="Layer 2"><g id="Layer_1-2" data-name="Layer 1"><line id="Line_77" data-name="Line 77" class="cls-1" x1="63.34" y1="116.46" x2="91.03" y2="88.77"/><line id="Line_78" data-name="Line 78" class="cls-1" x1="55.33" y1="155.8" x2="66.26" y2="189.31"/><line id="Line_79" data-name="Line 79" class="cls-1" x1="124.54" y1="203.88" x2="66.26" y2="189.31"/><line id="Line_80" data-name="Line 80" class="cls-1" x1="24" y1="231.57" x2="66.26" y2="189.31"/><line id="Line_81" data-name="Line 81" class="cls-1" x1="24" y1="231.57" x2="41.49" y2="289.85"/><line id="Line_82" data-name="Line 82" class="cls-1" x1="98.31" y1="302.97" x2="41.49" y2="289.85"/><line id="Line_83" data-name="Line 83" class="cls-1" x1="98.31" y1="302.97" x2="139.11" y2="260.71"/><line id="Line_84" data-name="Line 84" class="cls-1" x1="124.54" y1="203.88" x2="140.57" y2="257.8"/><line id="Line_85" data-name="Line 85" class="cls-1" x1="194.48" y1="284.02" x2="140.57" y2="257.8"/><line id="Line_86" data-name="Line 86" class="cls-1" x1="194.48" y1="284.02" x2="187.2" y2="342.31"/><line id="Line_87" data-name="Line 87" class="cls-1" x1="162.43" y1="348.14" x2="187.2" y2="342.31"/><line id="Line_88" data-name="Line 88" class="cls-1" x1="98.31" y1="302.97" x2="117.26" y2="333.57"/><line id="Line_89" data-name="Line 89" class="cls-1" x1="194.48" y1="284.02" x2="245.48" y2="256.34"/><line id="Line_90" data-name="Line 90" class="cls-1" x1="293.56" y1="285.48" x2="245.48" y2="256.34"/><line id="Line_91" data-name="Line 91" class="cls-1" x1="293.56" y1="285.48" x2="321.25" y2="270.91"/><line id="Line_92" data-name="Line 92" class="cls-1" x1="362.05" y1="270.91" x2="389.73" y2="286.94"/><line id="Line_93" data-name="Line 93" class="cls-1" x1="434.9" y1="260.71" x2="389.73" y2="286.94"/><line id="Line_94" data-name="Line 94" class="cls-1" x1="394.1" y1="286.94" x2="394.1" y2="324.82"/><line id="Line_95" data-name="Line 95" class="cls-1" x1="385.36" y1="286.94" x2="385.36" y2="324.82"/><line id="Line_96" data-name="Line 96" class="cls-1" x1="36.39" y1="235.94" x2="50.23" y2="281.11"/><line id="Line_97" data-name="Line 97" class="cls-1" x1="128.91" y1="257.8" x2="96.86" y2="289.85"/><line id="Line_98" data-name="Line 98" class="cls-1" x1="69.9" y1="200.97" x2="114.34" y2="212.63"/><line id="Line_99" data-name="Line 99" class="cls-1" x1="183.55" y1="291.31" x2="178.45" y2="332.11"/><g id="Melatonin:" class="cls-2"><text class="cls-3" transform="translate(0 42.07)">MEL<tspan class="cls-4" x="100.75" y="0">A</tspan><tspan class="cls-5" x="129.82" y="0">T</tspan><tspan class="cls-6" x="158.89" y="0">ONIN</tspan></text></g><text class="cls-7" transform="translate(330.37 265.68) scale(1.12 1)">H<tspan x="0" y="26.84">N</tspan></text><text class="cls-7" transform="translate(129.73 352.64) scale(1.12 1)">N<tspan x="0" y="26.84">H</tspan></text><text class="cls-7" transform="translate(378.27 356.51) scale(1.12 1)">O</text><text class="cls-7" transform="translate(40.43 144.22) scale(1.12 1)">O</text></g></g></svg>