<svg id="Layer_1" data-name="Layer 1" xmlns="http://www.w3.org/2000/svg" viewBox="0 0 645.03 414.63"><defs><style>.cls-1{fill:#311212;opacity:0.31;}.cls-1,.cls-12,.cls-8,.cls-9{isolation:isolate;}.cls-2,.cls-3,.cls-4,.cls-5,.cls-6,.cls-7{fill:none;}.cls-2,.cls-3,.cls-6,.cls-7{stroke:#fff;}.cls-2,.cls-3,.cls-4{stroke-linecap:round;}.cls-2{stroke-width:2px;}.cls-4{stroke:#fdeff0;stroke-width:3px;}.cls-6{stroke-width:5px;}.cls-7{stroke-width:4px;}.cls-9{font-size:49px;font-family:Helvetica;}.cls-12,.cls-13,.cls-9{fill:#fff;}.cls-10{letter-spacing:-0.07em;}.cls-11{letter-spacing:-0.02em;}.cls-12{font-size:34px;font-family:Helvetica-Bold, Helvetica;font-weight:700;}</style></defs><path id="Subtraction_2" data-name="Subtraction 2" class="cls-1" d="M1235.44,660.29a75,75,0,0,1-7-30.27,76.62,76.62,0,0,1,1.2-15.2,79.6,79.6,0,0,1,4.15-14.69,81.2,81.2,0,0,1,6.92-13.75A82.22,82.22,0,0,1,1250.2,574a84.22,84.22,0,0,1,12-10.6,86,86,0,0,1,29.82-13.9,82.36,82.36,0,0,1,46.4,1.85,79.81,79.81,0,0,1,13.92,6.27,76.76,76.76,0,0,1,12.42,8.85,74.91,74.91,0,0,1,18.66,24.84l-14.52,6.77h0a57.41,57.41,0,0,0-14.76-19.46,60.7,60.7,0,0,0-9.88-6.89,63.61,63.61,0,0,0-11.1-4.85,65.39,65.39,0,0,0-12-2.69,66.84,66.84,0,0,0-12.49-.42,70,70,0,0,0-46.28,21.58,67.25,67.25,0,0,0-7.71,9.84,65.26,65.26,0,0,0-5.63,10.89,63.73,63.73,0,0,0-3.42,11.62,59.73,59.73,0,0,0-1.07,12A57.91,57.91,0,0,0,1264.73,673a60.35,60.35,0,0,0,9.89,6.89,63,63,0,0,0,11.1,4.85,65.26,65.26,0,0,0,12,2.68,66.84,66.84,0,0,0,12.49.42,69,69,0,0,0,25.18-6.42l.45-.21,7.07,15.17-.45.22a85.85,85.85,0,0,1-15.58,5.51,84.29,84.29,0,0,1-15.81,2.35,83,83,0,0,1-15.6-.67,81,81,0,0,1-15-3.54,79.76,79.76,0,0,1-13.92-6.26,77.46,77.46,0,0,1-12.43-8.85,75.15,75.15,0,0,1-18.66-24.84Z" transform="translate(-825.39 -374.22)"/><g id="Group_14" data-name="Group 14"><g id="Group_13" data-name="Group 13"><line id="Line_15" data-name="Line 15" class="cls-2" x1="1" y1="32.28" x2="1" y2="376.91"/><line id="Line_16" data-name="Line 16" class="cls-2" x1="1" y1="377.14" x2="22" y2="413.63"/><line id="Line_17" data-name="Line 17" class="cls-2" x1="644.03" y1="413.63" x2="22" y2="413.63"/><line id="Line_18" data-name="Line 18" class="cls-2" x1="644.03" y1="32.28" x2="644.03" y2="413.63"/><line id="Line_19" data-name="Line 19" class="cls-2" x1="644.03" y1="32.28" x2="1" y2="32.28"/></g><line id="Line_20" data-name="Line 20" class="cls-2" x1="1" y1="35.75" x2="1" y2="1"/><line id="Line_21" data-name="Line 21" class="cls-2" x1="1" y1="1" x2="325.5" y2="1"/><line id="Line_22" data-name="Line 22" class="cls-2" x1="227.13" y1="1" x2="245.13" y2="32.28"/><path id="Path_50" data-name="Path 50" class="cls-3" d="M826.89,385.22l630.53,0" transform="translate(-825.39 -374.22)"/><line id="Line_24" data-name="Line 24" class="cls-2" x1="632.03" y1="11.43" x2="644.03" y2="32.28"/><line id="Line_25" data-name="Line 25" class="cls-3" x1="300.67" y1="11.43" x2="312.67" y2="32.28"/><line id="Line_26" data-name="Line 26" class="cls-3" x1="382.2" y1="11.43" x2="394.2" y2="32.28"/></g><line id="Line_77" data-name="Line 77" class="cls-4" x1="81.5" y1="165.29" x2="100.5" y2="146.29"/><g id="Ellipse_36" data-name="Ellipse 36"><ellipse class="cls-5" cx="75" cy="177.79" rx="7" ry="11"/><ellipse class="cls-6" cx="75" cy="177.79" rx="4.5" ry="8.5"/></g><line id="Line_78" data-name="Line 78" class="cls-4" x1="76" y1="192.29" x2="83.5" y2="215.29"/><line id="Line_79" data-name="Line 79" class="cls-4" x1="123.5" y1="225.29" x2="83.5" y2="215.29"/><line id="Line_80" data-name="Line 80" class="cls-4" x1="54.5" y1="244.29" x2="83.5" y2="215.29"/><line id="Line_81" data-name="Line 81" class="cls-4" x1="54.5" y1="244.29" x2="66.5" y2="284.29"/><line id="Line_82" data-name="Line 82" class="cls-4" x1="105.5" y1="293.29" x2="66.5" y2="284.29"/><line id="Line_83" data-name="Line 83" class="cls-4" x1="105.5" y1="293.29" x2="133.5" y2="264.29"/><line id="Line_84" data-name="Line 84" class="cls-4" x1="123.5" y1="225.29" x2="134.5" y2="262.29"/><line id="Line_85" data-name="Line 85" class="cls-4" x1="171.5" y1="280.29" x2="134.5" y2="262.29"/><line id="Line_86" data-name="Line 86" class="cls-4" x1="171.5" y1="280.29" x2="166.5" y2="320.29"/><line id="Line_87" data-name="Line 87" class="cls-4" x1="149.5" y1="324.29" x2="166.5" y2="320.29"/><line id="Line_88" data-name="Line 88" class="cls-4" x1="105.5" y1="293.29" x2="118.5" y2="314.29"/><line id="Line_89" data-name="Line 89" class="cls-4" x1="171.5" y1="280.29" x2="206.5" y2="261.29"/><line id="Line_90" data-name="Line 90" class="cls-4" x1="239.5" y1="281.29" x2="206.5" y2="261.29"/><line id="Line_91" data-name="Line 91" class="cls-4" x1="239.5" y1="281.29" x2="258.5" y2="271.29"/><line id="Line_92" data-name="Line 92" class="cls-4" x1="286.5" y1="271.29" x2="305.5" y2="282.29"/><line id="Line_93" data-name="Line 93" class="cls-4" x1="336.5" y1="264.29" x2="305.5" y2="282.29"/><line id="Line_94" data-name="Line 94" class="cls-4" x1="308.5" y1="282.29" x2="308.5" y2="308.29"/><line id="Line_95" data-name="Line 95" class="cls-4" x1="302.5" y1="282.29" x2="302.5" y2="308.29"/><g id="Ellipse_37" data-name="Ellipse 37"><ellipse class="cls-5" cx="306" cy="322.79" rx="7" ry="11"/><ellipse class="cls-6" cx="306" cy="322.79" rx="4.5" ry="8.5"/></g><line id="Line_96" data-name="Line 96" class="cls-4" x1="63" y1="247.29" x2="72.5" y2="278.29"/><line id="Line_97" data-name="Line 97" class="cls-4" x1="126.5" y1="262.29" x2="104.5" y2="284.29"/><line id="Line_98" data-name="Line 98" class="cls-4" x1="86" y1="223.29" x2="116.5" y2="231.29"/><line id="Line_99" data-name="Line 99" class="cls-4" x1="164" y1="285.29" x2="160.5" y2="313.29"/><g id="Group_51" data-name="Group 51"><line id="Line_100" data-name="Line 100" class="cls-6" x1="129.5" y1="335.29" x2="129.5" y2="314.29"/><line id="Line_101" data-name="Line 101" class="cls-7" x1="137" y1="333.79" x2="130" y2="314.79"/><line id="Line_102" data-name="Line 102" class="cls-6" x1="136.5" y1="335.29" x2="136.5" y2="314.29"/></g><g id="Group_52" data-name="Group 52"><line id="Line_100-2" data-name="Line 100-2" class="cls-6" x1="270.5" y1="276.79" x2="270.5" y2="255.79"/><line id="Line_101-2" data-name="Line 101-2" class="cls-7" x1="278" y1="275.29" x2="271" y2="256.29"/><line id="Line_102-2" data-name="Line 102-2" class="cls-6" x1="277.5" y1="276.79" x2="277.5" y2="255.79"/></g><line id="Line_103" data-name="Line 103" class="cls-6" x1="129.5" y1="346.29" x2="129.5" y2="366.29"/><line id="Line_104" data-name="Line 104" class="cls-7" x1="129.5" y1="355.29" x2="136.5" y2="355.29"/><line id="Line_105" data-name="Line 105" class="cls-6" x1="136.5" y1="346.29" x2="136.5" y2="366.29"/><line id="Line_106" data-name="Line 106" class="cls-6" x1="270.5" y1="227.29" x2="270.5" y2="247.29"/><line id="Line_107" data-name="Line 107" class="cls-7" x1="270.5" y1="236.29" x2="277.5" y2="236.29"/><line id="Line_108" data-name="Line 108" class="cls-6" x1="277.5" y1="227.29" x2="277.5" y2="247.29"/><g id="Melatonin:" class="cls-8"><text class="cls-9" transform="translate(46.5 102.79)">MEL<tspan class="cls-10" x="100.75" y="0">A</tspan><tspan class="cls-11" x="129.82" y="0">T</tspan><tspan x="158.89" y="0">ONIN:</tspan></text></g><g id="_50_pg_ml" data-name=" 50 pg ml" class="cls-8"><text class="cls-12" transform="translate(441.65 247.53)">50 pg</text><text class="cls-12" transform="translate(461.49 288.53)">/ml</text></g><path id="Subtraction_3" data-name="Subtraction 3" class="cls-13" d="M1308.35,704c-1.2,0-2.42,0-3.62-.08V687c1.11.06,2.26.08,3.4.08s2.39,0,3.59-.09a69.46,69.46,0,0,0,25.5-6.12,68,68,0,0,0,10.92-6.27,65.22,65.22,0,0,0,9.38-8,63,63,0,0,0,7.57-9.56,59.74,59.74,0,0,0,5.52-10.8,57.78,57.78,0,0,0,3.86-24.34,58.52,58.52,0,0,0-6.54-23.82,62,62,0,0,0-6.69-10.2,64.14,64.14,0,0,0-8.6-8.76,66.83,66.83,0,0,0-10.21-7.07,68.8,68.8,0,0,0-11.57-5.15,70.06,70.06,0,0,0-22.46-3.68c-1.18,0-2.39,0-3.58.09h-.09V546.41c1.15,0,2.31-.07,3.45-.07a87.33,87.33,0,0,1,12.4.89,86.05,86.05,0,0,1,15.72,3.83,84.2,84.2,0,0,1,14.4,6.57,83.12,83.12,0,0,1,12.72,9,81.23,81.23,0,0,1,10.71,11.15,79.15,79.15,0,0,1,8.34,13,76,76,0,0,1,8.18,30.33,75.24,75.24,0,0,1-4.77,31,77.34,77.34,0,0,1-6.85,13.75,80.18,80.18,0,0,1-9.41,12.15A82.65,82.65,0,0,1,1358,688.19a84,84,0,0,1-13.59,7.95,85,85,0,0,1-15.21,5.35,86.78,86.78,0,0,1-16.5,2.41C1311.23,704,1309.78,704,1308.35,704Z" transform="translate(-825.39 -374.22)"/></svg>