<svg id="Layer_1" data-name="Layer 1" xmlns="http://www.w3.org/2000/svg" viewBox="0 0 1168.5 711"><defs><style>.cls-1,.cls-16,.cls-18,.cls-19,.cls-22,.cls-23,.cls-4,.cls-5,.cls-6,.cls-7,.cls-8,.cls-9{fill:none;}.cls-1{stroke:#43aebe;}.cls-1,.cls-18,.cls-19,.cls-22,.cls-5,.cls-6,.cls-9{stroke-linecap:round;}.cls-1,.cls-18,.cls-19,.cls-23{stroke-width:3px;}.cls-10,.cls-12,.cls-15,.cls-17,.cls-2,.cls-21,.cls-3,.cls-4{isolation:isolate;}.cls-3,.cls-4{font-size:75px;font-family:Helvetica-Bold, Helvetica;font-weight:700;}.cls-3{fill:#43aebe;}.cls-4{stroke:#6a6868;}.cls-19,.cls-23,.cls-5,.cls-6,.cls-8{stroke:#fff;}.cls-16,.cls-22,.cls-5,.cls-8,.cls-9{stroke-width:2px;}.cls-9{stroke:#fffbfb;}.cls-10{font-size:5px;}.cls-10,.cls-12,.cls-17,.cls-21{fill:#fef8f9;}.cls-10,.cls-12,.cls-15,.cls-17,.cls-21{font-family:Helvetica;}.cls-11{letter-spacing:-0.07em;}.cls-12,.cls-15{font-size:8.5px;}.cls-13{letter-spacing:-0.07em;}.cls-14{letter-spacing:0em;}.cls-16,.cls-18,.cls-22{stroke:#000;}.cls-17{font-size:6px;}.cls-20{fill:#fff;}.cls-21{font-size:30px;}.cls-24{fill:#e1f2f7;}.cls-25{fill:#333;}</style></defs><line id="Line_1-2" data-name="Line 1-2" class="cls-1" x1="51.5" y1="662.79" x2="541.5" y2="662.79"/><g id="Group_12" data-name="Group 12"><g id="Group_8" data-name="Group 8"><line id="Line_11-5" data-name="Line 11-5" class="cls-1" x1="687" y1="148.5" x2="687" y2="238.5"/><line id="Line_12-5" data-name="Line 12-5" class="cls-1" x1="687" y1="148.5" x2="777" y2="148.5"/></g><g id="Group_9" data-name="Group 9"><line id="Line_11-6" data-name="Line 11-6" class="cls-1" x1="1167" y1="148.5" x2="1077" y2="148.5"/><line id="Line_12-6" data-name="Line 12-6" class="cls-1" x1="1167" y1="148.5" x2="1167" y2="238.5"/></g><g id="Group_10" data-name="Group 10"><line id="Line_11-7" data-name="Line 11-7" class="cls-1" x1="1167" y1="650.5" x2="1167" y2="560.5"/><line id="Line_12-7" data-name="Line 12-7" class="cls-1" x1="1167" y1="650.5" x2="1077" y2="650.5"/></g><g id="Group_11" data-name="Group 11"><line id="Line_11-8" data-name="Line 11-8" class="cls-1" x1="687" y1="650.5" x2="777" y2="650.5"/><line id="Line_12-8" data-name="Line 12-8" class="cls-1" x1="687" y1="650.5" x2="687" y2="560.5"/></g></g><line id="Line_13-2" data-name="Line 13-2" class="cls-1" x1="61.5" y1="124.5" x2="263.5" y2="124.5"/><line id="Line_14-2" data-name="Line 14-2" class="cls-1" x1="349.5" y1="124.5" x2="551.5" y2="124.5"/><g id="SCANNING-2" class="cls-2"><text class="cls-3" transform="translate(105 85.5)">SCANNING</text></g><g id="SCANNING-3" class="cls-2"><text class="cls-3" transform="translate(105 85.5)">SCANNING</text><text class="cls-4" transform="translate(105 85.5)">SCANNING</text></g><g id="Group_14" data-name="Group 14"><g id="Group_13" data-name="Group 13"><line id="Line_15" data-name="Line 15" class="cls-5" x1="1" y1="193" x2="1" y2="293"/><line id="Line_16" data-name="Line 16" class="cls-5" x1="1" y1="293" x2="22" y2="314"/><line id="Line_17" data-name="Line 17" class="cls-5" x1="198" y1="314" x2="22" y2="314"/><line id="Line_18" data-name="Line 18" class="cls-5" x1="198" y1="193" x2="198" y2="314"/><line id="Line_19" data-name="Line 19" class="cls-5" x1="198" y1="193" x2="1" y2="193"/></g><line id="Line_20" data-name="Line 20" class="cls-5" x1="1" y1="195" x2="1" y2="175"/><line id="Line_21" data-name="Line 21" class="cls-5" x1="1" y1="175" x2="51" y2="175"/><line id="Line_22" data-name="Line 22" class="cls-5" x1="51" y1="175" x2="69" y2="193"/><line id="Line_23" data-name="Line 23" class="cls-6" x1="57" y1="181" x2="185" y2="181"/><line id="Line_24" data-name="Line 24" class="cls-6" x1="185" y1="181" x2="197" y2="193"/><line id="Line_25" data-name="Line 25" class="cls-6" x1="69" y1="181" x2="81" y2="193"/><line id="Line_26" data-name="Line 26" class="cls-6" x1="87.5" y1="181" x2="99.5" y2="193"/></g><g id="Group_15" data-name="Group 15"><g id="Group_13-2" data-name="Group 13-2"><line id="Line_15-2" data-name="Line 15-2" class="cls-5" x1="1" y1="523.39" x2="1" y2="591"/><line id="Line_16-2" data-name="Line 16-2" class="cls-5" x1="1" y1="591.29" x2="22" y2="612.29"/><line id="Line_17-2" data-name="Line 17-2" class="cls-5" x1="198" y1="612.29" x2="22" y2="612.29"/><line id="Line_18-2" data-name="Line 18-2" class="cls-5" x1="198" y1="534.5" x2="198" y2="612.29"/><line id="Line_19-2" data-name="Line 19-2" class="cls-5" x1="198" y1="534.5" x2="1" y2="534.5"/></g><line id="Line_20-2" data-name="Line 20-2" class="cls-5" x1="1" y1="536.5" x2="1" y2="516.5"/><line id="Line_21-2" data-name="Line 21-2" class="cls-5" x1="1" y1="516.5" x2="51" y2="516.5"/><line id="Line_22-2" data-name="Line 22-2" class="cls-5" x1="51" y1="516.5" x2="69" y2="534.5"/><line id="Line_23-2" data-name="Line 23-2" class="cls-6" x1="57" y1="522.5" x2="185" y2="522.5"/><line id="Line_24-2" data-name="Line 24-2" class="cls-6" x1="185" y1="522.5" x2="197" y2="534.5"/><line id="Line_25-2" data-name="Line 25-2" class="cls-6" x1="69" y1="522.5" x2="81" y2="534.5"/><line id="Line_26-2" data-name="Line 26-2" class="cls-6" x1="87.5" y1="522.5" x2="99.5" y2="534.5"/></g><g id="Group_16" data-name="Group 16"><g id="Group_13-3" data-name="Group 13-3"><line id="Line_15-3" data-name="Line 15-3" class="cls-5" x1="212.5" y1="193" x2="212.5" y2="293"/><line id="Line_16-3" data-name="Line 16-3" class="cls-5" x1="212.5" y1="293" x2="233.5" y2="314"/><line id="Line_17-3" data-name="Line 17-3" class="cls-5" x1="409.5" y1="314" x2="233.5" y2="314"/><line id="Line_18-3" data-name="Line 18-3" class="cls-5" x1="409.5" y1="193" x2="409.5" y2="314"/><line id="Line_19-3" data-name="Line 19-3" class="cls-5" x1="409.5" y1="193" x2="212.5" y2="193"/></g><line id="Line_20-3" data-name="Line 20-3" class="cls-5" x1="212.5" y1="195" x2="212.5" y2="175"/><line id="Line_21-3" data-name="Line 21-3" class="cls-5" x1="212.5" y1="175" x2="262.5" y2="175"/><line id="Line_22-3" data-name="Line 22-3" class="cls-5" x1="262.5" y1="175" x2="280.5" y2="193"/><line id="Line_23-3" data-name="Line 23-3" class="cls-6" x1="268.5" y1="181" x2="396.5" y2="181"/><line id="Line_24-3" data-name="Line 24-3" class="cls-6" x1="396.5" y1="181" x2="408.5" y2="193"/><line id="Line_25-3" data-name="Line 25-3" class="cls-6" x1="280.5" y1="181" x2="292.5" y2="193"/><line id="Line_26-3" data-name="Line 26-3" class="cls-6" x1="299" y1="181" x2="311" y2="193"/></g><g id="Group_17" data-name="Group 17"><g id="Group_13-4" data-name="Group 13-4"><line id="Line_15-4" data-name="Line 15-4" class="cls-5" x1="1" y1="343.5" x2="1" y2="475.5"/><line id="Line_16-4" data-name="Line 16-4" class="cls-5" x1="1" y1="475.5" x2="22" y2="496.5"/><line id="Line_17-4" data-name="Line 17-4" class="cls-5" x1="198" y1="496.5" x2="22" y2="496.5"/><line id="Line_18-4" data-name="Line 18-4" class="cls-5" x1="198" y1="343.5" x2="198" y2="496.5"/><line id="Line_19-4" data-name="Line 19-4" class="cls-5" x1="198" y1="343.5" x2="1" y2="343.5"/></g><line id="Line_20-4" data-name="Line 20-4" class="cls-5" x1="1" y1="345.5" x2="1" y2="325.5"/><line id="Line_21-4" data-name="Line 21-4" class="cls-5" x1="1" y1="325.5" x2="51" y2="325.5"/><line id="Line_22-4" data-name="Line 22-4" class="cls-5" x1="51" y1="325.5" x2="69" y2="343.5"/><line id="Line_23-4" data-name="Line 23-4" class="cls-6" x1="57" y1="331.5" x2="185" y2="331.5"/><line id="Line_24-4" data-name="Line 24-4" class="cls-6" x1="185" y1="331.5" x2="197" y2="343.5"/><line id="Line_25-4" data-name="Line 25-4" class="cls-6" x1="69" y1="331.5" x2="81" y2="343.5"/><line id="Line_26-4" data-name="Line 26-4" class="cls-6" x1="87.5" y1="331.5" x2="99.5" y2="343.5"/></g><g id="Group_18" data-name="Group 18"><g id="Group_13-5" data-name="Group 13-5"><line id="Line_15-5" data-name="Line 15-5" class="cls-5" x1="424" y1="193" x2="424" y2="293"/><line id="Line_16-5" data-name="Line 16-5" class="cls-5" x1="424" y1="293" x2="445" y2="314"/><line id="Line_17-5" data-name="Line 17-5" class="cls-5" x1="621" y1="314" x2="445" y2="314"/><line id="Line_18-5" data-name="Line 18-5" class="cls-5" x1="621" y1="193" x2="621" y2="314"/><line id="Line_19-5" data-name="Line 19-5" class="cls-5" x1="621" y1="193" x2="424" y2="193"/></g><line id="Line_20-5" data-name="Line 20-5" class="cls-5" x1="424" y1="195" x2="424" y2="175"/><line id="Line_21-5" data-name="Line 21-5" class="cls-5" x1="424" y1="175" x2="474" y2="175"/><line id="Line_22-5" data-name="Line 22-5" class="cls-5" x1="474" y1="175" x2="492" y2="193"/><line id="Line_23-5" data-name="Line 23-5" class="cls-6" x1="480" y1="181" x2="608" y2="181"/><line id="Line_24-5" data-name="Line 24-5" class="cls-6" x1="608" y1="181" x2="620" y2="193"/><line id="Line_25-5" data-name="Line 25-5" class="cls-6" x1="492" y1="181" x2="504" y2="193"/><line id="Line_26-5" data-name="Line 26-5" class="cls-6" x1="510.5" y1="181" x2="522.5" y2="193"/></g><g id="Group_19" data-name="Group 19"><g id="Group_13-6" data-name="Group 13-6"><line id="Line_15-6" data-name="Line 15-6" class="cls-5" x1="213" y1="343.5" x2="213" y2="475.5"/><line id="Line_16-6" data-name="Line 16-6" class="cls-5" x1="213" y1="475.5" x2="234" y2="496.5"/><line id="Line_17-6" data-name="Line 17-6" class="cls-5" x1="621" y1="496.5" x2="234" y2="496.5"/><line id="Line_18-6" data-name="Line 18-6" class="cls-5" x1="621" y1="343.5" x2="621" y2="496.5"/><line id="Line_19-6" data-name="Line 19-6" class="cls-5" x1="621" y1="343.5" x2="213" y2="343.5"/></g><line id="Line_20-6" data-name="Line 20-6" class="cls-5" x1="213" y1="345.5" x2="213" y2="325.5"/><line id="Line_21-6" data-name="Line 21-6" class="cls-5" x1="213" y1="325.5" x2="322" y2="325.5"/><line id="Line_22-6" data-name="Line 22-6" class="cls-5" x1="322" y1="325.5" x2="340" y2="343.5"/><line id="Line_23-6" data-name="Line 23-6" class="cls-6" x1="329" y1="331.5" x2="608" y2="331.5"/><line id="Line_24-6" data-name="Line 24-6" class="cls-6" x1="608" y1="331.5" x2="620" y2="343.5"/><line id="Line_25-6" data-name="Line 25-6" class="cls-6" x1="359" y1="331.5" x2="371" y2="343.5"/><line id="Line_26-6" data-name="Line 26-6" class="cls-6" x1="398.16" y1="331.5" x2="410.16" y2="343.5"/></g><g id="Group_20" data-name="Group 20"><g id="Group_13-7" data-name="Group 13-7"><line id="Line_15-7" data-name="Line 15-7" class="cls-5" x1="213" y1="523.39" x2="213" y2="591"/><line id="Line_16-7" data-name="Line 16-7" class="cls-5" x1="213" y1="591.29" x2="234" y2="612.29"/><line id="Line_17-7" data-name="Line 17-7" class="cls-5" x1="410" y1="612.29" x2="234" y2="612.29"/><line id="Line_18-7" data-name="Line 18-7" class="cls-5" x1="410" y1="534.5" x2="410" y2="612.29"/><line id="Line_19-7" data-name="Line 19-7" class="cls-5" x1="410" y1="534.5" x2="213" y2="534.5"/></g><line id="Line_20-7" data-name="Line 20-7" class="cls-5" x1="213" y1="536.5" x2="213" y2="516.5"/><line id="Line_21-7" data-name="Line 21-7" class="cls-5" x1="213" y1="516.5" x2="263" y2="516.5"/><line id="Line_22-7" data-name="Line 22-7" class="cls-5" x1="263" y1="516.5" x2="281" y2="534.5"/><line id="Line_23-7" data-name="Line 23-7" class="cls-6" x1="269" y1="522.5" x2="397" y2="522.5"/><line id="Line_24-7" data-name="Line 24-7" class="cls-6" x1="397" y1="522.5" x2="409" y2="534.5"/><line id="Line_25-7" data-name="Line 25-7" class="cls-6" x1="281" y1="522.5" x2="293" y2="534.5"/><line id="Line_26-7" data-name="Line 26-7" class="cls-6" x1="299.5" y1="522.5" x2="311.5" y2="534.5"/></g><g id="Group_21" data-name="Group 21"><g id="Group_13-8" data-name="Group 13-8"><line id="Line_15-8" data-name="Line 15-8" class="cls-5" x1="425" y1="523.39" x2="425" y2="591"/><line id="Line_16-8" data-name="Line 16-8" class="cls-5" x1="425" y1="591.29" x2="446" y2="612.29"/><line id="Line_17-8" data-name="Line 17-8" class="cls-5" x1="622" y1="612.29" x2="446" y2="612.29"/><line id="Line_18-8" data-name="Line 18-8" class="cls-5" x1="622" y1="534.5" x2="622" y2="612.29"/><line id="Line_19-8" data-name="Line 19-8" class="cls-5" x1="622" y1="534.5" x2="425" y2="534.5"/></g><line id="Line_20-8" data-name="Line 20-8" class="cls-5" x1="425" y1="536.5" x2="425" y2="516.5"/><line id="Line_21-8" data-name="Line 21-8" class="cls-5" x1="425" y1="516.5" x2="475" y2="516.5"/><line id="Line_22-8" data-name="Line 22-8" class="cls-5" x1="475" y1="516.5" x2="493" y2="534.5"/><line id="Line_23-8" data-name="Line 23-8" class="cls-6" x1="481" y1="522.5" x2="609" y2="522.5"/><line id="Line_24-8" data-name="Line 24-8" class="cls-6" x1="609" y1="522.5" x2="621" y2="534.5"/><line id="Line_25-8" data-name="Line 25-8" class="cls-6" x1="493" y1="522.5" x2="505" y2="534.5"/><line id="Line_26-8" data-name="Line 26-8" class="cls-6" x1="511.5" y1="522.5" x2="523.5" y2="534.5"/></g><g id="Group_22" data-name="Group 22"><g id="Rectangle_2" data-name="Rectangle 2"><rect class="cls-7" x="86" y="240.5" width="105" height="65" rx="7"/><rect class="cls-8" x="87" y="241.5" width="103" height="63" rx="6"/></g><line id="Line_27" data-name="Line 27" class="cls-9" x1="93.5" y1="250.5" x2="155.5" y2="250.5"/><line id="Line_28" data-name="Line 28" class="cls-9" x1="93.5" y1="255.5" x2="169.5" y2="255.5"/><line id="Line_29" data-name="Line 29" class="cls-9" x1="93.5" y1="260.5" x2="139.5" y2="260.5"/><line id="Line_30" data-name="Line 30" class="cls-9" x1="93.5" y1="265.5" x2="146.5" y2="265.5"/><line id="Line_31" data-name="Line 31" class="cls-9" x1="93.5" y1="270.5" x2="155.5" y2="270.5"/><line id="Line_32" data-name="Line 32" class="cls-9" x1="93.5" y1="275.5" x2="131.5" y2="275.5"/><line id="Line_33" data-name="Line 33" class="cls-9" x1="93.5" y1="280.5" x2="138.5" y2="280.5"/><line id="Line_34" data-name="Line 34" class="cls-9" x1="93.5" y1="285.5" x2="142.5" y2="285.5"/><line id="Line_35" data-name="Line 35" class="cls-9" x1="93.5" y1="290.5" x2="164.5" y2="290.5"/><line id="Line_36" data-name="Line 36" class="cls-9" x1="93.5" y1="295.5" x2="156.5" y2="295.5"/><g id="_200" data-name=" 200" class="cls-2"><text class="cls-10" transform="translate(174 252)">200</text></g><g id="_250" data-name=" 250" class="cls-2"><text class="cls-10" transform="translate(174 257)">250</text></g><g id="_175" data-name=" 175" class="cls-2"><text class="cls-10" transform="translate(174 262)">175</text></g><g id="_190" data-name=" 190" class="cls-2"><text class="cls-10" transform="translate(174 267)">190</text></g><g id="_195" data-name=" 195" class="cls-2"><text class="cls-10" transform="translate(174 272)">195</text></g><g id="_150" data-name=" 150" class="cls-2"><text class="cls-10" transform="translate(174 277)">150</text></g><g id="_170" data-name=" 170" class="cls-2"><text class="cls-10" transform="translate(174 282)">170</text></g><g id="_225" data-name=" 225" class="cls-2"><text class="cls-10" transform="translate(174 297)">225</text></g><g id="_230" data-name=" 230" class="cls-2"><text class="cls-10" transform="translate(174 292)">230</text></g><g id="_180" data-name=" 180" class="cls-2"><text class="cls-10" transform="translate(174 287)">180</text></g></g><g id="_010010111010010101001101010100101001_10101000101001010010010100101010010_10100101011010101010101010101011110001_01010111010101010010001011101010001111_01110100100101000101001001010100101_10100101001010010100100100101001010" data-name=" 010010111010010101001101010100101001 10101000101001010010010100101010010 10100101011010101010101010101011110001 01010111010101010010001011101010001111 01110100100101000101001001010100101 10100101001010010100100100101001010" class="cls-2"><text class="cls-10" transform="translate(219 203.5)">010010<tspan class="cls-11" x="16.68" y="0">11</tspan><tspan x="21.51" y="0">101001010100</tspan><tspan class="cls-11" x="54.88" y="0">1</tspan><tspan x="57.29" y="0">101010100101001</tspan></text><text class="cls-10" transform="translate(219 209.5)">10101000101001010010010100101010010</text><text class="cls-10" transform="translate(219 215.5)">101001010<tspan class="cls-11" x="25.03" y="0">1</tspan><tspan x="27.44" y="0">10101010101010101010</tspan><tspan class="cls-11" x="83.05" y="0">111</tspan><tspan x="90.29" y="0">10001</tspan></text><text class="cls-10" transform="translate(219 221.5)">01010<tspan class="cls-11" x="13.9" y="0">11</tspan><tspan x="18.73" y="0">10101010100100010</tspan><tspan class="cls-11" x="66" y="0">11</tspan><tspan x="70.83" y="0">10101000</tspan><tspan class="cls-11" x="93.07" y="0">111</tspan><tspan x="100.31" y="0">1</tspan></text><text class="cls-10" transform="translate(219 227.5)">0<tspan class="cls-11" x="2.78" y="0">11</tspan><tspan x="7.6" y="0">10100100101000101001001010100101</tspan></text><text class="cls-10" transform="translate(219 233.5)">10100101001010010100100100101001010</text></g><g id="Ellipse_9" data-name="Ellipse 9"><ellipse class="cls-7" cx="42" cy="233" rx="33" ry="34.5"/><ellipse class="cls-8" cx="42" cy="233" rx="32" ry="33.5"/></g><g id="Ellipse_10" data-name="Ellipse 10"><ellipse class="cls-7" cx="42" cy="275" rx="33" ry="34.5"/><ellipse class="cls-8" cx="42" cy="275" rx="32" ry="33.5"/></g><g id="_010010111010010101001101010100101001_10101000101001010010010100101010010_10100101011010101010101010101011110001_01010111010101010010001011101010001111_01110100100101000101001001010100101_10100101001010010100100100101001010-2" data-name=" 010010111010010101001101010100101001 10101000101001010010010100101010010 10100101011010101010101010101011110001 01010111010101010010001011101010001111 01110100100101000101001001010100101 10100101001010010100100100101001010-2" class="cls-2"><text class="cls-12" transform="translate(19 550.5)">010010<tspan class="cls-13" x="28.36" y="0">11</tspan><tspan class="cls-14" x="36.56" y="0">101001010100</tspan><tspan class="cls-13" x="93.29" y="0">1</tspan><tspan class="cls-14" x="97.39" y="0">101010100101001</tspan></text><text class="cls-12" transform="translate(19 561.5)">10101000101001010010010100101010010</text><text class="cls-12" transform="translate(19 572.5)">101001010<tspan class="cls-13" x="42.55" y="0">1</tspan><tspan class="cls-14" x="46.65" y="0">10101010101010101010</tspan><tspan class="cls-13" x="141.19" y="0">111</tspan><tspan class="cls-14" x="153.49" y="0">10001</tspan></text><text class="cls-12" transform="translate(19 583.5)">01010<tspan class="cls-13" x="23.64" y="0">11</tspan><tspan class="cls-14" x="31.84" y="0">10101010100100010</tspan><tspan class="cls-13" x="112.2" y="0">11</tspan><tspan class="cls-14" x="120.4" y="0">10101000</tspan><tspan class="cls-13" x="158.22" y="0">111</tspan><tspan class="cls-14" x="170.52" y="0">1</tspan></text><text class="cls-12" transform="translate(19 594.5)">0<tspan class="cls-13" x="4.73" y="0">11</tspan><tspan class="cls-14" x="12.93" y="0">10100100101000101001001010100101</tspan></text><text class="cls-12" transform="translate(19 605.5)">10100101001010010100100100101001010</text></g><g id="_010010111010010101001101010100101001_10101000101001010010010100101010010_10100101011010101010101010101011110001_01010111010101010010001011101010001111_01110100100101000101001001010100101_10100101001010010100100100101001010-3" data-name=" 010010111010010101001101010100101001 10101000101001010010010100101010010 10100101011010101010101010101011110001 01010111010101010010001011101010001111 01110100100101000101001001010100101 10100101001010010100100100101001010-3" class="cls-2"><text class="cls-15" transform="translate(231 550.5)">010010<tspan class="cls-13" x="28.36" y="0">11</tspan><tspan class="cls-14" x="36.56" y="0">101001010100</tspan><tspan class="cls-13" x="93.29" y="0">1</tspan><tspan class="cls-14" x="97.39" y="0">101010100101001</tspan></text><text class="cls-15" transform="translate(231 561.5)">10101000101001010010010100101010010</text><text class="cls-15" transform="translate(231 572.5)">101001010<tspan class="cls-13" x="42.55" y="0">1</tspan><tspan class="cls-14" x="46.65" y="0">10101010101010101010</tspan><tspan class="cls-13" x="141.19" y="0">111</tspan><tspan class="cls-14" x="153.49" y="0">10001</tspan></text><text class="cls-15" transform="translate(231 583.5)">01010<tspan class="cls-13" x="23.64" y="0">11</tspan><tspan class="cls-14" x="31.84" y="0">10101010100100010</tspan><tspan class="cls-13" x="112.2" y="0">11</tspan><tspan class="cls-14" x="120.4" y="0">10101000</tspan><tspan class="cls-13" x="158.22" y="0">111</tspan><tspan class="cls-14" x="170.52" y="0">1</tspan></text><text class="cls-15" transform="translate(231 594.5)">0<tspan class="cls-13" x="4.73" y="0">11</tspan><tspan class="cls-14" x="12.93" y="0">10100100101000101001001010100101</tspan></text><text class="cls-15" transform="translate(231 605.5)">10100101001010010100100100101001010</text></g><g id="_010010111010010101001101010100101001_10101000101001010010010100101010010_10100101011010101010101010101011110001_01010111010101010010001011101010001111_01110100100101000101001001010100101_10100101001010010100100100101001010-4" data-name=" 010010111010010101001101010100101001 10101000101001010010010100101010010 10100101011010101010101010101011110001 01010111010101010010001011101010001111 01110100100101000101001001010100101 10100101001010010100100100101001010-4" class="cls-2"><text class="cls-12" transform="translate(443 550.5)">010010<tspan class="cls-13" x="28.36" y="0">11</tspan><tspan class="cls-14" x="36.56" y="0">101001010100</tspan><tspan class="cls-13" x="93.29" y="0">1</tspan><tspan class="cls-14" x="97.39" y="0">101010100101001</tspan></text><text class="cls-12" transform="translate(443 561.5)">10101000101001010010010100101010010</text><text class="cls-12" transform="translate(443 572.5)">101001010<tspan class="cls-13" x="42.55" y="0">1</tspan><tspan class="cls-14" x="46.65" y="0">10101010101010101010</tspan><tspan class="cls-13" x="141.19" y="0">111</tspan><tspan class="cls-14" x="153.49" y="0">10001</tspan></text><text class="cls-12" transform="translate(443 583.5)">01010<tspan class="cls-13" x="23.64" y="0">11</tspan><tspan class="cls-14" x="31.84" y="0">10101010100100010</tspan><tspan class="cls-13" x="112.2" y="0">11</tspan><tspan class="cls-14" x="120.4" y="0">10101000</tspan><tspan class="cls-13" x="158.22" y="0">111</tspan><tspan class="cls-14" x="170.52" y="0">1</tspan></text><text class="cls-12" transform="translate(443 594.5)">0<tspan class="cls-13" x="4.73" y="0">11</tspan><tspan class="cls-14" x="12.93" y="0">10100100101000101001001010100101</tspan></text><text class="cls-12" transform="translate(443 605.5)">10100101001010010100100100101001010</text></g><g id="Ellipse_11" data-name="Ellipse 11"><circle class="cls-7" cx="277" cy="247.5" r="28"/><circle class="cls-16" cx="277" cy="247.5" r="27"/></g><g id="Ellipse_12" data-name="Ellipse 12"><circle class="cls-7" cx="255" cy="275.5" r="28"/><circle class="cls-16" cx="255" cy="275.5" r="27"/></g><g id="Ellipse_13" data-name="Ellipse 13"><circle class="cls-7" cx="297" cy="275.5" r="28"/><circle class="cls-16" cx="297" cy="275.5" r="27"/></g><g id="Polygon_1" data-name="Polygon 1"><path class="cls-7" d="M839.66,463.53l29,50h-58Z" transform="translate(-563.66 -226.03)"/><path d="M839.66,467.52l-25.53,44h51l-25.52-44m0-4,29,50h-58Z" transform="translate(-563.66 -226.03)"/></g><g id="_010010111010010101001101010100101001_10101000101001010010010100101010010_10100101011010101010101010101011110001_01010111010101010010001011101010001111_01110100100101000101001001010100101_10100101001010010100100100101001010-5" data-name=" 010010111010010101001101010100101001 10101000101001010010010100101010010 10100101011010101010101010101011110001 01010111010101010010001011101010001111 01110100100101000101001001010100101 10100101001010010100100100101001010-5" class="cls-2"><text class="cls-17" transform="translate(80 201.5)">010010<tspan class="cls-11" x="20.02" y="0">11</tspan><tspan x="25.81" y="0">101001010100</tspan><tspan class="cls-11" x="65.85" y="0">1</tspan><tspan x="68.75" y="0">101010100101001</tspan></text><text class="cls-17" transform="translate(80 208.5)">10101000101001010010010100101010010</text><text class="cls-17" transform="translate(80 215.5)">101001010<tspan class="cls-11" x="30.03" y="0">1</tspan><tspan x="32.93" y="0">10101010101010101010</tspan><tspan class="cls-11" x="99.67" y="0">111</tspan><tspan x="108.35" y="0">10001</tspan></text><text class="cls-17" transform="translate(80 222.5)">01010<tspan class="cls-11" x="16.68" y="0">11</tspan><tspan x="22.47" y="0">10101010100100010</tspan><tspan class="cls-11" x="79.2" y="0">11</tspan><tspan x="84.99" y="0">10101000</tspan><tspan class="cls-11" x="111.69" y="0">111</tspan><tspan x="120.37" y="0">1</tspan></text><text class="cls-17" transform="translate(80 229.5)">0<tspan class="cls-11" x="3.34" y="0">11</tspan><tspan x="9.13" y="0">10100100101000101001001010100101</tspan></text><text class="cls-17" transform="translate(80 236.5)">10100101001010010100100100101001010</text></g><g id="_010010111010010101001101010100101001_10101000101001010010010100101010010_10100101011010101010101010101011110001_01010111010101010010001011101010001111_01110100100101000101001001010100101_10100101001010010100100100101001010-6" data-name=" 010010111010010101001101010100101001 10101000101001010010010100101010010 10100101011010101010101010101011110001 01010111010101010010001011101010001111 01110100100101000101001001010100101 10100101001010010100100100101001010-6" class="cls-2"><text class="cls-10" transform="translate(311 266.5)">010010<tspan class="cls-11" x="16.68" y="0">11</tspan><tspan x="21.51" y="0">101001010100</tspan><tspan class="cls-11" x="54.88" y="0">1</tspan><tspan x="57.29" y="0">101010100101001</tspan></text><text class="cls-10" transform="translate(311 272.5)">10101000101001010010010100101010010</text><text class="cls-10" transform="translate(311 278.5)">101001010<tspan class="cls-11" x="25.03" y="0">1</tspan><tspan x="27.44" y="0">10101010101010101010</tspan><tspan class="cls-11" x="83.05" y="0">111</tspan><tspan x="90.29" y="0">10001</tspan></text><text class="cls-10" transform="translate(311 284.5)">01010<tspan class="cls-11" x="13.9" y="0">11</tspan><tspan x="18.73" y="0">10101010100100010</tspan><tspan class="cls-11" x="66" y="0">11</tspan><tspan x="70.83" y="0">10101000</tspan><tspan class="cls-11" x="93.07" y="0">111</tspan><tspan x="100.31" y="0">1</tspan></text><text class="cls-10" transform="translate(311 290.5)">0<tspan class="cls-11" x="2.78" y="0">11</tspan><tspan x="7.6" y="0">10100100101000101001001010100101</tspan></text><text class="cls-10" transform="translate(311 296.5)">10100101001010010100100100101001010</text></g><g id="Group_23" data-name="Group 23"><g id="Rectangle_2-2" data-name="Rectangle 2-2"><rect class="cls-7" x="319" y="199.5" width="87" height="57" rx="7"/><rect class="cls-8" x="320" y="200.5" width="85" height="55" rx="6"/></g><line id="Line_27-2" data-name="Line 27-2" class="cls-9" x1="326.5" y1="209.5" x2="388.5" y2="209.5"/><line id="Line_28-2" data-name="Line 28-2" class="cls-9" x1="326.5" y1="212.68" x2="398.5" y2="212.68"/><line id="Line_29-2" data-name="Line 29-2" class="cls-9" x1="326.5" y1="217.08" x2="372.5" y2="217.08"/><line id="Line_30-2" data-name="Line 30-2" class="cls-9" x1="326.5" y1="221.47" x2="379.5" y2="221.47"/><line id="Line_31-2" data-name="Line 31-2" class="cls-9" x1="326.5" y1="225.87" x2="388.5" y2="225.87"/><line id="Line_32-2" data-name="Line 32-2" class="cls-9" x1="326.5" y1="230.26" x2="364.5" y2="230.26"/><line id="Line_33-2" data-name="Line 33-2" class="cls-9" x1="326.5" y1="234.66" x2="371.5" y2="234.66"/><line id="Line_34-2" data-name="Line 34-2" class="cls-9" x1="326.5" y1="239.05" x2="375.5" y2="239.05"/><line id="Line_35-2" data-name="Line 35-2" class="cls-9" x1="326.5" y1="243.45" x2="393.5" y2="243.45"/><line id="Line_36-2" data-name="Line 36-2" class="cls-9" x1="326.5" y1="246.64" x2="389.5" y2="246.64"/></g><line id="Line_37" data-name="Line 37" class="cls-18" x1="42.5" y1="209" x2="42.5" y2="297"/><g id="Rectangle_3" data-name="Rectangle 3"><rect class="cls-7" x="224" y="354.5" width="63" height="63"/><rect class="cls-8" x="225" y="355.5" width="61" height="61"/></g><g id="Rectangle_4" data-name="Rectangle 4"><rect class="cls-7" x="432" y="202.5" width="60" height="60"/><rect class="cls-16" x="433" y="203.5" width="58" height="58"/></g><g id="Ellipse_14" data-name="Ellipse 14"><circle class="cls-7" cx="461.5" cy="232" r="29.5"/><circle class="cls-16" cx="461.5" cy="232" r="28.5"/></g><line id="Line_38" data-name="Line 38" class="cls-16" x1="432.5" y1="232" x2="491.5" y2="232"/><line id="Line_39" data-name="Line 39" class="cls-16" x1="461.14" y1="204" x2="461.14" y2="262"/><line id="Line_40" data-name="Line 40" class="cls-16" x1="440.79" y1="211.29" x2="481.5" y2="252"/><line id="Line_41" data-name="Line 41" class="cls-16" x1="481.5" y1="211.29" x2="440.79" y2="252"/><g id="Rectangle_5" data-name="Rectangle 5"><rect class="cls-7" x="446" y="216.5" width="60" height="60"/><rect class="cls-16" x="447" y="217.5" width="58" height="58"/></g><g id="Ellipse_15" data-name="Ellipse 15"><circle class="cls-7" cx="475.5" cy="246" r="29.5"/><circle class="cls-16" cx="475.5" cy="246" r="28.5"/></g><line id="Line_42" data-name="Line 42" class="cls-16" x1="446.5" y1="246" x2="505.5" y2="246"/><line id="Line_43" data-name="Line 43" class="cls-16" x1="475.14" y1="218" x2="475.14" y2="276"/><line id="Line_44" data-name="Line 44" class="cls-16" x1="454.79" y1="225.29" x2="495.5" y2="266"/><line id="Line_45" data-name="Line 45" class="cls-16" x1="495.5" y1="225.29" x2="454.79" y2="266"/><g id="Rectangle_6" data-name="Rectangle 6"><rect class="cls-7" x="512" y="202.5" width="60" height="60"/><rect class="cls-8" x="513" y="203.5" width="58" height="58"/></g><g id="Ellipse_16" data-name="Ellipse 16"><circle class="cls-7" cx="541.5" cy="232" r="29.5"/><circle class="cls-8" cx="541.5" cy="232" r="28.5"/></g><line id="Line_46" data-name="Line 46" class="cls-8" x1="512.5" y1="232" x2="571.5" y2="232"/><line id="Line_47" data-name="Line 47" class="cls-8" x1="541.14" y1="204" x2="541.14" y2="262"/><line id="Line_48" data-name="Line 48" class="cls-8" x1="520.79" y1="211.29" x2="561.5" y2="252"/><line id="Line_49" data-name="Line 49" class="cls-8" x1="561.5" y1="211.29" x2="520.79" y2="252"/><g id="Rectangle_7" data-name="Rectangle 7"><rect class="cls-7" x="526" y="216.5" width="60" height="60"/><rect class="cls-8" x="527" y="217.5" width="58" height="58"/></g><g id="Ellipse_17" data-name="Ellipse 17"><circle class="cls-7" cx="555.5" cy="246" r="29.5"/><circle class="cls-8" cx="555.5" cy="246" r="28.5"/></g><line id="Line_50" data-name="Line 50" class="cls-8" x1="526.5" y1="246" x2="585.5" y2="246"/><line id="Line_51" data-name="Line 51" class="cls-8" x1="555.14" y1="218" x2="555.14" y2="276"/><line id="Line_52" data-name="Line 52" class="cls-8" x1="534.79" y1="225.29" x2="575.5" y2="266"/><line id="Line_53" data-name="Line 53" class="cls-8" x1="575.5" y1="225.29" x2="534.79" y2="266"/><g id="_010010111010010101001101010100101001_10101000101001010010010100101010010_10100101011010101010101010101011110001_01010111010101010010001011101010001111_01110100100101000101001001010100101_10100101001010010100100100101001010-7" data-name=" 010010111010010101001101010100101001 10101000101001010010010100101010010 10100101011010101010101010101011110001 01010111010101010010001011101010001111 01110100100101000101001001010100101 10100101001010010100100100101001010-7" class="cls-2"><text class="cls-10" transform="translate(473 284.5)">010010<tspan class="cls-11" x="16.68" y="0">11</tspan><tspan x="21.51" y="0">101001010100</tspan><tspan class="cls-11" x="54.88" y="0">1</tspan><tspan x="57.29" y="0">101010100101001</tspan></text><text class="cls-10" transform="translate(473 290.5)">10101000101001010010010100101010010</text><text class="cls-10" transform="translate(473 296.5)">101001010<tspan class="cls-11" x="25.03" y="0">1</tspan><tspan x="27.44" y="0">10101010101010101010</tspan><tspan class="cls-11" x="83.05" y="0">111</tspan><tspan x="90.29" y="0">10001</tspan></text><text class="cls-10" transform="translate(473 302.5)">01010<tspan class="cls-11" x="13.9" y="0">11</tspan><tspan x="18.73" y="0">10101010100100010</tspan><tspan class="cls-11" x="66" y="0">11</tspan><tspan x="70.83" y="0">10101000</tspan><tspan class="cls-11" x="93.07" y="0">111</tspan><tspan x="100.31" y="0">1</tspan></text><text class="cls-10" transform="translate(473 308.5)">0<tspan class="cls-11" x="2.78" y="0">11</tspan><tspan x="7.6" y="0">10100100101000101001001010100101</tspan></text><text class="cls-10" transform="translate(473 314.5)">10100101001010010100100100101001010</text></g><line id="Line_54" data-name="Line 54" class="cls-19" x1="25.5" y1="163" x2="25.5" y2="2"/><line id="Line_55" data-name="Line 55" class="cls-19" x1="585" y1="163" x2="585" y2="2"/><line id="Line_56" data-name="Line 56" class="cls-19" x1="26" y1="1.5" x2="585" y2="1.5"/><line id="Line_57" data-name="Line 57" class="cls-19" x1="26" y1="709.5" x2="26" y2="630.5"/><line id="Line_58" data-name="Line 58" class="cls-19" x1="567" y1="709.5" x2="567" y2="630.5"/><line id="Line_59" data-name="Line 59" class="cls-19" x1="26" y1="709.5" x2="567" y2="709.5"/><path id="ic_account_circle_24px" data-name="ic account circle 24px" class="cls-20" d="M818.66,584.66A27.38,27.38,0,1,0,846,612,27.38,27.38,0,0,0,818.66,584.66Zm0,8.21a8.22,8.22,0,1,1-8.22,8.22h0a8.21,8.21,0,0,1,8.19-8.22Zm0,38.88a19.7,19.7,0,0,1-16.43-8.82c.08-5.45,10.95-8.43,16.43-8.43s16.34,3,16.42,8.43a19.69,19.69,0,0,1-16.42,8.81Z" transform="translate(-563.66 -226.03)"/><g id="Kien_vi_sy" data-name="Kien vi sy" class="cls-2"><text class="cls-21" transform="translate(295 380.5)">Kien vi sy</text></g><g id="Nano_bot_developer" data-name="Nano bot developer" class="cls-2"><text class="cls-21" transform="translate(295 409.5)">Nano bot developer</text></g><g id="Group_24" data-name="Group 24"><g id="Rectangle_2-3" data-name="Rectangle 2-3"><rect class="cls-7" x="247" y="423.5" width="358" height="65" rx="7"/><rect class="cls-8" x="248" y="424.5" width="356" height="63" rx="6"/></g><line id="Line_27-3" data-name="Line 27-3" class="cls-22" x1="254.8" y1="433.5" x2="486.35" y2="433.5"/><line id="Line_28-3" data-name="Line 28-3" class="cls-22" x1="254.8" y1="438.5" x2="552.18" y2="438.5"/><line id="Line_29-3" data-name="Line 29-3" class="cls-22" x1="254.8" y1="443.5" x2="426.59" y2="443.5"/><line id="Line_30-3" data-name="Line 30-3" class="cls-22" x1="254.8" y1="448.5" x2="452.74" y2="448.5"/><line id="Line_31-3" data-name="Line 31-3" class="cls-22" x1="254.8" y1="453.5" x2="486.35" y2="453.5"/><line id="Line_32-3" data-name="Line 32-3" class="cls-22" x1="254.8" y1="458.5" x2="396.72" y2="458.5"/><line id="Line_33-3" data-name="Line 33-3" class="cls-22" x1="254.8" y1="463.5" x2="422.86" y2="463.5"/><line id="Line_34-3" data-name="Line 34-3" class="cls-22" x1="254.8" y1="468.5" x2="437.8" y2="468.5"/><line id="Line_35-3" data-name="Line 35-3" class="cls-22" x1="254.8" y1="473.5" x2="533.51" y2="473.5"/><line id="Line_36-3" data-name="Line 36-3" class="cls-22" x1="254.8" y1="478.5" x2="490.08" y2="478.5"/></g><g id="Ellipse_18" data-name="Ellipse 18"><circle class="cls-7" cx="100" cy="417.5" r="64"/><circle class="cls-23" cx="100" cy="417.5" r="62.5"/></g><g id="Group_35" data-name="Group 35"><g id="Group_26" data-name="Group 26"><g id="Group_25" data-name="Group 25"><ellipse id="Ellipse_19" data-name="Ellipse 19" class="cls-24" cx="102.03" cy="417.5" rx="20.7" ry="22.63"/></g></g><g id="Group_28" data-name="Group 28"><g id="Group_27" data-name="Group 27"><path id="Path_48" data-name="Path 48" class="cls-25" d="M663.66,676.35a53.92,53.92,0,0,1-15.91-2.4,82.6,82.6,0,0,1-36.6-23.56,10.3,10.3,0,0,1,0-13.72,82.58,82.58,0,0,1,36.6-23.55,53.94,53.94,0,0,1,31.82,0,82.69,82.69,0,0,1,36.6,23.55,10.32,10.32,0,0,1,0,13.72A82.71,82.71,0,0,1,679.57,674,54,54,0,0,1,663.66,676.35Zm0-61.09a49.3,49.3,0,0,0-14.57,2.2,78,78,0,0,0-34.56,22.24,5.76,5.76,0,0,0,0,7.67,77.9,77.9,0,0,0,34.56,22.25,49.53,49.53,0,0,0,29.13,0,77.85,77.85,0,0,0,34.56-22.25,5.74,5.74,0,0,0,0-7.67,77.91,77.91,0,0,0-34.56-22.24,49.18,49.18,0,0,0-14.56-2.2Z" transform="translate(-563.66 -226.03)"/></g></g><g id="Group_30" data-name="Group 30"><g id="Group_29" data-name="Group 29"><path id="Path_49" data-name="Path 49" class="cls-25" d="M663.66,668.53a25,25,0,1,1,25-25A25,25,0,0,1,663.66,668.53Zm0-45.45a20.46,20.46,0,1,0,20.46,20.45h0a20.48,20.48,0,0,0-20.46-20.45Z" transform="translate(-563.66 -226.03)"/></g></g><g id="Group_32" data-name="Group 32"><g id="Group_31" data-name="Group 31"><circle id="Ellipse_20" data-name="Ellipse 20" class="cls-25" cx="100.01" cy="417.5" r="16"/></g></g><g id="Group_34" data-name="Group 34"><g id="Group_33" data-name="Group 33"><circle id="Ellipse_21" data-name="Ellipse 21" class="cls-24" cx="107.08" cy="408.59" r="8.91"/></g></g></g></svg>