
<svg id="Layer_1" data-name="Layer 1" xmlns="http://www.w3.org/2000/svg" viewBox="0 0 645.03 519.48"><defs><style>.cls-1{font-size:36px;fill:#1d1d1b;font-family:AdobeSongStd-Light-GBpc-EUC-H, Adobe Song Std;}.cls-10,.cls-13,.cls-2{fill:#fff;}.cls-3,.cls-4,.cls-5,.cls-6,.cls-7,.cls-8{fill:none;}.cls-3,.cls-4,.cls-7,.cls-8{stroke:#fff;}.cls-3,.cls-4,.cls-5{stroke-linecap:round;}.cls-3{stroke-width:2px;}.cls-5{stroke:#fdeff0;stroke-width:3px;}.cls-7{stroke-width:5px;}.cls-8{stroke-width:4px;}.cls-10,.cls-13,.cls-9{isolation:isolate;}.cls-10{font-size:49px;font-family:Helvetica;}.cls-11{letter-spacing:-0.07em;}.cls-12{letter-spacing:-0.02em;}.cls-13{font-size:34px;font-family:Helvetica-Bold, Helvetica;font-weight:700;}</style></defs><text class="cls-1" transform="translate(84.29 31.68)">药物</text><path id="Subtraction_2" data-name="Subtraction 2" class="cls-2" d="M520,429.1a72.7,72.7,0,0,1-1-30.48,75.46,75.46,0,0,1,4.12-14.43,78.11,78.11,0,0,1,6.88-13.4,80.09,80.09,0,0,1,9.4-12A82.59,82.59,0,0,1,551,348.61a84.72,84.72,0,0,1,13.71-8,86.79,86.79,0,0,1,31.77-7.92,85.09,85.09,0,0,1,15.87.64,83.08,83.08,0,0,1,15.09,3.52A80.56,80.56,0,0,1,641.38,343a77.58,77.58,0,0,1,12.36,8.6,75.54,75.54,0,0,1,10.41,10.82,72.57,72.57,0,0,1,13.41,27.39l-15.47,3.86h0a55.88,55.88,0,0,0-10.64-21.49,58.88,58.88,0,0,0-8.32-8.46,61.87,61.87,0,0,0-9.88-6.72,64.93,64.93,0,0,0-11.15-4.79A67.08,67.08,0,0,0,610,349.49a70.63,70.63,0,0,0-49.3,12.29,67.7,67.7,0,0,0-9.41,8.07,65.77,65.77,0,0,0-7.59,9.47,62.41,62.41,0,0,0-5.58,10.57,58.76,58.76,0,0,0-3.36,11.38,56.07,56.07,0,0,0,11.33,45.47,59.41,59.41,0,0,0,8.31,8.47,62.35,62.35,0,0,0,9.89,6.71,65,65,0,0,0,11.15,4.8,67.81,67.81,0,0,0,12.1,2.7,69.57,69.57,0,0,0,25.79-1.55l.49-.12,4,15.93-.49.12A85.74,85.74,0,0,1,601,486.24a84.18,84.18,0,0,1-15.87-.64,83.16,83.16,0,0,1-15.1-3.51,82,82,0,0,1-13.92-6.17,78.84,78.84,0,0,1-12.37-8.61,75.47,75.47,0,0,1-10.41-10.81A72.64,72.64,0,0,1,520,429.11Z" transform="translate(-112.74 -51.73)"/><g id="Group_14" data-name="Group 14"><g id="Group_13" data-name="Group 13"><line id="Line_15" data-name="Line 15" class="cls-3" x1="1" y1="137.13" x2="1" y2="481.76"/><line id="Line_16" data-name="Line 16" class="cls-3" x1="1" y1="481.99" x2="22" y2="518.48"/><line id="Line_17" data-name="Line 17" class="cls-3" x1="644.03" y1="518.48" x2="22" y2="518.48"/><line id="Line_18" data-name="Line 18" class="cls-3" x1="644.03" y1="137.13" x2="644.03" y2="518.48"/><line id="Line_19" data-name="Line 19" class="cls-3" x1="644.03" y1="137.13" x2="1" y2="137.13"/></g><line id="Line_20" data-name="Line 20" class="cls-3" x1="1" y1="140.61" x2="1" y2="105.85"/><line id="Line_21" data-name="Line 21" class="cls-3" x1="1" y1="105.85" x2="325.5" y2="105.85"/><line id="Line_22" data-name="Line 22" class="cls-3" x1="227.13" y1="105.85" x2="245.13" y2="137.13"/><path id="Path_50" data-name="Path 50" class="cls-4" d="M114.24,167.58l630.52,0" transform="translate(-112.74 -51.73)"/><line id="Line_24" data-name="Line 24" class="cls-3" x1="632.03" y1="116.28" x2="644.03" y2="137.13"/><line id="Line_25" data-name="Line 25" class="cls-4" x1="300.67" y1="116.28" x2="312.67" y2="137.13"/><line id="Line_26" data-name="Line 26" class="cls-4" x1="382.2" y1="116.28" x2="394.2" y2="137.13"/></g><line id="Line_77" data-name="Line 77" class="cls-5" x1="81.5" y1="270.14" x2="100.5" y2="251.14"/><g id="Ellipse_36" data-name="Ellipse 36"><ellipse class="cls-6" cx="75" cy="282.64" rx="7" ry="11"/><ellipse class="cls-7" cx="75" cy="282.64" rx="4.5" ry="8.5"/></g><line id="Line_78" data-name="Line 78" class="cls-5" x1="76" y1="297.14" x2="83.5" y2="320.14"/><line id="Line_79" data-name="Line 79" class="cls-5" x1="123.5" y1="330.14" x2="83.5" y2="320.14"/><line id="Line_80" data-name="Line 80" class="cls-5" x1="54.5" y1="349.14" x2="83.5" y2="320.14"/><line id="Line_81" data-name="Line 81" class="cls-5" x1="54.5" y1="349.14" x2="66.5" y2="389.14"/><line id="Line_82" data-name="Line 82" class="cls-5" x1="105.5" y1="398.14" x2="66.5" y2="389.14"/><line id="Line_83" data-name="Line 83" class="cls-5" x1="105.5" y1="398.14" x2="133.5" y2="369.14"/><line id="Line_84" data-name="Line 84" class="cls-5" x1="123.5" y1="330.14" x2="134.5" y2="367.14"/><line id="Line_85" data-name="Line 85" class="cls-5" x1="171.5" y1="385.14" x2="134.5" y2="367.14"/><line id="Line_86" data-name="Line 86" class="cls-5" x1="171.5" y1="385.14" x2="166.5" y2="425.14"/><line id="Line_87" data-name="Line 87" class="cls-5" x1="149.5" y1="429.14" x2="166.5" y2="425.14"/><line id="Line_88" data-name="Line 88" class="cls-5" x1="105.5" y1="398.14" x2="118.5" y2="419.14"/><line id="Line_89" data-name="Line 89" class="cls-5" x1="171.5" y1="385.14" x2="206.5" y2="366.14"/><line id="Line_90" data-name="Line 90" class="cls-5" x1="239.5" y1="386.14" x2="206.5" y2="366.14"/><line id="Line_91" data-name="Line 91" class="cls-5" x1="239.5" y1="386.14" x2="258.5" y2="376.14"/><line id="Line_92" data-name="Line 92" class="cls-5" x1="286.5" y1="376.14" x2="305.5" y2="387.14"/><line id="Line_93" data-name="Line 93" class="cls-5" x1="336.5" y1="369.14" x2="305.5" y2="387.14"/><line id="Line_94" data-name="Line 94" class="cls-5" x1="308.5" y1="387.14" x2="308.5" y2="413.14"/><line id="Line_95" data-name="Line 95" class="cls-5" x1="302.5" y1="387.14" x2="302.5" y2="413.14"/><g id="Ellipse_37" data-name="Ellipse 37"><ellipse class="cls-6" cx="306" cy="427.64" rx="7" ry="11"/><ellipse class="cls-7" cx="306" cy="427.64" rx="4.5" ry="8.5"/></g><line id="Line_96" data-name="Line 96" class="cls-5" x1="63" y1="352.14" x2="72.5" y2="383.14"/><line id="Line_97" data-name="Line 97" class="cls-5" x1="126.5" y1="367.14" x2="104.5" y2="389.14"/><line id="Line_98" data-name="Line 98" class="cls-5" x1="86" y1="328.14" x2="116.5" y2="336.14"/><line id="Line_99" data-name="Line 99" class="cls-5" x1="164" y1="390.14" x2="160.5" y2="418.14"/><g id="Group_51" data-name="Group 51"><line id="Line_100" data-name="Line 100" class="cls-7" x1="129.5" y1="440.14" x2="129.5" y2="419.14"/><line id="Line_101" data-name="Line 101" class="cls-8" x1="137" y1="438.64" x2="130" y2="419.64"/><line id="Line_102" data-name="Line 102" class="cls-7" x1="136.5" y1="440.14" x2="136.5" y2="419.14"/></g><g id="Group_52" data-name="Group 52"><line id="Line_100-2" data-name="Line 100-2" class="cls-7" x1="270.5" y1="381.64" x2="270.5" y2="360.64"/><line id="Line_101-2" data-name="Line 101-2" class="cls-8" x1="278" y1="380.14" x2="271" y2="361.14"/><line id="Line_102-2" data-name="Line 102-2" class="cls-7" x1="277.5" y1="381.64" x2="277.5" y2="360.64"/></g><line id="Line_103" data-name="Line 103" class="cls-7" x1="129.5" y1="451.14" x2="129.5" y2="471.14"/><line id="Line_104" data-name="Line 104" class="cls-8" x1="129.5" y1="460.14" x2="136.5" y2="460.14"/><line id="Line_105" data-name="Line 105" class="cls-7" x1="136.5" y1="451.14" x2="136.5" y2="471.14"/><line id="Line_106" data-name="Line 106" class="cls-7" x1="270.5" y1="332.14" x2="270.5" y2="352.14"/><line id="Line_107" data-name="Line 107" class="cls-8" x1="270.5" y1="341.14" x2="277.5" y2="341.14"/><line id="Line_108" data-name="Line 108" class="cls-7" x1="277.5" y1="332.14" x2="277.5" y2="352.14"/><g id="Melatonin:" class="cls-9"><text class="cls-10" transform="translate(46.5 207.64)">MEL<tspan class="cls-11" x="100.75" y="0">A</tspan><tspan class="cls-12" x="129.82" y="0">T</tspan><tspan x="158.89" y="0">ONIN:</tspan></text></g><g class="cls-9"><text class="cls-13" transform="translate(442.54 371.58)">100%</text></g><path id="Subtraction_3" data-name="Subtraction 3" class="cls-2" d="M595.82,486.37c-1.25,0-2.5,0-3.75-.07V469.83c1.16.05,2.34.08,3.53.08s2.47,0,3.7-.09a75.63,75.63,0,0,0,26.39-6,71.25,71.25,0,0,0,11.31-6.1,66.35,66.35,0,0,0,9.7-7.83,62.25,62.25,0,0,0,7.84-9.31,57.61,57.61,0,0,0,5.71-10.53,53.51,53.51,0,0,0,4-23.72,54.46,54.46,0,0,0-6.78-23.22,59.8,59.8,0,0,0-6.92-9.95,64.67,64.67,0,0,0-8.9-8.53,68.81,68.81,0,0,0-10.58-6.89,72,72,0,0,0-12-5,76.41,76.41,0,0,0-23.24-3.59c-1.22,0-2.46,0-3.7.09h-.1V332.77c1.2,0,2.4-.07,3.57-.07a94.92,94.92,0,0,1,12.83.87,92.66,92.66,0,0,1,16.27,3.73,89.91,89.91,0,0,1,14.9,6.4,87.21,87.21,0,0,1,13.17,8.78,81.3,81.3,0,0,1,11.08,10.87A77.36,77.36,0,0,1,672.52,376a72.05,72.05,0,0,1,5.82,14.18,69.82,69.82,0,0,1-2.28,45.56,73.69,73.69,0,0,1-7.09,13.4A78.94,78.94,0,0,1,659.23,461,83.26,83.26,0,0,1,647.17,471a87.85,87.85,0,0,1-14.06,7.75,91.88,91.88,0,0,1-15.74,5.21,94.6,94.6,0,0,1-17.09,2.35C598.8,486.33,597.3,486.37,595.82,486.37Z" transform="translate(-112.74 -51.73)"/></svg>